{
.appVersion = "1230";
DisplayStrings = (
G,
"Ã"
);
classes = (
{
automatic = 1;

glyphs = (
{
color = (222,222,222,1);
export = 0;
glyphname = .notdef;
lastChange = "2019-07-05 21:41:04 +0000";
layers = (
{
layerId = "C698F293-3EC0-4A5A-A3A0-0FDB1F5CF265";
paths = (
{
closed = 1;
nodes = (
"2552 -640 LINE",
"2552 -128 LINE",
"248 -128 LINE",
"248 -640 LINE"
);
},
{
closed = 1;
nodes = (
"2552 1472 LINE",
"2552 1984 LINE",
"248 1984 LINE",
"248 1472 LINE"
);
},
{
closed = 1;
nodes = (
"2552 2176 LINE",
"2552 2688 LINE",
"248 2688 LINE",
"248 2176 LINE"
);
},
{
closed = 1;
nodes = (
"2552 64 LINE",
"2552 576 LINE",
"248 576 LINE",
"248 64 LINE"
);
},
{
closed = 1;
nodes = (
"2552 768 LINE",
"2552 1280 LINE",
"248 1280 LINE",
"248 768 LINE"
);
}
);
width = 2800;
},
{
layerId = "5C20EF92-B63D-42A8-8878-93C2863E0093";
paths = (
{
closed = 1;
nodes = (
"2740 -640 LINE",
"2740 -128 LINE",
"320 -128 LINE",
"320 -640 LINE"
);
},
{
closed = 1;
nodes = (
"2740 1472 LINE",
"2740 1984 LINE",
"320 1984 LINE",
"320 1472 LINE"
);
},
{
closed = 1;
nodes = (
"2740 2176 LINE",
"2740 2688 LINE",
"320 2688 LINE",
"320 2176 LINE"
);
},
{
closed = 1;
nodes = (
"2740 64 LINE",
"2740 576 LINE",
"320 576 LINE",
"320 64 LINE"
);
},
{
closed = 1;
nodes = (
"2740 768 LINE",
"2740 1280 LINE",
"320 1280 LINE",
"320 768 LINE"
);
}
);
width = 3060;
},
{
layerId = "B1F27B51-9973-4381-9301-4FE46FE1CA59";
paths = (
{
closed = 1;
nodes = (
"2440 -640 LINE",
"2440 -128 LINE",
"204 -128 LINE",
"204 -640 LINE"
);
},
{
closed = 1;
nodes = (
"2440 1472 LINE",
"2440 1984 LINE",
"204 1984 LINE",
"204 1472 LINE"
);
},
{
closed = 1;
nodes = (
"2440 2176 LINE",
"2440 2688 LINE",
"204 2688 LINE",
"204 2176 LINE"
);
},
{
closed = 1;
nodes = (
"2440 64 LINE",
"2440 576 LINE",
"204 576 LINE",
"204 64 LINE"
);
},
{
closed = 1;
nodes = (
"2440 768 LINE",
"2440 1280 LINE",
"204 1280 LINE",
"204 768 LINE"
);
}
);
width = 2644;
},
{
layerId = "DB1B210E-75C3-45F4-95FF-BB3F4FD26361";
width = 600;
},
{
layerId = "244DDCDD-91CB-4447-98B0-DDFA97A87342";
width = 600;
},
{
layerId = "5F6731B1-FB4A-4A0D-82A2-13F618D6D6C6";
width = 600;
}
);
userData = {
"interface.width-adjustments" = (
-16
);
};
},
{
color = (219,235,247,1);
glyphname = A;
lastChange = "2019-07-05 21:14:24 +0000";
layers = (
{
anchors = (
{
name = bottom;
position = "{952, 0}";
},
{
name = ogonek;
position = "{1832, 0}";
},
{
name = tonos;
position = "{680, 2048}";
},
{
name = top;
position = "{952, 2304}";
}
);
guideLines = (
{
angle = 90;
position = "{2064, 1832}";
},
{
alignment = center;
angle = 90;
position = "{828, 144}";
}
);
layerId = "C698F293-3EC0-4A5A-A3A0-0FDB1F5CF265";
paths = (
{
closed = 1;
nodes = (
"944 1724 LINE",
"960 1724 LINE",
"1572 0 LINE",
"1832 0 LINE",
"1080 2048 LINE",
"824 2048 LINE",
"72 0 LINE",
"332 0 LINE"
);
},
{
closed = 1;
nodes = (
"428 580 LINE",
"1476 580 LINE",
"1476 800 LINE",
"428 800 LINE"
);
}
);
width = 1904;
},
{
anchors = (
{
name = bottom;
position = "{1120, 0}";
},
{
name = ogonek;
position = "{2176, 0}";
},
{
name = tonos;
position = "{632, 2048}";
},
{
name = top;
position = "{1120, 2304}";
}
);
background = {
components = (
{
name = V;
transform = "{1, 0, 0, 1, -1436, 0}";
}
);
};
guideLines = (
{
position = "{1036, 1364}";
},
{
alignment = center;
angle = 90;
position = "{1020, 964}";
}
);
layerId = "5C20EF92-B63D-42A8-8878-93C2863E0093";
paths = (
{
closed = 1;
nodes = (
"1112 1484 LINE",
"1128 1484 LINE",
"1576 0 LINE",
"2176 0 LINE",
"1500 2048 LINE",
"740 2048 LINE",
"64 0 LINE",
"664 0 LINE"
);
},
{
closed = 1;
nodes = (
"552 392 LINE",
"1680 392 LINE",
"1680 808 LINE",
"552 808 LINE"
);
}
);
width = 2240;
},
{
anchors = (
{
name = bottom;
position = "{1164, 0}";
},
{
name = ogonek;
position = "{2220, 0}";
},
{
name = right;
position = "{2256, 0}";
},
{
name = tonos;
position = "{756, 2048}";
},
{
name = top;
position = "{1164, 2180}";
}
);
associatedMasterId = "5C20EF92-B63D-42A8-8878-93C2863E0093";
guideLines = (
{
position = "{1084, 1364}";
},
{
alignment = center;
angle = 90;
position = "{1068, 964}";
}
);
layerId = "7739C87E-652B-47A4-908A-8763081DE4BF";
name = "Oct 2 18, 14:33";
paths = (
{
closed = 1;
nodes = (
"1156 1364 LINE",
"1172 1364 LINE",
"1656 0 LINE",
"2256 0 LINE",
"1464 2048 LINE",
"868 2048 LINE",
"72 0 LINE",
"672 0 LINE"
);
},
{
closed = 1;
nodes = (
"560 320 LINE",
"1768 320 LINE",
"1768 752 LINE",
"560 752 LINE"
);
}
);
width = 2328;
},
{
anchors = (
{
name = bottom;
position = "{868, 0}";
},
{
name = ogonek;
position = "{1644, 0}";
},
{
name = tonos;
position = "{724, 2048}";
},
{
name = top;
position = "{868, 2304}";
}
);
layerId = "B1F27B51-9973-4381-9301-4FE46FE1CA59";
paths = (
{
closed = 1;
nodes = (
"864 1968 LINE",
"872 1968 LINE",
"1576 0 LINE",
"1644 0 LINE",
"912 2048 LINE",
"824 2048 LINE",
"92 0 LINE",
"160 0 LINE"
);
},
{
closed = 1;
nodes = (
"392 692 LINE",
"1344 692 LINE",
"1344 756 LINE",
"392 756 LINE"
);
}
);
width = 1736;
},
{
anchors = (
{
name = bottom;
position = "{1368, 0}";
},
{
name = top;
position = "{1362, 2304}";
}
);
layerId = "DB1B210E-75C3-45F4-95FF-BB3F4FD26361";
paths = (
{
closed = 1;
nodes = (
"864 1968 LINE",
"1872 1968 LINE",
"2576 0 LINE",
"2644 0 LINE",
"1912 2048 LINE",
"824 2048 LINE",
"92 0 LINE",
"160 0 LINE"
);
},
{
closed = 1;
nodes = (
"392 692 LINE",
"2344 692 LINE",
"2344 756 LINE",
"392 756 LINE"
);
}
);
width = 2736;
},
{
anchors = (
{
name = bottom;
position = "{1452, 0}";
},
{
name = top;
position = "{1452, 2304}";
}
);
layerId = "5F6731B1-FB4A-4A0D-82A2-13F618D6D6C6";
paths = (
{
closed = 1;
nodes = (
"944 1724 LINE",
"1958 1724 LINE",
"2570 0 LINE",
"2830 0 LINE",
"2078 2048 LINE",
"824 2048 LINE",
"72 0 LINE",
"332 0 LINE"
);
},
{
closed = 1;
nodes = (
"428 580 LINE",
"2474 580 LINE",
"2474 800 LINE",
"428 800 LINE"
);
}
);
width = 2904;
},
{
anchors = (
{
name = bottom;
position = "{1870, 0}";
},
{
name = top;
position = "{1870, 2304}";
}
);
layerId = "244DDCDD-91CB-4447-98B0-DDFA97A87342";
paths = (
{
closed = 1;
nodes = (
"1112 1484 LINE",
"2628 1484 LINE",
"3076 0 LINE",
"3676 0 LINE",
"3000 2048 LINE",
"740 2048 LINE",
"64 0 LINE",
"664 0 LINE"
);
},
{
closed = 1;
nodes = (
"552 392 LINE",
"3180 392 LINE",
"3180 808 LINE",
"552 808 LINE"
);
}
);
width = 3740;
}
);
leftKerningGroup = A;
rightKerningGroup = A;
unicode = 0041;
userData = {
com.typemytype.robofont.guideline.magnetic.9EkLRXjahr = 5;
"interface.width-adjustments" = (
-16
);
};
},
{
glyphname = uni023A;
lastChange = "2019-07-05 21:12:23 +0000";
layers = (
{
components = (
{
name = A;
}
);
layerId = "C698F293-3EC0-4A5A-A3A0-0FDB1F5CF265";
paths = (
{
closed = 1;
nodes = (
"1344 2308 LINE",
"432 -260 LINE",
"660 -260 LINE",
"1572 2308 LINE"
);
}
);
width = 1904;
},
{
components = (
{
name = A;
}
);
layerId = "5C20EF92-B63D-42A8-8878-93C2863E0093";
paths = (
{
closed = 1;
nodes = (
"1532 2308 LINE",
"756 -260 LINE",
"1040 -260 LINE",
"1816 2308 LINE"
);
}
);
width = 2240;
},
{
components = (
{
alignment = -1;
name = A;
}
);
layerId = "B1F27B51-9973-4381-9301-4FE46FE1CA59";
paths = (
{
closed = 1;
nodes = (
"1232 2308 LINE",
"240 -260 LINE",
"432 -260 LINE",
"1428 2308 LINE"
);
}
);
width = 1702;
},
{
layerId = "DB1B210E-75C3-45F4-95FF-BB3F4FD26361";
width = 600;
},
{
layerId = "244DDCDD-91CB-4447-98B0-DDFA97A87342";
width = 600;
},
{
layerId = "5F6731B1-FB4A-4A0D-82A2-13F618D6D6C6";
width = 600;
}
);
leftKerningGroup = A;
leftMetricsKey = A;
rightKerningGroup = A;
rightMetricsKey = A;
unicode = 023A;
userData = {
interface.gridadjust.original = "{'width': 1855, 'leftMargin': -226, 'rightMargin': -8}";
};
},
{
glyphname = Lambda;
lastChange = "2019-07-05 21:12:23 +0000";
layers = (
{
background = {
components = (
{
name = A;
}
);
};
layerId = "C698F293-3EC0-4A5A-A3A0-0FDB1F5CF265";
paths = (
{
closed = 1;
nodes = (
"944 1724 LINE",
"960 1724 LINE",
"1572 0 LINE",
"1832 0 LINE",
"1080 2048 LINE",
"824 2048 LINE",
"72 0 LINE",
"332 0 LINE"
);
}
);
width = 1904;
},
{
background = {
components = (
{
name = A;
}
);
};
layerId = "5C20EF92-B63D-42A8-8878-93C2863E0093";
paths = (
{
closed = 1;
nodes = (
"1112 1484 LINE",
"1128 1484 LINE",
"1576 0 LINE",
"2176 0 LINE",
"1500 2048 LINE",
"740 2048 LINE",
"64 0 LINE",
"664 0 LINE"
);
}
);
width = 2240;
},
{
layerId = "B1F27B51-9973-4381-9301-4FE46FE1CA59";
paths = (
{
closed = 1;
nodes = (
"864 1968 LINE",
"872 1968 LINE",
"1576 0 LINE",
"1644 0 LINE",
"912 2048 LINE",
"824 2048 LINE",
"92 0 LINE",
"160 0 LINE"
);
}
);
width = 1736;
},
{
layerId = "DB1B210E-75C3-45F4-95FF-BB3F4FD26361";
width = 600;
},
{
layerId = "244DDCDD-91CB-4447-98B0-DDFA97A87342";
width = 600;
},
{
layerId = "5F6731B1-FB4A-4A0D-82A2-13F618D6D6C6";
width = 600;
}
);
leftKerningGroup = A;
leftMetricsKey = A;
rightKerningGroup = A;
rightMetricsKey = A;
unicode = 039B;
userData = {
interface.gridadjust.original = "{'width': 1851, 'leftMargin': 63, 'rightMargin': 77}";
"interface.width-adjustments" = (
-16
);
};
},
{
glyphname = AE;
lastChange = "2019-07-05 21:12:23 +0000";
layers = (
{
anchors = (
{
name = top;
position = "{1820, 2304}";
}
);
background = {
components = (
{
name = A;
},
{
name = E;
transform = "{1, 0, 0, 1, 1104, 0}";
}
);
};
layerId = "C698F293-3EC0-4A5A-A3A0-0FDB1F5CF265";
paths = (
{
closed = 1;
nodes = (
"344 0 LINE",
"1204 1828 LINE",
"1352 1828 LINE",
"1352 0 LINE",
"2604 0 LINE",
"2604 220 LINE",
"1600 220 LINE",
"1600 916 LINE",
"2524 916 LINE",
"2524 1136 LINE",
"1600 1136 LINE",
"1600 1828 LINE",
"2588 1828 LINE",
"2588 2048 LINE",
"1064 2048 LINE",
"72 0 LINE"
);
},
{
closed = 1;
nodes = (
"1476 580 LINE",
"1476 800 LINE",
"508 800 LINE",
"508 580 LINE"
);
}
);
width = 2788;
},
{
anchors = (
{
name = top;
position = "{1860, 2304}";
}
);
background = {
components = (
{
name = A;
transform = "{1, 0, 0, 1, 4, 0}";
},
{
name = E;
transform = "{1, 0, 0, 1, 1224, 0}";
}
);
};
guideLines = (
{
angle = 90;
position = "{1388, 2140}";
}
);
layerId = "5C20EF92-B63D-42A8-8878-93C2863E0093";
paths = (
{
closed = 1;
nodes = (
"676 0 LINE",
"1216 1484 LINE",
"1356 1484 LINE",
"1356 0 LINE",
"2828 0 LINE",
"2828 448 LINE",
"1912 448 LINE",
"1912 800 LINE",
"2756 800 LINE",
"2756 1248 LINE",
"1912 1248 LINE",
"1912 1600 LINE",
"2832 1600 LINE",
"2832 2048 LINE",
"864 2048 LINE",
"64 0 LINE"
);
},
{
closed = 1;
nodes = (
"1684 392 LINE",
"1684 808 LINE",
"556 808 LINE",
"556 392 LINE"
);
}
);
width = 2976;
},
{
anchors = (
{
name = top;
position = "{1728, 2304}";
}
);
layerId = "B1F27B51-9973-4381-9301-4FE46FE1CA59";
paths = (
{
closed = 1;
nodes = (
"164 0 LINE",
"1176 1984 LINE",
"1376 1984 LINE",
"1376 0 LINE",
"2496 0 LINE",
"2496 64 LINE",
"1440 64 LINE",
"1440 992 LINE",
"2408 992 LINE",
"2408 1056 LINE",
"1440 1056 LINE",
"1440 1984 LINE",
"2468 1984 LINE",
"2468 2048 LINE",
"1136 2048 LINE",
"92 0 LINE"
);
},
{
closed = 1;
nodes = (
"1412 692 LINE",
"1412 756 LINE",
"492 756 LINE",
"492 692 LINE"
);
}
);
width = 2700;
},
{
layerId = "DB1B210E-75C3-45F4-95FF-BB3F4FD26361";
width = 600;
},
{
layerId = "244DDCDD-91CB-4447-98B0-DDFA97A87342";
width = 600;
},
{
layerId = "5F6731B1-FB4A-4A0D-82A2-13F618D6D6C6";
width = 600;
}
);
leftKerningGroup = A;
leftMetricsKey = A;
rightKerningGroup = E;
rightMetricsKey = E;
unicode = 00C6;
userData = {
interface.gridadjust.original = "{'width': 2647, 'leftMargin': -30, 'rightMargin': 45}";
"interface.width-adjustments" = (
-16
);
};
},
{
color = (219,235,247,1);
glyphname = B;
lastChange = "2019-07-05 21:06:43 +0000";
layers = (
{
anchors = (
{
name = bottom;
position = "{888, 0}";
},
{
name = top;
position = "{876, 2304}";
}
);
guideLines = (
{
angle = 90;
position = "{924, 1772}";
},
{
angle = 90;
position = "{1612, 1340}";
}
);
layerId = "C698F293-3EC0-4A5A-A3A0-0FDB1F5CF265";
paths = (
{
closed = 1;
nodes = (
"988 0 LINE SMOOTH",
"1472 0 OFFCURVE",
"1672 236 OFFCURVE",
"1672 544 CURVE SMOOTH",
"1672 868 OFFCURVE",
"1448 1044 OFFCURVE",
"1260 1056 CURVE",
"1260 1076 LINE",
"1436 1124 OFFCURVE",
"1592 1240 OFFCURVE",
"1592 1504 CURVE SMOOTH",
"1592 1804 OFFCURVE",
"1392 2048 OFFCURVE",
"964 2048 CURVE SMOOTH",
"248 2048 LINE",
"248 0 LINE"
);
},
{
closed = 1;
nodes = (
"496 932 LINE",
"1000 932 LINE SMOOTH",
"1268 932 OFFCURVE",
"1436 752 OFFCURVE",
"1436 544 CURVE SMOOTH",
"1436 364 OFFCURVE",
"1312 220 OFFCURVE",
"988 220 CURVE SMOOTH",
"496 220 LINE"
);
},
{
closed = 1;
nodes = (
"496 1828 LINE",
"964 1828 LINE SMOOTH",
"1236 1828 OFFCURVE",
"1356 1684 OFFCURVE",
"1356 1504 CURVE SMOOTH",
"1356 1288 OFFCURVE",
"1180 1148 OFFCURVE",
"956 1148 CURVE SMOOTH",
"496 1148 LINE"
);
}
);
width = 1832;
},
{
anchors = (
{
name = bottom;
position = "{912, 0}";
},
{
name = top;
position = "{916, 2304}";
}
);
guideLines = (
{
alignment = center;
angle = 90;
position = "{760, 716}";
}
);
layerId = "5C20EF92-B63D-42A8-8878-93C2863E0093";
paths = (
{
closed = 1;
nodes = (
"1096 0 LINE SMOOTH",
"1541 0 OFFCURVE",
"1816 243 OFFCURVE",
"1816 580 CURVE SMOOTH",
"1816 869 OFFCURVE",
"1603 1058 OFFCURVE",
"1340 1068 CURVE",
"1340 1088 LINE",
"1577 1135 OFFCURVE",
"1736 1310 OFFCURVE",
"1736 1536 CURVE SMOOTH",
"1736 1848 OFFCURVE",
"1488 2048 OFFCURVE",
"1020 2048 CURVE SMOOTH",
"132 2048 LINE",
"132 0 LINE"
);
},
{
closed = 1;
nodes = (
"688 876 LINE",
"956 876 LINE SMOOTH",
"1125 876 OFFCURVE",
"1228 796 OFFCURVE",
"1228 652 CURVE SMOOTH",
"1228 515 OFFCURVE",
"1135 444 OFFCURVE",
"948 444 CURVE SMOOTH",
"688 444 LINE"
);
},
{
closed = 1;
nodes = (
"688 1612 LINE",
"924 1612 LINE SMOOTH",
"1062 1612 OFFCURVE",
"1164 1542 OFFCURVE",
"1164 1416 CURVE SMOOTH",
"1164 1290 OFFCURVE",
"1062 1220 OFFCURVE",
"916 1220 CURVE SMOOTH",
"688 1220 LINE"
);
}
);
width = 1880;
},
{
anchors = (
{
name = bottom;
position = "{876, 0}";
},
{
name = top;
position = "{852, 2304}";
}
);
guideLines = (
{
alignment = center;
angle = 180;
position = "{944, 1040}";
}
);
layerId = "B1F27B51-9973-4381-9301-4FE46FE1CA59";
paths = (
{
closed = 1;
nodes = (
"1028 0 LINE SMOOTH",
"1380 0 OFFCURVE",
"1588 208 OFFCURVE",
"1588 524 CURVE SMOOTH",
"1588 809 OFFCURVE",
"1418 1017 OFFCURVE",
"1196 1036 CURVE",
"1196 1044 LINE",
"1394 1094 OFFCURVE",
"1508 1287 OFFCURVE",
"1508 1528 CURVE SMOOTH",
"1508 1851 OFFCURVE",
"1304 2048 OFFCURVE",
"960 2048 CURVE SMOOTH",
"320 2048 LINE",
"320 0 LINE"
);
},
{
closed = 1;
nodes = (
"384 1008 LINE",
"1028 1008 LINE SMOOTH",
"1317 1008 OFFCURVE",
"1524 808 OFFCURVE",
"1524 524 CURVE SMOOTH",
"1524 248 OFFCURVE",
"1328 64 OFFCURVE",
"1028 64 CURVE SMOOTH",
"384 64 LINE"
);
},
{
closed = 1;
nodes = (
"384 1984 LINE",
"960 1984 LINE SMOOTH",
"1258 1984 OFFCURVE",
"1444 1819 OFFCURVE",
"1444 1528 CURVE SMOOTH",
"1444 1284 OFFCURVE",
"1307 1072 OFFCURVE",
"1028 1072 CURVE SMOOTH",
"384 1072 LINE"
);
}
);
width = 1804;
},
{
layerId = "244DDCDD-91CB-4447-98B0-DDFA97A87342";
paths = (
{
closed = 1;
nodes = (
"2596 0 LINE SMOOTH",
"3041 0 OFFCURVE",
"3316 243 OFFCURVE",
"3316 580 CURVE SMOOTH",
"3316 869 OFFCURVE",
"3103 1058 OFFCURVE",
"2840 1068 CURVE",
"2840 1088 LINE",
"3077 1135 OFFCURVE",
"3236 1310 OFFCURVE",
"3236 1536 CURVE SMOOTH",
"3236 1848 OFFCURVE",
"2988 2048 OFFCURVE",
"2520 2048 CURVE SMOOTH",
"132 2048 LINE",
"132 0 LINE"
);
},
{
closed = 1;
nodes = (
"688 876 LINE",
"2456 876 LINE SMOOTH",
"2625 876 OFFCURVE",
"2728 796 OFFCURVE",
"2728 652 CURVE SMOOTH",
"2728 515 OFFCURVE",
"2635 444 OFFCURVE",
"2448 444 CURVE SMOOTH",
"688 444 LINE"
);
},
{
closed = 1;
nodes = (
"688 1612 LINE",
"2424 1612 LINE SMOOTH",
"2562 1612 OFFCURVE",
"2664 1542 OFFCURVE",
"2664 1416 CURVE SMOOTH",
"2664 1290 OFFCURVE",
"2562 1220 OFFCURVE",
"2416 1220 CURVE SMOOTH",
"688 1220 LINE"
);
}
);
width = 3380;
},
{
layerId = "DB1B210E-75C3-45F4-95FF-BB3F4FD26361";
paths = (
{
closed = 1;
nodes = (
"2028 0 LINE SMOOTH",
"2380 0 OFFCURVE",
"2588 208 OFFCURVE",
"2588 524 CURVE SMOOTH",
"2588 809 OFFCURVE",
"2418 1017 OFFCURVE",
"2196 1036 CURVE",
"2196 1044 LINE",
"2394 1094 OFFCURVE",
"2508 1287 OFFCURVE",
"2508 1528 CURVE SMOOTH",
"2508 1851 OFFCURVE",
"2304 2048 OFFCURVE",
"1960 2048 CURVE SMOOTH",
"320 2048 LINE",
"320 0 LINE"
);
},
{
closed = 1;
nodes = (
"384 1008 LINE",
"2028 1008 LINE SMOOTH",
"2317 1008 OFFCURVE",
"2524 808 OFFCURVE",
"2524 524 CURVE SMOOTH",
"2524 248 OFFCURVE",
"2328 64 OFFCURVE",
"2028 64 CURVE SMOOTH",
"384 64 LINE"
);
},
{
closed = 1;
nodes = (
"384 1984 LINE",
"1960 1984 LINE SMOOTH",
"2258 1984 OFFCURVE",
"2444 1819 OFFCURVE",
"2444 1528 CURVE SMOOTH",
"2444 1284 OFFCURVE",
"2307 1072 OFFCURVE",
"2028 1072 CURVE SMOOTH",
"384 1072 LINE"
);
}
);
width = 2804;
},
{
layerId = "5F6731B1-FB4A-4A0D-82A2-13F618D6D6C6";
paths = (
{
closed = 1;
nodes = (
"1986 0 LINE SMOOTH",
"2470 0 OFFCURVE",
"2670 236 OFFCURVE",
"2670 544 CURVE SMOOTH",
"2670 868 OFFCURVE",
"2446 1044 OFFCURVE",
"2258 1056 CURVE",
"2258 1076 LINE",
"2434 1124 OFFCURVE",
"2590 1240 OFFCURVE",
"2590 1504 CURVE SMOOTH",
"2590 1804 OFFCURVE",
"2390 2048 OFFCURVE",
"1962 2048 CURVE SMOOTH",
"248 2048 LINE",
"248 0 LINE"
);
},
{
closed = 1;
nodes = (
"496 932 LINE",
"1998 932 LINE SMOOTH",
"2266 932 OFFCURVE",
"2434 752 OFFCURVE",
"2434 544 CURVE SMOOTH",
"2434 364 OFFCURVE",
"2310 220 OFFCURVE",
"1986 220 CURVE SMOOTH",
"496 220 LINE"
);
},
{
closed = 1;
nodes = (
"496 1828 LINE",
"1962 1828 LINE SMOOTH",
"2234 1828 OFFCURVE",
"2354 1684 OFFCURVE",
"2354 1504 CURVE SMOOTH",
"2354 1288 OFFCURVE",
"2178 1148 OFFCURVE",
"1954 1148 CURVE SMOOTH",
"496 1148 LINE"
);
}
);
width = 2832;
}
);
leftKerningGroup = B;
rightKerningGroup = B;
unicode = 0042;
userData = {
com.typemytype.robofont.guideline.magnetic.olHMUUD5VH = 5;
com.typemytype.robofont.guideline.magnetic.rWKPWS6RQH = 5;
"interface.width-adjustments" = (
-16
);
};
},
{
glyphname = Bhook;
lastChange = "2019-07-05 21:12:23 +0000";
layers = (
{
components = (
{
name = B;
transform = "{1, 0, 0, 1, 428, 0}";
}
);
layerId = "C698F293-3EC0-4A5A-A3A0-0FDB1F5CF265";
paths = (
{
closed = 1;
nodes = (
"744 2048 LINE",
"544 2048 LINE SMOOTH",
"280 2048 OFFCURVE",
"136 1864 OFFCURVE",
"136 1640 CURVE SMOOTH",
"136 1504 LINE",
"368 1504 LINE",
"368 1580 LINE SMOOTH",
"368 1708 OFFCURVE",
"388 1828 OFFCURVE",
"548 1828 CURVE SMOOTH",
"744 1828 LINE"
);
}
);
width = 2260;
},
{
components = (
{
name = B;
transform = "{1, 0, 0, 1, 680, 0}";
}
);
layerId = "5C20EF92-B63D-42A8-8878-93C2863E0093";
paths = (
{
closed = 1;
nodes = (
"1144 2048 LINE",
"780 2048 LINE SMOOTH",
"350 2048 OFFCURVE",
"74 1828 OFFCURVE",
"76 1440 CURVE SMOOTH",
"76 1196 LINE",
"564 1196 LINE",
"564 1344 LINE SMOOTH",
"562 1464 OFFCURVE",
"610 1604 OFFCURVE",
"780 1604 CURVE SMOOTH",
"1144 1604 LINE {name = hr00;}"
);
}
);
width = 2560;
},
{
components = (
{
alignment = -1;
name = B;
transform = "{1, 0, 0, 1, 276, 0}";
}
);
layerId = "B1F27B51-9973-4381-9301-4FE46FE1CA59";
paths = (
{
closed = 1;
nodes = (
"504 2048 LINE",
"404 2048 LINE SMOOTH",
"238 2048 OFFCURVE",
"173 1886 OFFCURVE",
"172 1760 CURVE SMOOTH",
"172 1688 LINE",
"252 1688 LINE",
"252 1724 LINE SMOOTH",
"252 1854 OFFCURVE",
"255 1962 OFFCURVE",
"408 1964 CURVE SMOOTH",
"504 1964 LINE {name = hr00;}"
);
}
);
width = 2080;
},
{
layerId = "DB1B210E-75C3-45F4-95FF-BB3F4FD26361";
width = 600;
},
{
layerId = "244DDCDD-91CB-4447-98B0-DDFA97A87342";
width = 600;
},
{
layerId = "5F6731B1-FB4A-4A0D-82A2-13F618D6D6C6";
width = 600;
}
);
leftKerningGroup = B;
leftMetricsKey = T;
rightKerningGroup = B;
rightMetricsKey = B;
unicode = 0181;
userData = {
interface.gridadjust.original = "{'width': 2046.0, 'leftMargin': 41, 'rightMargin': 100.0}";
"interface.width-adjustments" = (
-16
);
};
},
{
color = (219,235,247,1);
glyphname = C;
lastChange = "2019-07-05 21:30:50 +0000";
layers = (
{
anchors = (
{
name = cedilla;
position = "{1076, -30}";
},
{
name = top;
position = "{1072, 2304}";
}
);
background = {
components = (
{
name = O;
}
);
};
guideLines = (
{
angle = 90;
position = "{1072, 1432}";
}
);
layerId = "C698F293-3EC0-4A5A-A3A0-0FDB1F5CF265";
paths = (
{
closed = 1;
nodes = (
"548 -28 OFFCURVE",
"168 376 OFFCURVE",
"168 1024 CURVE",
"168 1672 OFFCURVE",
"548 2076 OFFCURVE",
"1072 2076 CURVE SMOOTH",
"1074 2076 LINE",
"1486 2077 OFFCURVE",
"1822 1829 OFFCURVE",
"1898 1408 CURVE",
"1650 1408 LINE",
"1590 1693 OFFCURVE",
"1346 1844 OFFCURVE",
"1074 1844 CURVE SMOOTH",
"1072 1844 LINE",
"700 1844 OFFCURVE",
"408 1556 OFFCURVE",
"408 1024 CURVE",
"408 492 OFFCURVE",
"700 204 OFFCURVE",
"1072 204 CURVE SMOOTH",
"1074 204 LINE",
"1346 206 OFFCURVE",
"1590 358 OFFCURVE",
"1650 640 CURVE",
"1898 640 LINE",
"1822 222 OFFCURVE",
"1486 -28 OFFCURVE",
"1074 -28 CURVE SMOOTH",
"1072 -28 LINE"
);
}
);
width = 2048;
},
{
anchors = (
{
name = cedilla;
position = "{1100, 8}";
},
{
name = top;
position = "{1112, 2304}";
}
);
background = {
components = (
{
name = O;
}
);
hints = (
{
horizontal = 1;
place = "{-28, 21}";
target = up;
type = BottomGhost;
},
{
horizontal = 1;
place = "{2076, -20}";
target = down;
type = TopGhost;
},
{
horizontal = 1;
place = "{-28, -2147483648}";
type = Anchor;
options = 4;
},
{
horizontal = 1;
place = "{2076, -2147483648}";
type = Anchor;
options = 4;
},
{
horizontal = 1;
place = "{-28, 21}";
target = up;
type = BottomGhost;
},
{
horizontal = 1;
place = "{2076, -20}";
target = down;
type = TopGhost;
},
{
horizontal = 1;
place = "{-28, -2147483648}";
type = Anchor;
options = 4;
},
{
horizontal = 1;
place = "{2076, -2147483648}";
type = Anchor;
options = 4;
},
{
horizontal = 1;
place = "{-28, 21}";
target = up;
type = BottomGhost;
},
{
horizontal = 1;
place = "{2076, -20}";
target = down;
type = TopGhost;
},
{
horizontal = 1;
place = "{-28, -2147483648}";
type = Anchor;
options = 4;
},
{
horizontal = 1;
place = "{2076, -2147483648}";
type = Anchor;
options = 4;
}
);
};
guideLines = (
{
position = "{1160, 1024}";
},
{
position = "{12, 0}";
}
);
layerId = "5C20EF92-B63D-42A8-8878-93C2863E0093";
paths = (
{
closed = 1;
nodes = (
"548 -28 OFFCURVE",
"124 344 OFFCURVE",
"124 1024 CURVE",
"124 1708 OFFCURVE",
"559 2076 OFFCURVE",
"1112 2076 CURVE SMOOTH",
"1112 2076 LINE",
"1630 2075 OFFCURVE",
"2002 1787 OFFCURVE",
"2044 1280 CURVE",
"1480 1280 LINE",
"1466 1465 OFFCURVE",
"1344 1591 OFFCURVE",
"1128 1592 CURVE SMOOTH",
"1128 1592 LINE",
"848 1592 OFFCURVE",
"696 1380 OFFCURVE",
"696 1024 CURVE",
"696 648 OFFCURVE",
"854 456 OFFCURVE",
"1124 456 CURVE SMOOTH",
"1124 456 LINE",
"1330 455 OFFCURVE",
"1454 565 OFFCURVE",
"1480 740 CURVE",
"2044 736 LINE",
"2018 387 OFFCURVE",
"1714 -29 OFFCURVE",
"1112 -28 CURVE SMOOTH",
"510 -27 OFFCURVE",
"1140 -24 OFFCURVE",
"1112 -28 CURVE"
);
}
);
width = 2164;
},
{
anchors = (
{
name = cedilla;
position = "{1052, 0}";
},
{
name = top;
position = "{1052, 2304}";
}
);
background = {
components = (
{
name = O;
transform = "{1, 0, 0, 1, 8, 0}";
}
);
};
layerId = "B1F27B51-9973-4381-9301-4FE46FE1CA59";
paths = (
{
closed = 1;
nodes = (
"548 -27 OFFCURVE",
"204 397 OFFCURVE",
"204 1024 CURVE SMOOTH",
"204 1653 OFFCURVE",
"548 2077 OFFCURVE",
"1052 2076 CURVE",
"1054 2076 LINE SMOOTH",
"1536 2076 OFFCURVE",
"1788 1701 OFFCURVE",
"1838 1408 CURVE",
"1770 1408 LINE",
"1720 1681 OFFCURVE",
"1472 2013 OFFCURVE",
"1054 2012 CURVE",
"1052 2012 LINE SMOOTH",
"632 2012 OFFCURVE",
"268 1661 OFFCURVE",
"268 1024 CURVE SMOOTH",
"268 381 OFFCURVE",
"632 36 OFFCURVE",
"1052 36 CURVE SMOOTH",
"1054 36 LINE",
"1471 37 OFFCURVE",
"1719 365 OFFCURVE",
"1770 640 CURVE",
"1838 640 LINE",
"1787 353 OFFCURVE",
"1536 -28 OFFCURVE",
"1054 -28 CURVE SMOOTH",
"1052 -28 LINE"
);
}
);
width = 2036;
},
{
anchors = (
{
name = cedilla;
position = "{1518, 0}";
},
{
name = top;
position = "{1522, 2304}";
}
);
layerId = "DB1B210E-75C3-45F4-95FF-BB3F4FD26361";
paths = (
{
closed = 1;
nodes = (
"547 -29 OFFCURVE",
"203 395 OFFCURVE",
"204 1024 CURVE SMOOTH",
"205 1651 OFFCURVE",
"547 2075 OFFCURVE",
"1052 2076 CURVE",
"2054 2076 LINE SMOOTH",
"2535 2076 OFFCURVE",
"2787 1700 OFFCURVE",
"2838 1408 CURVE",
"2770 1408 LINE",
"2719 1680 OFFCURVE",
"2471 2012 OFFCURVE",
"2054 2012 CURVE",
"1052 2012 LINE SMOOTH",
"631 2012 OFFCURVE",
"267 1659 OFFCURVE",
"268 1024 CURVE SMOOTH",
"269 379 OFFCURVE",
"631 36 OFFCURVE",
"1052 36 CURVE SMOOTH",
"2054 36 LINE",
"2470 36 OFFCURVE",
"2718 364 OFFCURVE",
"2770 640 CURVE",
"2838 640 LINE",
"2786 352 OFFCURVE",
"2535 -28 OFFCURVE",
"2054 -28 CURVE SMOOTH",
"1052 -28 LINE"
);
}
);
width = 3036;
},
{
anchors = (
{
name = cedilla;
position = "{1528, -30}";
},
{
name = top;
position = "{1524, 2304}";
}
);
layerId = "5F6731B1-FB4A-4A0D-82A2-13F618D6D6C6";
paths = (
{
closed = 1;
nodes = (
"548 -28 OFFCURVE",
"168 376 OFFCURVE",
"168 1024 CURVE",
"168 1672 OFFCURVE",
"548 2076 OFFCURVE",
"1072 2076 CURVE SMOOTH",
"2074 2076 LINE",
"2487 2077 OFFCURVE",
"2823 1829 OFFCURVE",
"2898 1408 CURVE",
"2650 1408 LINE",
"2591 1693 OFFCURVE",
"2347 1844 OFFCURVE",
"2074 1844 CURVE SMOOTH",
"1072 1844 LINE",
"700 1844 OFFCURVE",
"408 1556 OFFCURVE",
"408 1024 CURVE",
"408 492 OFFCURVE",
"700 204 OFFCURVE",
"1072 204 CURVE SMOOTH",
"2074 204 LINE",
"2347 206 OFFCURVE",
"2591 358 OFFCURVE",
"2650 640 CURVE",
"2898 640 LINE",
"2823 222 OFFCURVE",
"2487 -28 OFFCURVE",
"2074 -28 CURVE SMOOTH",
"1072 -28 LINE"
);
}
);
width = 3048;
},
{
anchors = (
{
name = cedilla;
position = "{1832, 8}";
},
{
name = top;
position = "{1844, 2304}";
}
);
layerId = "244DDCDD-91CB-4447-98B0-DDFA97A87342";
paths = (
{
closed = 1;
nodes = (
"548 -28 OFFCURVE",
"124 344 OFFCURVE",
"124 1024 CURVE",
"124 1708 OFFCURVE",
"560 2076 OFFCURVE",
"1112 2076 CURVE SMOOTH",
"2612 2076 LINE",
"3130 2077 OFFCURVE",
"3502 1789 OFFCURVE",
"3544 1280 CURVE",
"2980 1280 LINE",
"2966 1467 OFFCURVE",
"2844 1592 OFFCURVE",
"2628 1592 CURVE SMOOTH",
"1128 1592 LINE",
"848 1592 OFFCURVE",
"696 1380 OFFCURVE",
"696 1024 CURVE",
"696 648 OFFCURVE",
"854 456 OFFCURVE",
"1124 456 CURVE SMOOTH",
"2624 456 LINE",
"2830 457 OFFCURVE",
"2954 567 OFFCURVE",
"2980 740 CURVE",
"3544 736 LINE",
"3518 389 OFFCURVE",
"3214 -27 OFFCURVE",
"2612 -28 CURVE SMOOTH",
"2010 -29 OFFCURVE",
"1140 -24 OFFCURVE",
"1112 -28 CURVE"
);
}
);
width = 3664;
}
);
leftKerningGroup = C;
leftMetricsKey = O;
rightKerningGroup = C;
unicode = 0043;
userData = {
com.typemytype.robofont.guideline.magnetic.ju3ppiFr9V = 5;
"interface.width-adjustments" = (
-16
);
};
},
{
glyphname = Chook;
lastChange = "2019-07-05 21:12:23 +0000";
layers = (
{
components = (
{
name = C;
}
);
layerId = "C698F293-3EC0-4A5A-A3A0-0FDB1F5CF265";
paths = (
{
closed = 1;
nodes = (
"1896 1664 LINE SMOOTH",
"1896 1824 OFFCURVE",
"1992 1872 OFFCURVE",
"2120 1872 CURVE SMOOTH",
"2148 1872 OFFCURVE",
"2176 1868 OFFCURVE",
"2196 1864 CURVE",
"2196 2064 LINE",
"2160 2076 OFFCURVE",
"2108 2076 OFFCURVE",
"2060 2076 CURVE SMOOTH",
"1836 2076 OFFCURVE",
"1660 1928 OFFCURVE",
"1660 1664 CURVE SMOOTH",
"1660 1408 LINE",
"1896 1408 LINE"
);
}
);
width = 2172;
},
{
components = (
{
name = C;
}
);
guideLines = (
{
angle = 90;
position = "{-1572, 0}";
}
);
layerId = "5C20EF92-B63D-42A8-8878-93C2863E0093";
paths = (
{
closed = 1;
nodes = (
"2044 1396 LINE SMOOTH",
"2044 1612 OFFCURVE",
"2228 1684 OFFCURVE",
"2356 1684 CURVE",
"2392 1684 OFFCURVE",
"2468 1680 OFFCURVE",
"2508 1680 CURVE",
"2508 2120 LINE",
"2412 2132 OFFCURVE",
"2344 2132 OFFCURVE",
"2260 2132 CURVE SMOOTH",
"1864 2132 OFFCURVE",
"1508 1908 OFFCURVE",
"1508 1488 CURVE SMOOTH",
"1508 1280 LINE",
"2044 1280 LINE {name = hr00;}"
);
}
);
width = 2484;
},
{
components = (
{
alignment = -1;
name = C;
}
);
layerId = "B1F27B51-9973-4381-9301-4FE46FE1CA59";
paths = (
{
closed = 1;
nodes = (
"1808 1824 LINE SMOOTH",
"1807 1951 OFFCURVE",
"1850 1985 OFFCURVE",
"1980 1984 CURVE",
"2002 1985 OFFCURVE",
"2001 1981 OFFCURVE",
"2008 1976 CURVE",
"2008 2032 LINE",
"2009 2042 OFFCURVE",
"1966 2042 OFFCURVE",
"1940 2044 CURVE SMOOTH",
"1819 2042 OFFCURVE",
"1751 1940 OFFCURVE",
"1752 1772 CURVE SMOOTH",
"1752 1484 LINE",
"1808 1484 LINE {name = hr00;}"
);
}
);
width = 1985;
},
{
layerId = "DB1B210E-75C3-45F4-95FF-BB3F4FD26361";
width = 600;
},
{
layerId = "244DDCDD-91CB-4447-98B0-DDFA97A87342";
width = 600;
},
{
layerId = "5F6731B1-FB4A-4A0D-82A2-13F618D6D6C6";
width = 600;
}
);
leftKerningGroup = C;
leftMetricsKey = C;
rightKerningGroup = C;
unicode = 0187;
userData = {
interface.gridadjust.original = "{'width': 1998, 'leftMargin': 256, 'rightMargin': -44}";
};
},
{
glyphname = uni023B;
lastChange = "2019-07-05 21:12:23 +0000";
layers = (
{
components = (
{
name = C;
}
);
guideLines = (
{
angle = 90;
position = "{1016, 1756}";
}
);
layerId = "C698F293-3EC0-4A5A-A3A0-0FDB1F5CF265";
paths = (
{
closed = 1;
nodes = (
"692 -260 LINE",
"1604 2308 LINE",
"1376 2308 LINE",
"464 -260 LINE"
);
}
);
width = 2048;
},
{
components = (
{
name = C;
}
);
layerId = "5C20EF92-B63D-42A8-8878-93C2863E0093";
paths = (
{
closed = 1;
nodes = (
"840 -260 LINE",
"1616 2308 LINE",
"1332 2308 LINE",
"556 -260 LINE"
);
}
);
width = 2164;
},
{
components = (
{
name = C;
}
);
layerId = "B1F27B51-9973-4381-9301-4FE46FE1CA59";
paths = (
{
closed = 1;
nodes = (
"572 -260 LINE",
"1568 2308 LINE",
"1500 2308 LINE",
"504 -260 LINE"
);
}
);
width = 2036;
},
{
layerId = "DB1B210E-75C3-45F4-95FF-BB3F4FD26361";
width = 600;
},
{
layerId = "244DDCDD-91CB-4447-98B0-DDFA97A87342";
width = 600;
},
{
layerId = "5F6731B1-FB4A-4A0D-82A2-13F618D6D6C6";
width = 600;
}
);
leftKerningGroup = C;
leftMetricsKey = C;
rightKerningGroup = C;
rightMetricsKey = C;
unicode = 023B;
userData = {
com.typemytype.robofont.guideline.magnetic.7GS4PBDdqi = 5;
interface.gridadjust.original = "{'width': 1834, 'leftMargin': 256, 'rightMargin': 2}";
"interface.width-adjustments" = (
-16
);
};
},
{
glyphname = Oopen;
lastChange = "2019-07-05 21:12:23 +0000";
layers = (
{
layerId = "C698F293-3EC0-4A5A-A3A0-0FDB1F5CF265";
paths = (
{
closed = 1;
nodes = (
"1500 -28 OFFCURVE",
"1880 376 OFFCURVE",
"1880 1024 CURVE",
"1880 1672 OFFCURVE",
"1500 2076 OFFCURVE",
"976 2076 CURVE SMOOTH",
"564 2076 OFFCURVE",
"228 1828 OFFCURVE",
"152 1408 CURVE",
"400 1408 LINE",
"460 1692 OFFCURVE",
"704 1844 OFFCURVE",
"976 1844 CURVE SMOOTH",
"1348 1844 OFFCURVE",
"1640 1556 OFFCURVE",
"1640 1024 CURVE",
"1640 492 OFFCURVE",
"1348 204 OFFCURVE",
"976 204 CURVE SMOOTH",
"704 204 OFFCURVE",
"460 356 OFFCURVE",
"400 640 CURVE",
"152 640 LINE",
"228 220 OFFCURVE",
"564 -28 OFFCURVE",
"976 -28 CURVE SMOOTH"
);
}
);
width = 2048;
},
{
layerId = "5C20EF92-B63D-42A8-8878-93C2863E0093";
paths = (
{
closed = 1;
nodes = (
"1616 -28 OFFCURVE",
"2040 344 OFFCURVE",
"2040 1024 CURVE",
"2040 1708 OFFCURVE",
"1604 2076 OFFCURVE",
"1052 2076 CURVE SMOOTH",
"536 2076 OFFCURVE",
"164 1788 OFFCURVE",
"120 1280 CURVE",
"684 1280 LINE",
"700 1468 OFFCURVE",
"820 1592 OFFCURVE",
"1036 1592 CURVE SMOOTH",
"1316 1592 OFFCURVE",
"1468 1380 OFFCURVE",
"1468 1024 CURVE",
"1468 648 OFFCURVE",
"1312 456 OFFCURVE",
"1040 456 CURVE SMOOTH",
"836 456 OFFCURVE",
"712 564 OFFCURVE",
"684 740 CURVE",
"120 736 LINE",
"148 388 OFFCURVE",
"452 -28 OFFCURVE",
"1052 -28 CURVE SMOOTH"
);
}
);
width = 2164;
},
{
layerId = "B1F27B51-9973-4381-9301-4FE46FE1CA59";
paths = (
{
closed = 1;
nodes = (
"1430 -28 OFFCURVE",
"1784 395 OFFCURVE",
"1784 1024 CURVE",
"1784 1650 OFFCURVE",
"1438 2076 OFFCURVE",
"932 2076 CURVE SMOOTH",
"581 2076 OFFCURVE",
"266 1852 OFFCURVE",
"172 1484 CURVE",
"232 1484 LINE",
"316 1826 OFFCURVE",
"634 1995 OFFCURVE",
"940 1996 CURVE SMOOTH",
"1367 1995 OFFCURVE",
"1743 1662 OFFCURVE",
"1744 1024 CURVE",
"1743 398 OFFCURVE",
"1370 53 OFFCURVE",
"940 52 CURVE SMOOTH",
"625 53 OFFCURVE",
"309 231 OFFCURVE",
"232 580 CURVE",
"172 584 LINE",
"276 119 OFFCURVE",
"631 -28 OFFCURVE",
"932 -28 CURVE SMOOTH"
);
}
);
width = 1978;
},
{
layerId = "DB1B210E-75C3-45F4-95FF-BB3F4FD26361";
width = 600;
},
{
layerId = "244DDCDD-91CB-4447-98B0-DDFA97A87342";
width = 600;
},
{
layerId = "5F6731B1-FB4A-4A0D-82A2-13F618D6D6C6";
width = 600;
}
);
leftKerningGroup = C;
rightKerningGroup = C;
rightMetricsKey = O;
unicode = 0186;
userData = {
interface.gridadjust.original = "{'width': 1834, 'leftMargin': 121, 'rightMargin': 161}";
"interface.width-adjustments" = (
-16
);
};
},
{
color = (219,235,247,1);
glyphname = D;
lastChange = "2019-07-05 21:32:14 +0000";
layers = (
{
anchors = (
{
name = bottom;
position = "{856, 0}";
},
{
name = cross;
position = "{372, 1056}";
},
{
name = top;
position = "{848, 2304}";
}
);
layerId = "C698F293-3EC0-4A5A-A3A0-0FDB1F5CF265";
paths = (
{
closed = 1;
nodes = (
"1504 0 OFFCURVE",
"1856 388 OFFCURVE",
"1856 1028 CURVE SMOOTH",
"1856 1664 OFFCURVE",
"1504 2048 OFFCURVE",
"908 2048 CURVE SMOOTH",
"376 2048 LINE",
"376 1828 LINE",
"892 1828 LINE SMOOTH",
"1372 1828 OFFCURVE",
"1616 1524 OFFCURVE",
"1616 1028 CURVE SMOOTH",
"1616 528 OFFCURVE",
"1372 220 OFFCURVE",
"864 220 CURVE SMOOTH",
"388 220 LINE",
"388 0 LINE",
"880 0 LINE SMOOTH"
);
},
{
closed = 1;
nodes = (
"248 2048 LINE",
"248 0 LINE",
"496 0 LINE",
"496 2048 LINE"
);
}
);
width = 2024;
},
{
anchors = (
{
name = bottom;
position = "{928, 0}";
},
{
name = cross;
position = "{408, 1084}";
},
{
name = top;
position = "{816, 2304}";
}
);
guideLines = (
{
position = "{1920, 1024}";
},
{
position = "{12, 764}";
},
{
position = "{12, 1548}";
},
{
position = "{1884, 1696}";
},
{
position = "{1884, 348}";
},
{
position = "{1420, 1480}";
},
{
position = "{1484, 560}";
}
);
layerId = "5C20EF92-B63D-42A8-8878-93C2863E0093";
paths = (
{
closed = 1;
nodes = (
"1544 0 OFFCURVE",
"1940 384 OFFCURVE",
"1940 1024 CURVE",
"1940 1664 OFFCURVE",
"1544 2048 OFFCURVE",
"912 2048 CURVE",
"352 2048 LINE",
"352 1576 LINE",
"884 1576 LINE",
"1204 1576 OFFCURVE",
"1380 1452 OFFCURVE",
"1380 1024 CURVE",
"1380 596 OFFCURVE",
"1204 472 OFFCURVE",
"900 472 CURVE",
"360 472 LINE",
"360 0 LINE",
"920 0 LINE"
);
},
{
closed = 1;
nodes = (
"132 2048 LINE",
"132 0 LINE",
"688 0 LINE",
"688 2048 LINE"
);
}
);
width = 2064;
},
{
anchors = (
{
name = bottom;
position = "{812, 0}";
},
{
name = cross;
position = "{352, 1040}";
},
{
name = top;
position = "{868, 2304}";
}
);
layerId = "B1F27B51-9973-4381-9301-4FE46FE1CA59";
paths = (
{
closed = 1;
nodes = (
"1457 0 OFFCURVE",
"1806 378 OFFCURVE",
"1808 1032 CURVE SMOOTH",
"1809 1669 OFFCURVE",
"1473 2048 OFFCURVE",
"908 2048 CURVE SMOOTH",
"352 2048 LINE",
"352 1984 LINE",
"908 1984 LINE SMOOTH",
"1439 1984 OFFCURVE",
"1742 1629 OFFCURVE",
"1744 1032 CURVE SMOOTH",
"1746 425 OFFCURVE",
"1424 64 OFFCURVE",
"856 64 CURVE SMOOTH",
"352 64 LINE",
"352 0 LINE",
"856 0 LINE SMOOTH"
);
},
{
closed = 1;
nodes = (
"320 2048 LINE",
"320 0 LINE",
"384 0 LINE",
"384 2048 LINE"
);
}
);
width = 2012;
},
{
layerId = "DB1B210E-75C3-45F4-95FF-BB3F4FD26361";
paths = (
{
closed = 1;
nodes = (
"2460 0 OFFCURVE",
"2809 378 OFFCURVE",
"2810 1032 CURVE SMOOTH",
"2811 1669 OFFCURVE",
"2476 2048 OFFCURVE",
"1910 2048 CURVE SMOOTH",
"352 2048 LINE",
"352 1984 LINE",
"1910 1984 LINE SMOOTH",
"2442 1984 OFFCURVE",
"2745 1629 OFFCURVE",
"2746 1032 CURVE SMOOTH",
"2747 425 OFFCURVE",
"2427 64 OFFCURVE",
"1858 64 CURVE SMOOTH",
"352 64 LINE",
"352 0 LINE",
"1858 0 LINE SMOOTH"
);
},
{
closed = 1;
nodes = (
"320 2048 LINE",
"320 0 LINE",
"384 0 LINE",
"384 2048 LINE"
);
}
);
width = 3012;
},
{
layerId = "244DDCDD-91CB-4447-98B0-DDFA97A87342";
paths = (
{
closed = 1;
nodes = (
"3043 1 OFFCURVE",
"3439 385 OFFCURVE",
"3440 1024 CURVE",
"3439 1665 OFFCURVE",
"3043 2049 OFFCURVE",
"2412 2048 CURVE",
"352 2048 LINE",
"352 1576 LINE",
"2384 1576 LINE",
"2703 1577 OFFCURVE",
"2879 1453 OFFCURVE",
"2880 1024 CURVE",
"2879 597 OFFCURVE",
"2703 473 OFFCURVE",
"2400 472 CURVE",
"360 472 LINE",
"360 0 LINE",
"2420 0 LINE"
);
},
{
closed = 1;
nodes = (
"132 2048 LINE",
"132 0 LINE",
"688 0 LINE",
"688 2048 LINE"
);
}
);
width = 3564;
},
{
layerId = "5F6731B1-FB4A-4A0D-82A2-13F618D6D6C6";
paths = (
{
closed = 1;
nodes = (
"2505 0 OFFCURVE",
"2857 389 OFFCURVE",
"2856 1028 CURVE SMOOTH",
"2855 1665 OFFCURVE",
"2505 2048 OFFCURVE",
"1908 2048 CURVE SMOOTH",
"376 2048 LINE",
"376 1828 LINE",
"1892 1828 LINE SMOOTH",
"2373 1828 OFFCURVE",
"2617 1525 OFFCURVE",
"2616 1028 CURVE SMOOTH",
"2615 529 OFFCURVE",
"2373 220 OFFCURVE",
"1864 220 CURVE SMOOTH",
"388 220 LINE",
"388 0 LINE",
"1880 0 LINE SMOOTH"
);
},
{
closed = 1;
nodes = (
"248 2048 LINE",
"248 0 LINE",
"496 0 LINE",
"496 2048 LINE"
);
}
);
width = 3024;
}
);
leftKerningGroup = B;
leftMetricsKey = H;
note = "!post:RemoveOverlap";
rightKerningGroup = D;
rightMetricsKey = O;
unicode = 0044;
userData = {
"interface.width-adjustments" = (
-16
);
};
},
{
glyphname = Dhook;
lastChange = "2019-07-05 21:12:23 +0000";
layers = (
{
components = (
{
name = D;
transform = "{1, 0, 0, 1, 444, 0}";
}
);
layerId = "C698F293-3EC0-4A5A-A3A0-0FDB1F5CF265";
paths = (
{
closed = 1;
nodes = (
"368 1504 LINE",
"368 1580 LINE SMOOTH",
"368 1708 OFFCURVE",
"388 1828 OFFCURVE",
"548 1828 CURVE SMOOTH",
"744 1828 LINE",
"744 2048 LINE",
"544 2048 LINE SMOOTH",
"280 2048 OFFCURVE",
"136 1864 OFFCURVE",
"136 1640 CURVE SMOOTH",
"136 1504 LINE"
);
}
);
width = 2468;
},
{
components = (
{
name = D;
transform = "{1, 0, 0, 1, 684, 0}";
}
);
layerId = "5C20EF92-B63D-42A8-8878-93C2863E0093";
paths = (
{
closed = 1;
nodes = (
"564 1196 LINE",
"564 1344 LINE SMOOTH",
"562 1464 OFFCURVE",
"610 1576 OFFCURVE",
"780 1576 CURVE SMOOTH",
"1144 1576 LINE {name = hr00;}",
"1144 2048 LINE",
"780 2048 LINE SMOOTH",
"350 2048 OFFCURVE",
"74 1828 OFFCURVE",
"76 1440 CURVE SMOOTH",
"76 1196 LINE"
);
}
);
width = 2748;
},
{
components = (
{
alignment = -1;
name = D;
transform = "{1, 0, 0, 1, 300, 0}";
}
);
layerId = "B1F27B51-9973-4381-9301-4FE46FE1CA59";
paths = (
{
closed = 1;
nodes = (
"252 1688 LINE",
"252 1724 LINE SMOOTH",
"252 1854 OFFCURVE",
"255 1979 OFFCURVE",
"408 1980 CURVE SMOOTH",
"504 1980 LINE {name = hr00;}",
"504 2048 LINE",
"404 2048 LINE SMOOTH",
"238 2048 OFFCURVE",
"173 1886 OFFCURVE",
"172 1760 CURVE SMOOTH",
"172 1688 LINE"
);
}
);
width = 2300;
},
{
layerId = "DB1B210E-75C3-45F4-95FF-BB3F4FD26361";
width = 600;
},
{
layerId = "244DDCDD-91CB-4447-98B0-DDFA97A87342";
width = 600;
},
{
layerId = "5F6731B1-FB4A-4A0D-82A2-13F618D6D6C6";
width = 600;
}
);
leftKerningGroup = B;
leftMetricsKey = T;
rightKerningGroup = D;
rightMetricsKey = D;
unicode = 018A;
userData = {
interface.gridadjust.original = "{'width': 2134.0, 'leftMargin': 41, 'rightMargin': 184.0}";
};
},
{
color = (219,235,247,1);
glyphname = E;
lastChange = "2019-07-05 21:33:43 +0000";
layers = (
{
anchors = (
{
name = bottom;
position = "{844, 0}";
},
{
name = cedilla;
position = "{848, 0}";
},
{
name = ogonek;
position = "{1500, 0}";
},
{
name = tonos;
position = "{184, 2048}";
},
{
name = top;
position = "{864, 2304}";
}
);
guideLines = (
{
alignment = center;
angle = 90;
position = "{1044, 516}";
}
);
layerId = "C698F293-3EC0-4A5A-A3A0-0FDB1F5CF265";
paths = (
{
closed = 1;
nodes = (
"1500 0 LINE",
"1500 220 LINE",
"496 220 LINE",
"496 916 LINE",
"1420 916 LINE",
"1420 1136 LINE",
"496 1136 LINE",
"496 1828 LINE",
"1484 1828 LINE",
"1484 2048 LINE",
"248 2048 LINE",
"248 0 LINE"
);
}
);
width = 1684;
},
{
anchors = (
{
name = bottom;
position = "{876, 0}";
},
{
name = cedilla;
position = "{880, 0}";
},
{
name = ogonek;
position = "{1604, 0}";
},
{
name = tonos;
position = "{76, 2048}";
},
{
name = top;
position = "{876, 2304}";
}
);
guideLines = (
{
position = "{12, 1360}";
},
{
alignment = center;
angle = 90;
position = "{936, 620}";
}
);
layerId = "5C20EF92-B63D-42A8-8878-93C2863E0093";
paths = (
{
closed = 1;
nodes = (
"1604 0 LINE",
"1604 448 LINE",
"688 448 LINE",
"688 800 LINE",
"1532 800 LINE",
"1532 1248 LINE",
"688 1248 LINE",
"688 1600 LINE",
"1608 1600 LINE",
"1608 2048 LINE",
"132 2048 LINE",
"132 0 LINE"
);
}
);
width = 1752;
},
{
anchors = (
{
name = bottom;
position = "{824, 0}";
},
{
name = cedilla;
position = "{828, 0}";
},
{
name = ogonek;
position = "{1440, 0}";
},
{
name = tonos;
position = "{248, 2048}";
},
{
name = top;
position = "{872, 2304}";
}
);
layerId = "B1F27B51-9973-4381-9301-4FE46FE1CA59";
paths = (
{
closed = 1;
nodes = (
"1440 0 LINE",
"1440 64 LINE",
"384 64 LINE",
"384 992 LINE",
"1352 992 LINE",
"1352 1056 LINE",
"384 1056 LINE",
"384 1984 LINE",
"1412 1984 LINE",
"1412 2048 LINE",
"320 2048 LINE",
"320 0 LINE"
);
}
);
width = 1644;
},
{
layerId = "DB1B210E-75C3-45F4-95FF-BB3F4FD26361";
paths = (
{
closed = 1;
nodes = (
"2440 0 LINE",
"2440 64 LINE",
"384 64 LINE",
"384 992 LINE",
"2352 992 LINE",
"2352 1056 LINE",
"384 1056 LINE",
"384 1984 LINE",
"2412 1984 LINE",
"2412 2048 LINE",
"320 2048 LINE",
"320 0 LINE"
);
}
);
width = 2644;
},
{
layerId = "244DDCDD-91CB-4447-98B0-DDFA97A87342";
paths = (
{
closed = 1;
nodes = (
"3104 0 LINE",
"3104 448 LINE",
"688 448 LINE",
"688 800 LINE",
"3032 800 LINE",
"3032 1248 LINE",
"688 1248 LINE",
"688 1600 LINE",
"3108 1600 LINE",
"3108 2048 LINE",
"132 2048 LINE",
"132 0 LINE"
);
}
);
width = 3252;
},
{
layerId = "5F6731B1-FB4A-4A0D-82A2-13F618D6D6C6";
paths = (
{
closed = 1;
nodes = (
"2500 0 LINE",
"2500 220 LINE",
"496 220 LINE",
"496 916 LINE",
"2420 916 LINE",
"2420 1136 LINE",
"496 1136 LINE",
"496 1828 LINE",
"2484 1828 LINE",
"2484 2048 LINE",
"248 2048 LINE",
"248 0 LINE"
);
}
);
width = 2684;
}
);
leftKerningGroup = B;
leftMetricsKey = H;
rightKerningGroup = E;
unicode = 0045;
userData = {
"interface.width-adjustments" = (
-16
);
};
},
{
glyphname = uni0246;
lastChange = "2019-07-05 21:12:23 +0000";
layers = (
{
components = (
{
name = E;
}
);
layerId = "C698F293-3EC0-4A5A-A3A0-0FDB1F5CF265";
paths = (
{
closed = 1;
nodes = (
"1184 2308 LINE",
"444 -260 LINE",
"672 -260 LINE",
"1412 2308 LINE"
);
}
);
width = 1684;
},
{
components = (
{
name = E;
}
);
layerId = "5C20EF92-B63D-42A8-8878-93C2863E0093";
paths = (
{
closed = 1;
nodes = (
"1184 2308 LINE",
"444 -260 LINE",
"672 -260 LINE",
"1412 2308 LINE"
);
}
);
width = 1752;
},
{
components = (
{
alignment = -1;
name = E;
}
);
layerId = "B1F27B51-9973-4381-9301-4FE46FE1CA59";
paths = (
{
closed = 1;
nodes = (
"1184 2308 LINE",
"444 -260 LINE",
"672 -260 LINE",
"1412 2308 LINE"
);
}
);
width = 1643;
},
{
layerId = "DB1B210E-75C3-45F4-95FF-BB3F4FD26361";
width = 600;
},
{
layerId = "244DDCDD-91CB-4447-98B0-DDFA97A87342";
width = 600;
},
{
layerId = "5F6731B1-FB4A-4A0D-82A2-13F618D6D6C6";
width = 600;
}
);
leftKerningGroup = B;
leftMetricsKey = E;
rightKerningGroup = E;
rightMetricsKey = E;
unicode = 0246;
userData = {
interface.gridadjust.original = "{'width': 1601, 'leftMargin': 256, 'rightMargin': 65}";
"interface.width-adjustments" = (
-16
);
};
},
{
color = (219,235,247,1);
glyphname = F;
lastChange = "2019-07-05 21:12:23 +0000";
layers = (
{
anchors = (
{
name = bottom;
position = "{768, 16}";
},
{
name = cross;
position = "{372, 480}";
},
{
name = top;
position = "{888, 2304}";
}
);
background = {
components = (
{
name = E;
}
);
};
layerId = "C698F293-3EC0-4A5A-A3A0-0FDB1F5CF265";
paths = (
{
closed = 1;
nodes = (
"496 0 LINE",
"496 916 LINE",
"1384 916 LINE",
"1384 1136 LINE",
"496 1136 LINE",
"496 1828 LINE",
"1476 1828 LINE",
"1476 2048 LINE",
"248 2048 LINE",
"248 0 LINE"
);
}
);
width = 1652;
},
{
anchors = (
{
name = bottom;
position = "{884, 16}";
},
{
name = cross;
position = "{408, 344}";
},
{
name = top;
position = "{856, 2304}";
}
);
background = {
components = (
{
name = E;
}
);
};
guideLines = (
{
position = "{12, 1320}";
}
);
layerId = "5C20EF92-B63D-42A8-8878-93C2863E0093";
paths = (
{
closed = 1;
nodes = (
"688 0 LINE",
"688 800 LINE",
"1484 800 LINE",
"1484 1248 LINE",
"688 1248 LINE",
"688 1600 LINE",
"1572 1600 LINE",
"1572 2048 LINE",
"132 2048 LINE",
"132 0 LINE"
);
}
);
width = 1644;
},
{
anchors = (
{
name = bottom;
position = "{700, 16}";
},
{
name = cross;
position = "{352, 564}";
},
{
name = top;
position = "{872, 2304}";
}
);
guideLines = (
{
angle = 90;
position = "{872, 2220}";
}
);
layerId = "B1F27B51-9973-4381-9301-4FE46FE1CA59";
paths = (
{
closed = 1;
nodes = (
"384 0 LINE",
"384 992 LINE",
"1324 992 LINE",
"1324 1056 LINE",
"384 1056 LINE",
"384 1984 LINE",
"1420 1984 LINE",
"1420 2048 LINE",
"320 2048 LINE",
"320 0 LINE"
);
}
);
width = 1648;
},
{
layerId = "DB1B210E-75C3-45F4-95FF-BB3F4FD26361";
width = 600;
},
{
layerId = "244DDCDD-91CB-4447-98B0-DDFA97A87342";
width = 600;
},
{
layerId = "5F6731B1-FB4A-4A0D-82A2-13F618D6D6C6";
width = 600;
}
);
leftKerningGroup = B;
leftMetricsKey = H;
rightKerningGroup = F;
unicode = 0046;
userData = {
"interface.width-adjustments" = (
-16
);
};
},
{
glyphname = Fhook;
lastChange = "2019-07-05 21:12:23 +0000";
layers = (
{
components = (
{
name = F;
}
);
layerId = "C698F293-3EC0-4A5A-A3A0-0FDB1F5CF265";
paths = (
{
closed = 1;
nodes = (
"248 -160 LINE SMOOTH",
"248 -320 OFFCURVE",
"156 -368 OFFCURVE",
"28 -368 CURVE SMOOTH",
"0 -368 OFFCURVE",
"-28 -364 OFFCURVE",
"-48 -360 CURVE",
"-48 -564 LINE",
"12 -576 OFFCURVE",
"12 -576 OFFCURVE",
"28 -576 CURVE SMOOTH",
"336 -576 OFFCURVE",
"496 -428 OFFCURVE",
"496 -164 CURVE SMOOTH",
"496 0 LINE",
"248 0 LINE"
);
}
);
width = 1652;
},
{
components = (
{
name = F;
transform = "{1, 0, 0, 1, 104, 0}";
}
);
layerId = "5C20EF92-B63D-42A8-8878-93C2863E0093";
paths = (
{
closed = 1;
nodes = (
"236 -48 LINE SMOOTH",
"236 -140 OFFCURVE",
"130 -160 OFFCURVE",
"28 -160 CURVE",
"6 -160 OFFCURVE",
"-34 -164 OFFCURVE",
"-64 -160 CURVE",
"-64 -568 LINE",
"-6 -576 OFFCURVE",
"122 -576 OFFCURVE",
"176 -576 CURVE",
"466 -576 OFFCURVE",
"792 -532 OFFCURVE",
"792 -48 CURVE SMOOTH",
"792 0 LINE",
"236 0 LINE"
);
}
);
width = 1748;
},
{
components = (
{
alignment = -1;
name = F;
transform = "{1, 0, 0, 1, -64, 0}";
}
);
layerId = "B1F27B51-9973-4381-9301-4FE46FE1CA59";
paths = (
{
closed = 1;
nodes = (
"256 -232 LINE SMOOTH",
"256 -420 OFFCURVE",
"184 -508 OFFCURVE",
"32 -508 CURVE SMOOTH",
"4 -508 OFFCURVE",
"-3 -506 OFFCURVE",
"-20 -497 CURVE",
"-52 -551 LINE",
"-27 -567 OFFCURVE",
"-5 -572 OFFCURVE",
"32 -572 CURVE SMOOTH",
"222 -572 OFFCURVE",
"320 -454 OFFCURVE",
"320 -232 CURVE SMOOTH",
"320 0 LINE",
"256 0 LINE"
);
}
);
width = 1584;
},
{
associatedMasterId = "B1F27B51-9973-4381-9301-4FE46FE1CA59";
components = (
{
alignment = -1;
name = F;
transform = "{1, 0, 0, 1, -64, 0}";
}
);
layerId = "B08EE6A4-275D-4A05-9DD6-ADCA275F0D13";
name = "Dec 29 18, 23:39";
paths = (
{
closed = 0;
nodes = (
"-36 -524 LINE",
"-16 -536 OFFCURVE",
"-2 -540 OFFCURVE",
"32 -540 CURVE SMOOTH",
"204 -540 OFFCURVE",
"288 -436 OFFCURVE",
"288 -232 CURVE SMOOTH",
"288 0 LINE"
);
}
);
width = 1594;
},
{
layerId = "DB1B210E-75C3-45F4-95FF-BB3F4FD26361";
width = 600;
},
{
layerId = "244DDCDD-91CB-4447-98B0-DDFA97A87342";
width = 600;
},
{
layerId = "5F6731B1-FB4A-4A0D-82A2-13F618D6D6C6";
width = 600;
}
);
leftKerningGroup = jdotless;
rightKerningGroup = F;
rightMetricsKey = F;
unicode = 0191;
userData = {
interface.gridadjust.original = "{'width': 1645, 'leftMargin': 0, 'rightMargin': 31}";
"interface.width-adjustments" = (
-16
);
};
},
{
color = (219,235,247,1);
glyphname = G;
lastChange = "2019-07-05 21:12:23 +0000";
layers = (
{
anchors = (
{
name = bottom;
position = "{1060, 0}";
},
{
name = top;
position = "{1064, 2304}";
}
);
background = {
components = (
{
name = C;
}
);
};
guideLines = (
{
position = "{1880, 1408}";
},
{
angle = 90;
position = "{1892, 1304}";
},
{
angle = 90;
position = "{1056, 1644}";
}
);
layerId = "C698F293-3EC0-4A5A-A3A0-0FDB1F5CF265";
paths = (
{
closed = 1;
nodes = (
"1904 1408 LINE",
"1828 1804 OFFCURVE",
"1496 2076 OFFCURVE",
"1064 2076 CURVE SMOOTH",
"539 2076 OFFCURVE",
"168 1672 OFFCURVE",
"168 1024 CURVE SMOOTH",
"168 376 OFFCURVE",
"536 -28 OFFCURVE",
"1080 -28 CURVE SMOOTH",
"1568 -28 OFFCURVE",
"1916 297 OFFCURVE",
"1916 804 CURVE SMOOTH",
"1916 1024 LINE",
"1136 1024 LINE",
"1136 804 LINE",
"1752 804 LINE",
"1676 820 LINE",
"1676 443 OFFCURVE",
"1432 204 OFFCURVE",
"1080 204 CURVE SMOOTH",
"700 204 OFFCURVE",
"408 492 OFFCURVE",
"408 1024 CURVE SMOOTH",
"408 1556 OFFCURVE",
"700 1844 OFFCURVE",
"1064 1844 CURVE SMOOTH",
"1360 1844 OFFCURVE",
"1561 1677 OFFCURVE",
"1648 1408 CURVE"
);
}
);
width = 2092;
},
{
anchors = (
{
name = bottom;
position = "{1104, 8}";
},
{
name = top;
position = "{1108, 2304}";
}
);
background = {
components = (
{
name = C;
}
);
};
guideLines = (
{
angle = 7.9575;
position = "{1036, 1320}";
},
{
alignment = center;
angle = 90;
position = "{1036, 528}";
},
{
position = "{1372, 756}";
}
);
layerId = "5C20EF92-B63D-42A8-8878-93C2863E0093";
paths = (
{
closed = 1;
nodes = (
"2024 1372 LINE",
"1981 1783 OFFCURVE",
"1608 2076 OFFCURVE",
"1124 2076 CURVE SMOOTH",
"572 2076 OFFCURVE",
"124 1696 OFFCURVE",
"124 1020 CURVE SMOOTH",
"124 372 OFFCURVE",
"530 -28 OFFCURVE",
"1128 -28 CURVE SMOOTH",
"1664 -28 OFFCURVE",
"2048 300 OFFCURVE",
"2048 860 CURVE SMOOTH",
"2048 1144 LINE",
"1140 1144 LINE",
"1140 748 LINE",
"1608 748 LINE",
"1512 758 LINE",
"1512 574 OFFCURVE",
"1386 456 OFFCURVE",
"1132 456 CURVE SMOOTH",
"844 456 OFFCURVE",
"696 668 OFFCURVE",
"696 1028 CURVE SMOOTH",
"696 1383 OFFCURVE",
"856 1592 OFFCURVE",
"1136 1592 CURVE SMOOTH",
"1310 1592 OFFCURVE",
"1428 1512 OFFCURVE",
"1462 1372 CURVE"
);
}
);
width = 2176;
},
{
anchors = (
{
name = bottom;
position = "{1040, 0}";
},
{
name = top;
position = "{1040, 2304}";
}
);
background = {
components = (
{
name = C;
transform = "{1, 0, 0, 1, 8, 0}";
}
);
};
guideLines = (
{
position = "{1872, 1408}";
}
);
layerId = "B1F27B51-9973-4381-9301-4FE46FE1CA59";
paths = (
{
closed = 1;
nodes = (
"1836 1408 LINE",
"1788 1700 OFFCURVE",
"1531 2076 OFFCURVE",
"1052 2076 CURVE SMOOTH",
"544 2076 OFFCURVE",
"204 1654 OFFCURVE",
"204 1024 CURVE SMOOTH",
"204 397 OFFCURVE",
"540 -28 OFFCURVE",
"1060 -28 CURVE SMOOTH",
"1520 -28 OFFCURVE",
"1852 304 OFFCURVE",
"1852 864 CURVE SMOOTH",
"1852 928 LINE",
"1080 928 LINE",
"1080 864 LINE",
"1816 864 LINE",
"1788 888 LINE",
"1796 352 OFFCURVE",
"1488 36 OFFCURVE",
"1060 36 CURVE SMOOTH",
"576 36 OFFCURVE",
"268 439 OFFCURVE",
"268 1024 CURVE SMOOTH",
"268 1616 OFFCURVE",
"582 2012 OFFCURVE",
"1052 2012 CURVE SMOOTH",
"1473 2012 OFFCURVE",
"1723 1687 OFFCURVE",
"1772 1408 CURVE"
);
}
);
width = 2080;
},
{
layerId = "DB1B210E-75C3-45F4-95FF-BB3F4FD26361";
width = 600;
},
{
layerId = "244DDCDD-91CB-4447-98B0-DDFA97A87342";
width = 600;
},
{
layerId = "5F6731B1-FB4A-4A0D-82A2-13F618D6D6C6";
width = 600;
}
);
leftKerningGroup = C;
leftMetricsKey = O;
rightKerningGroup = G;
unicode = 0047;
userData = {
com.typemytype.robofont.guideline.magnetic.DBpTQJmUAf = 5;
com.typemytype.robofont.guideline.magnetic.Mdeh49HlEG = 5;
com.typemytype.robofont.guideline.magnetic.iFgX6ho5qJ = 5;
"interface.width-adjustments" = (
-16
);
};
},
{
glyphname = Gbar;
lastChange = "2019-07-05 21:12:23 +0000";
layers = (
{
components = (
{
name = G;
}
);
guideLines = (
{
angle = 90;
position = "{1168, 744}";
},
{
angle = 90;
position = "{1072, 148}";
}
);
layerId = "C698F293-3EC0-4A5A-A3A0-0FDB1F5CF265";
paths = (
{
closed = 1;
nodes = (
"1136 624 LINE",
"1136 424 LINE",
"2056 424 LINE",
"2056 624 LINE"
);
}
);
width = 2092;
},
{
components = (
{
name = G;
}
);
layerId = "5C20EF92-B63D-42A8-8878-93C2863E0093";
paths = (
{
closed = 1;
nodes = (
"1140 688 LINE",
"1140 564 LINE",
"2112 564 LINE",
"2112 688 LINE"
);
}
);
width = 2176;
},
{
components = (
{
name = G;
}
);
layerId = "B1F27B51-9973-4381-9301-4FE46FE1CA59";
paths = (
{
closed = 1;
nodes = (
"1080 560 LINE",
"1080 496 LINE",
"2000 496 LINE",
"2000 560 LINE"
);
}
);
width = 2080;
},
{
layerId = "DB1B210E-75C3-45F4-95FF-BB3F4FD26361";
width = 600;
},
{
layerId = "244DDCDD-91CB-4447-98B0-DDFA97A87342";
width = 600;
},
{
layerId = "5F6731B1-FB4A-4A0D-82A2-13F618D6D6C6";
width = 600;
}
);
leftKerningGroup = C;
leftMetricsKey = G;
rightKerningGroup = G;
unicode = 01E4;
userData = {
com.typemytype.robofont.guideline.magnetic.L529Uh5F2Z = 5;
com.typemytype.robofont.guideline.magnetic.aP8dy3XBkq = 5;
interface.gridadjust.original = "{'width': 1917, 'leftMargin': 256, 'rightMargin': 7}";
"interface.width-adjustments" = (
-16
);
};
},
{
glyphname = Ghook;
lastChange = "2019-07-05 21:12:23 +0000";
layers = (
{
components = (
{
name = G;
}
);
layerId = "C698F293-3EC0-4A5A-A3A0-0FDB1F5CF265";
paths = (
{
closed = 1;
nodes = (
"1900 1624 LINE SMOOTH",
"1900 1784 OFFCURVE",
"1996 1832 OFFCURVE",
"2124 1832 CURVE SMOOTH",
"2152 1832 OFFCURVE",
"2180 1828 OFFCURVE",
"2200 1824 CURVE",
"2200 2024 LINE",
"2164 2036 OFFCURVE",
"2112 2036 OFFCURVE",
"2064 2036 CURVE SMOOTH",
"1808 2036 OFFCURVE",
"1676 1888 OFFCURVE",
"1660 1624 CURVE SMOOTH",
"1648 1408 LINE",
"1900 1408 LINE"
);
}
);
width = 2176;
},
{
components = (
{
name = G;
}
);
guideLines = (
{
angle = 90;
position = "{1872, 996}";
}
);
layerId = "5C20EF92-B63D-42A8-8878-93C2863E0093";
paths = (
{
closed = 1;
nodes = (
"2024 1748 LINE SMOOTH",
"2024 1920 OFFCURVE",
"2168 1944 OFFCURVE",
"2316 1944 CURVE SMOOTH",
"2364 1944 OFFCURVE",
"2412 1936 OFFCURVE",
"2464 1932 CURVE",
"2464 2364 LINE",
"2372 2384 OFFCURVE",
"2300 2396 OFFCURVE",
"2220 2396 CURVE SMOOTH",
"1832 2396 OFFCURVE",
"1448 2168 OFFCURVE",
"1452 1748 CURVE SMOOTH",
"1456 1372 LINE",
"2024 1372 LINE"
);
}
);
width = 2464;
},
{
components = (
{
alignment = -1;
name = G;
}
);
layerId = "B1F27B51-9973-4381-9301-4FE46FE1CA59";
paths = (
{
closed = 1;
nodes = (
"1828 1552 LINE SMOOTH",
"1826 1702 OFFCURVE",
"1893 1765 OFFCURVE",
"2008 1764 CURVE SMOOTH",
"2025 1765 OFFCURVE",
"2041 1763 OFFCURVE",
"2044 1760 CURVE",
"2044 1820 LINE",
"2039 1827 OFFCURVE",
"1999 1820 OFFCURVE",
"1972 1820 CURVE SMOOTH",
"1794 1820 OFFCURVE",
"1813 1720 OFFCURVE",
"1784 1552 CURVE SMOOTH",
"1764 1432 LINE",
"1828 1432 LINE"
);
}
);
width = 2003;
},
{
layerId = "DB1B210E-75C3-45F4-95FF-BB3F4FD26361";
width = 600;
},
{
layerId = "244DDCDD-91CB-4447-98B0-DDFA97A87342";
width = 600;
},
{
layerId = "5F6731B1-FB4A-4A0D-82A2-13F618D6D6C6";
width = 600;
}
);
leftKerningGroup = C;
leftMetricsKey = G;
rightKerningGroup = G;
unicode = 0193;
userData = {
interface.gridadjust.original = "{'width': 1998, 'leftMargin': 256, 'rightMargin': -45}";
};
},
{
color = 9;
glyphname = G.1;
lastChange = "2019-07-05 21:12:23 +0000";
layers = (
{
anchors = (
{
name = bottom;
position = "{1040, 0}";
},
{
name = top;
position = "{1040, 2304}";
}
);
background = {
components = (
{
name = G;
}
);
};
layerId = "B1F27B51-9973-4381-9301-4FE46FE1CA59";
paths = (
{
closed = 1;
nodes = (
"1393 -28 OFFCURVE",
"1659 146 OFFCURVE",
"1780 474 CURVE",
"1788 474 LINE",
"1788 0 LINE",
"1852 0 LINE",
"1852 928 LINE",
"1080 928 LINE",
"1080 864 LINE",
"1816 864 LINE",
"1788 888 LINE",
"1796 352 OFFCURVE",
"1488 36 OFFCURVE",
"1060 36 CURVE SMOOTH",
"576 36 OFFCURVE",
"268 440 OFFCURVE",
"268 1024 CURVE SMOOTH",
"268 1616 OFFCURVE",
"582 2012 OFFCURVE",
"1052 2012 CURVE SMOOTH",
"1474 2012 OFFCURVE",
"1724 1688 OFFCURVE",
"1772 1408 CURVE",
"1836 1408 LINE",
"1788 1700 OFFCURVE",
"1532 2076 OFFCURVE",
"1052 2076 CURVE SMOOTH",
"544 2076 OFFCURVE",
"204 1654 OFFCURVE",
"204 1024 CURVE SMOOTH",
"204 398 OFFCURVE",
"540 -28 OFFCURVE",
"1060 -28 CURVE SMOOTH"
);
}
);
width = 2080;
},
{
anchors = (
{
name = bottom;
position = "{1060, 0}";
},
{
name = top;
position = "{1064, 2304}";
}
);
background = {
components = (
{
name = G;
}
);
};
layerId = "C698F293-3EC0-4A5A-A3A0-0FDB1F5CF265";
paths = (
{
closed = 1;
nodes = (
"1351 -28 OFFCURVE",
"1532 71 OFFCURVE",
"1688 250 CURVE",
"1698 250 LINE",
"1728 0 LINE",
"1936 0 LINE",
"1936 1024 LINE",
"1136 1024 LINE",
"1136 804 LINE",
"1728 804 LINE",
"1696 830 LINE",
"1696 465 OFFCURVE",
"1445 204 OFFCURVE",
"1080 204 CURVE SMOOTH",
"700 204 OFFCURVE",
"408 492 OFFCURVE",
"408 1024 CURVE SMOOTH",
"408 1556 OFFCURVE",
"708 1844 OFFCURVE",
"1072 1844 CURVE SMOOTH",
"1367 1844 OFFCURVE",
"1586 1678 OFFCURVE",
"1668 1408 CURVE",
"1924 1408 LINE",
"1848 1804 OFFCURVE",
"1504 2076 OFFCURVE",
"1072 2076 CURVE SMOOTH",
"548 2076 OFFCURVE",
"168 1672 OFFCURVE",
"168 1024 CURVE SMOOTH",
"168 376 OFFCURVE",
"536 -28 OFFCURVE",
"1080 -28 CURVE SMOOTH"
);
}
);
width = 2112;
},
{
anchors = (
{
name = bottom;
position = "{1104, 8}";
},
{
name = top;
position = "{1108, 2304}";
}
);
background = {
components = (
{
name = G;
}
);
};
layerId = "5C20EF92-B63D-42A8-8878-93C2863E0093";
paths = (
{
closed = 1;
nodes = (
"1367 -28 OFFCURVE",
"1550 64 OFFCURVE",
"1676 224 CURVE",
"1688 224 LINE",
"1710 0 LINE",
"2064 0 LINE",
"2064 1144 LINE",
"1140 1144 LINE",
"1140 748 LINE",
"1628 748 LINE",
"1512 758 LINE",
"1512 574 OFFCURVE",
"1386 456 OFFCURVE",
"1132 456 CURVE SMOOTH",
"848 456 OFFCURVE",
"696 668 OFFCURVE",
"696 1028 CURVE SMOOTH",
"696 1384 OFFCURVE",
"866 1592 OFFCURVE",
"1146 1592 CURVE SMOOTH",
"1320 1592 OFFCURVE",
"1450 1514 OFFCURVE",
"1484 1372 CURVE",
"2044 1372 LINE",
"2002 1786 OFFCURVE",
"1618 2076 OFFCURVE",
"1134 2076 CURVE SMOOTH",
"582 2076 OFFCURVE",
"124 1696 OFFCURVE",
"124 1020 CURVE SMOOTH",
"124 372 OFFCURVE",
"534 -28 OFFCURVE",
"1128 -28 CURVE SMOOTH"
);
}
);
width = 2192;
},
{
anchors = (
{
name = bottom;
position = "{1060, 0}";
},
{
name = top;
position = "{1064, 2304}";
}
);
associatedMasterId = "C698F293-3EC0-4A5A-A3A0-0FDB1F5CF265";
background = {
components = (
{
name = O;
}
);
};
layerId = "3EA0DF55-F8B9-4DDB-B134-27DFE5860B60";
name = "Feb 3 19, 14:20";
paths = (
{
closed = 1;
nodes = (
"1904 1408 LINE",
"1828 1804 OFFCURVE",
"1496 2076 OFFCURVE",
"1064 2076 CURVE SMOOTH",
"540 2076 OFFCURVE",
"168 1672 OFFCURVE",
"168 1024 CURVE SMOOTH",
"168 376 OFFCURVE",
"536 -28 OFFCURVE",
"1080 -28 CURVE SMOOTH",
"1596 -28 OFFCURVE",
"1916 495 OFFCURVE",
"1916 844 CURVE SMOOTH",
"1916 1024 LINE",
"1136 1024 LINE",
"1136 804 LINE",
"1752 804 LINE",
"1676 820 LINE",
"1676 444 OFFCURVE",
"1432 204 OFFCURVE",
"1080 204 CURVE SMOOTH",
"700 204 OFFCURVE",
"408 492 OFFCURVE",
"408 1024 CURVE SMOOTH",
"408 1556 OFFCURVE",
"700 1844 OFFCURVE",
"1064 1844 CURVE SMOOTH",
"1360 1844 OFFCURVE",
"1562 1678 OFFCURVE",
"1648 1408 CURVE"
);
},
{
closed = 1;
nodes = (
"1708 0 LINE",
"1916 0 LINE",
"1916 944 LINE",
"1668 344 LINE"
);
},
{
closed = 1;
nodes = (
"1638 250 LINE",
"1704 250 LINE",
"1704 302 LINE",
"1638 302 LINE"
);
}
);
width = 2092;
},
{
layerId = "DB1B210E-75C3-45F4-95FF-BB3F4FD26361";
width = 600;
},
{
layerId = "244DDCDD-91CB-4447-98B0-DDFA97A87342";
width = 600;
},
{
layerId = "5F6731B1-FB4A-4A0D-82A2-13F618D6D6C6";
width = 600;
}
);
leftKerningGroup = C;
leftMetricsKey = G;
rightKerningGroup = R;
rightMetricsKey = G;
unicode = E002;
},
{
color = 9;
glyphname = Gbar.1;
lastChange = "2019-07-05 21:12:23 +0000";
layers = (
{
components = (
{
name = G.1;
}
);
layerId = "B1F27B51-9973-4381-9301-4FE46FE1CA59";
paths = (
{
closed = 1;
nodes = (
"1080 560 LINE",
"1080 496 LINE",
"2000 496 LINE",
"2000 560 LINE"
);
}
);
width = 2080;
},
{
components = (
{
name = G.1;
}
);
layerId = "C698F293-3EC0-4A5A-A3A0-0FDB1F5CF265";
paths = (
{
closed = 1;
nodes = (
"1136 624 LINE",
"1136 424 LINE",
"2076 424 LINE",
"2076 624 LINE"
);
}
);
width = 2112;
},
{
components = (
{
name = G.1;
}
);
layerId = "5C20EF92-B63D-42A8-8878-93C2863E0093";
paths = (
{
closed = 1;
nodes = (
"1140 688 LINE",
"1140 564 LINE",
"2132 564 LINE",
"2132 688 LINE"
);
}
);
width = 2196;
},
{
layerId = "DB1B210E-75C3-45F4-95FF-BB3F4FD26361";
width = 600;
},
{
layerId = "244DDCDD-91CB-4447-98B0-DDFA97A87342";
width = 600;
},
{
layerId = "5F6731B1-FB4A-4A0D-82A2-13F618D6D6C6";
width = 600;
}
);
leftMetricsKey = Gbar;
rightMetricsKey = Gbar;
unicode = E003;
},
{
color = 9;
glyphname = Ghook.1;
lastChange = "2019-07-05 21:12:23 +0000";
layers = (
{
components = (
{
name = G.1;
}
);
layerId = "B1F27B51-9973-4381-9301-4FE46FE1CA59";
paths = (
{
closed = 1;
nodes = (
"1828 1552 LINE SMOOTH",
"1826 1702 OFFCURVE",
"1894 1766 OFFCURVE",
"2008 1764 CURVE SMOOTH",
"2026 1766 OFFCURVE",
"2042 1764 OFFCURVE",
"2044 1760 CURVE",
"2044 1820 LINE",
"2040 1828 OFFCURVE",
"2000 1820 OFFCURVE",
"1972 1820 CURVE SMOOTH",
"1794 1820 OFFCURVE",
"1814 1720 OFFCURVE",
"1784 1552 CURVE SMOOTH",
"1764 1432 LINE",
"1828 1432 LINE"
);
}
);
width = 2004;
},
{
components = (
{
name = G.1;
}
);
layerId = "C698F293-3EC0-4A5A-A3A0-0FDB1F5CF265";
paths = (
{
closed = 1;
nodes = (
"1924 1624 LINE SMOOTH",
"1924 1784 OFFCURVE",
"2020 1832 OFFCURVE",
"2148 1832 CURVE SMOOTH",
"2176 1832 OFFCURVE",
"2204 1828 OFFCURVE",
"2224 1824 CURVE",
"2224 2024 LINE",
"2188 2036 OFFCURVE",
"2136 2036 OFFCURVE",
"2088 2036 CURVE SMOOTH",
"1832 2036 OFFCURVE",
"1699 1888 OFFCURVE",
"1684 1624 CURVE SMOOTH",
"1672 1408 LINE",
"1924 1408 LINE"
);
}
);
width = 2176;
},
{
components = (
{
name = G.1;
}
);
layerId = "5C20EF92-B63D-42A8-8878-93C2863E0093";
paths = (
{
closed = 1;
nodes = (
"2044 1748 LINE SMOOTH",
"2044 1920 OFFCURVE",
"2188 1944 OFFCURVE",
"2336 1944 CURVE SMOOTH",
"2384 1944 OFFCURVE",
"2432 1936 OFFCURVE",
"2484 1932 CURVE",
"2484 2364 LINE",
"2392 2384 OFFCURVE",
"2320 2396 OFFCURVE",
"2240 2396 CURVE SMOOTH",
"1852 2396 OFFCURVE",
"1468 2168 OFFCURVE",
"1472 1748 CURVE SMOOTH",
"1476 1372 LINE",
"2044 1372 LINE"
);
}
);
width = 2464;
},
{
layerId = "DB1B210E-75C3-45F4-95FF-BB3F4FD26361";
width = 600;
},
{
layerId = "244DDCDD-91CB-4447-98B0-DDFA97A87342";
width = 600;
},
{
layerId = "5F6731B1-FB4A-4A0D-82A2-13F618D6D6C6";
width = 600;
}
);
leftMetricsKey = Ghook;
rightMetricsKey = Ghook;
unicode = E004;
},
{
color = (219,235,247,1);
glyphname = H;
lastChange = "2019-07-05 20:31:23 +0000";
layers = (
{
anchors = (
{
name = bottom;
position = "{1040, 0}";
},
{
name = cedilla;
position = "{404, -4}";
},
{
name = cyrtic;
position = "{1928, 88}";
},
{
name = right;
position = "{1836, 0}";
},
{
name = tonos;
position = "{200, 2048}";
},
{
name = top;
position = "{1052, 2308}";
}
);
guideLines = (
{
alignment = center;
angle = 90;
position = "{1040, 56}";
}
);
layerId = "C698F293-3EC0-4A5A-A3A0-0FDB1F5CF265";
paths = (
{
closed = 1;
nodes = (
"496 0 LINE",
"496 916 LINE",
"1588 916 LINE",
"1588 0 LINE",
"1836 0 LINE",
"1836 2048 LINE",
"1588 2048 LINE",
"1588 1136 LINE",
"496 1136 LINE",
"496 2048 LINE",
"248 2048 LINE",
"248 0 LINE"
);
}
);
width = 2084;
},
{
anchors = (
{
name = bottom;
position = "{1056, 0}";
},
{
name = cedilla;
position = "{396, 0}";
},
{
name = cyrtic;
position = "{2244, 224}";
},
{
name = right;
position = "{1980, 0}";
},
{
name = tonos;
position = "{84, 2048}";
},
{
name = top;
position = "{1056, 2304}";
}
);
guideLines = (
{
position = "{12, 1652}";
},
{
alignment = center;
angle = 90;
position = "{984, 1344}";
}
);
layerId = "5C20EF92-B63D-42A8-8878-93C2863E0093";
paths = (
{
closed = 1;
nodes = (
"688 0 LINE",
"688 800 LINE",
"1424 800 LINE",
"1424 0 LINE",
"1980 0 LINE",
"1980 2048 LINE",
"1424 2048 LINE",
"1424 1248 LINE",
"688 1248 LINE",
"688 2048 LINE",
"132 2048 LINE",
"132 0 LINE"
);
}
);
width = 2112;
},
{
anchors = (
{
name = bottom;
position = "{1036, 0}";
},
{
name = cedilla;
position = "{352, -8}";
},
{
name = cyrtic;
position = "{1740, 8}";
},
{
name = right;
position = "{1752, 0}";
},
{
name = tonos;
position = "{272, 2048}";
},
{
name = top;
position = "{1036, 2304}";
}
);
layerId = "B1F27B51-9973-4381-9301-4FE46FE1CA59";
paths = (
{
closed = 1;
nodes = (
"384 0 LINE",
"384 992 LINE",
"1688 992 LINE",
"1688 0 LINE",
"1752 0 LINE",
"1752 2048 LINE",
"1688 2048 LINE",
"1688 1056 LINE",
"384 1056 LINE",
"384 2048 LINE",
"320 2048 LINE",
"320 0 LINE"
);
}
);
width = 2072;
},
{
layerId = "244DDCDD-91CB-4447-98B0-DDFA97A87342";
width = 600;
},
{
layerId = "5F6731B1-FB4A-4A0D-82A2-13F618D6D6C6";
width = 600;
},
{
layerId = "DB1B210E-75C3-45F4-95FF-BB3F4FD26361";
width = 600;
}
);
leftKerningGroup = B;
rightKerningGroup = H;
unicode = 0048;
userData = {
"interface.width-adjustments" = (
-16
);
};
},
{
glyphname = Hbar;
lastChange = "2019-07-05 21:12:23 +0000";
layers = (
{
components = (
{
name = H;
transform = "{1, 0, 0, 1, 52, 0}";
}
);
guideLines = (
{
alignment = center;
angle = 90;
position = "{972, 2068}";
}
);
layerId = "C698F293-3EC0-4A5A-A3A0-0FDB1F5CF265";
paths = (
{
closed = 1;
nodes = (
"136 1616 LINE",
"136 1408 LINE",
"2052 1408 LINE",
"2052 1616 LINE"
);
}
);
width = 2188;
},
{
components = (
{
name = H;
transform = "{1, 0, 0, 1, 116, 0}";
}
);
layerId = "5C20EF92-B63D-42A8-8878-93C2863E0093";
paths = (
{
closed = 1;
nodes = (
"76 1744 LINE",
"76 1480 LINE",
"2268 1480 LINE",
"2268 1744 LINE"
);
}
);
width = 2344;
},
{
components = (
{
alignment = -1;
name = H;
transform = "{1, 0, 0, 1, 16, 0}";
}
);
layerId = "B1F27B51-9973-4381-9301-4FE46FE1CA59";
paths = (
{
closed = 1;
nodes = (
"172 1540 LINE",
"172 1364 LINE",
"1924 1364 LINE",
"1924 1540 LINE"
);
}
);
width = 2094;
},
{
layerId = "DB1B210E-75C3-45F4-95FF-BB3F4FD26361";
width = 600;
},
{
layerId = "244DDCDD-91CB-4447-98B0-DDFA97A87342";
width = 600;
},
{
layerId = "5F6731B1-FB4A-4A0D-82A2-13F618D6D6C6";
width = 600;
}
);
leftKerningGroup = B;
leftMetricsKey = T;
rightKerningGroup = H;
rightMetricsKey = T;
unicode = 0126;
userData = {
interface.gridadjust.original = "{'width': 1980.0, 'leftMargin': 43, 'rightMargin': 22.0}";
"interface.width-adjustments" = (
-16
);
};
},
{
glyphname = Enhookcyrillic;
lastChange = "2019-07-05 21:12:23 +0000";
layers = (
{
components = (
{
name = H;
}
);
layerId = "C698F293-3EC0-4A5A-A3A0-0FDB1F5CF265";
paths = (
{
closed = 1;
nodes = (
"1588 -160 LINE SMOOTH",
"1588 -320 OFFCURVE",
"1496 -368 OFFCURVE",
"1368 -368 CURVE SMOOTH",
"1340 -368 OFFCURVE",
"1312 -364 OFFCURVE",
"1292 -360 CURVE",
"1292 -564 LINE",
"1328 -576 OFFCURVE",
"1380 -576 OFFCURVE",
"1428 -576 CURVE SMOOTH",
"1652 -576 OFFCURVE",
"1836 -428 OFFCURVE",
"1836 -164 CURVE SMOOTH",
"1836 0 LINE",
"1588 0 LINE"
);
}
);
width = 2084;
},
{
components = (
{
name = H;
}
);
layerId = "5C20EF92-B63D-42A8-8878-93C2863E0093";
paths = (
{
closed = 1;
nodes = (
"1424 -16 LINE SMOOTH",
"1424 -160 OFFCURVE",
"1276 -184 OFFCURVE",
"1152 -184 CURVE SMOOTH",
"1113 -184 OFFCURVE",
"1037 -178 OFFCURVE",
"1000 -176 CURVE",
"1000 -616 LINE",
"1009 -616 OFFCURVE",
"1097 -628 OFFCURVE",
"1172 -628 CURVE SMOOTH",
"1981 -628 OFFCURVE",
"1980 -200 OFFCURVE",
"1980 -56 CURVE SMOOTH",
"1980 0 LINE",
"1424 0 LINE {name = hr00;}"
);
}
);
width = 2112;
},
{
components = (
{
alignment = -1;
name = H;
}
);
layerId = "B1F27B51-9973-4381-9301-4FE46FE1CA59";
paths = (
{
closed = 1;
nodes = (
"1688 -248 LINE SMOOTH",
"1686 -416 OFFCURVE",
"1628 -478 OFFCURVE",
"1500 -480 CURVE SMOOTH",
"1476 -478 OFFCURVE",
"1477 -476 OFFCURVE",
"1468 -472 CURVE",
"1468 -532 LINE",
"1519 -552 OFFCURVE",
"1550 -545 OFFCURVE",
"1584 -544 CURVE SMOOTH",
"1455 -545 OFFCURVE",
"1750 -565 OFFCURVE",
"1752 -228 CURVE SMOOTH",
"1752 0 LINE",
"1688 0 LINE {name = hr00;}"
);
}
);
width = 2072;
},
{
layerId = "DB1B210E-75C3-45F4-95FF-BB3F4FD26361";
width = 600;
},
{
layerId = "244DDCDD-91CB-4447-98B0-DDFA97A87342";
width = 600;
},
{
layerId = "5F6731B1-FB4A-4A0D-82A2-13F618D6D6C6";
width = 600;
}
);
leftKerningGroup = B;
leftMetricsKey = H;
rightKerningGroup = H;
rightMetricsKey = H;
unicode = 04C7;
userData = {
interface.gridadjust.original = "{'width': 2010, 'leftMargin': 242, 'rightMargin': 244}";
"interface.width-adjustments" = (
-16
);
};
},
{
glyphname = Enghecyrillic;
lastChange = "2019-07-05 21:12:23 +0000";
layers = (
{
components = (
{
name = H;
}
);
layerId = "C698F293-3EC0-4A5A-A3A0-0FDB1F5CF265";
paths = (
{
closed = 1;
nodes = (
"1592 2048 LINE",
"1768 1828 LINE",
"2640 1828 LINE",
"2640 2048 LINE"
);
}
);
width = 2776;
},
{
components = (
{
name = H;
}
);
layerId = "5C20EF92-B63D-42A8-8878-93C2863E0093";
paths = (
{
closed = 1;
nodes = (
"1424 2048 LINE",
"1896 1600 LINE",
"2796 1600 LINE",
"2796 2048 LINE"
);
}
);
width = 2872;
},
{
components = (
{
alignment = -1;
name = H;
}
);
layerId = "B1F27B51-9973-4381-9301-4FE46FE1CA59";
paths = (
{
closed = 1;
nodes = (
"1692 2048 LINE",
"1692 1964 LINE",
"2548 1964 LINE",
"2548 2048 LINE"
);
}
);
width = 2720;
},
{
layerId = "DB1B210E-75C3-45F4-95FF-BB3F4FD26361";
width = 600;
},
{
layerId = "244DDCDD-91CB-4447-98B0-DDFA97A87342";
width = 600;
},
{
layerId = "5F6731B1-FB4A-4A0D-82A2-13F618D6D6C6";
width = 600;
}
);
leftKerningGroup = B;
leftMetricsKey = H;
note = "!post:RemoveOverlap";
rightKerningGroup = T;
rightMetricsKey = T;
unicode = 04A4;
userData = {
interface.gridadjust.original = "{'width': 2729, 'leftMargin': 256, 'rightMargin': 101}";
"interface.width-adjustments" = (
-16
);
};
},
{
glyphname = uni01F6;
lastChange = "2019-07-05 21:12:23 +0000";
layers = (
{
background = {
components = (
{
name = H;
}
);
};
layerId = "C698F293-3EC0-4A5A-A3A0-0FDB1F5CF265";
paths = (
{
closed = 1;
nodes = (
"2648 -28 OFFCURVE",
"2920 196 OFFCURVE",
"2920 648 CURVE SMOOTH",
"2920 1536 LINE",
"2672 1536 LINE",
"2672 648 LINE SMOOTH",
"2672 340 OFFCURVE",
"2528 200 OFFCURVE",
"2260 200 CURVE SMOOTH",
"1992 200 OFFCURVE",
"1836 340 OFFCURVE",
"1836 648 CURVE SMOOTH",
"1836 2048 LINE",
"1588 2048 LINE",
"1588 1136 LINE",
"496 1136 LINE",
"496 2048 LINE",
"248 2048 LINE",
"248 0 LINE",
"496 0 LINE",
"496 916 LINE",
"1588 916 LINE",
"1588 648 LINE SMOOTH",
"1588 204 OFFCURVE",
"1860 -28 OFFCURVE",
"2260 -28 CURVE SMOOTH"
);
}
);
width = 3136;
},
{
background = {
components = (
{
name = H;
}
);
};
layerId = "5C20EF92-B63D-42A8-8878-93C2863E0093";
paths = (
{
closed = 1;
nodes = (
"2736 -28 OFFCURVE",
"3040 256 OFFCURVE",
"3040 716 CURVE SMOOTH",
"3040 1468 LINE",
"2484 1468 LINE",
"2484 716 LINE SMOOTH",
"2484 536 OFFCURVE",
"2388 428 OFFCURVE",
"2232 428 CURVE SMOOTH",
"2076 428 OFFCURVE",
"1980 536 OFFCURVE",
"1980 716 CURVE SMOOTH",
"1980 2048 LINE",
"1424 2048 LINE",
"1424 1248 LINE",
"688 1248 LINE",
"688 2048 LINE",
"132 2048 LINE",
"132 0 LINE",
"688 0 LINE",
"688 800 LINE",
"1424 800 LINE",
"1424 716 LINE SMOOTH",
"1424 256 OFFCURVE",
"1732 -28 OFFCURVE",
"2232 -28 CURVE SMOOTH"
);
}
);
width = 3180;
},
{
layerId = "B1F27B51-9973-4381-9301-4FE46FE1CA59";
paths = (
{
closed = 1;
nodes = (
"2595 -28 OFFCURVE",
"2848 160 OFFCURVE",
"2848 608 CURVE SMOOTH",
"2848 1576 LINE",
"2784 1576 LINE",
"2784 608 LINE SMOOTH",
"2785 222 OFFCURVE",
"2612 63 OFFCURVE",
"2276 64 CURVE SMOOTH",
"1942 63 OFFCURVE",
"1750 222 OFFCURVE",
"1752 608 CURVE SMOOTH",
"1752 2048 LINE",
"1688 2048 LINE",
"1688 1068 LINE",
"380 1068 LINE",
"380 2048 LINE",
"320 2048 LINE",
"320 0 LINE",
"380 0 LINE",
"380 988 LINE",
"1688 988 LINE",
"1688 608 LINE SMOOTH",
"1686 173 OFFCURVE",
"1937 -28 OFFCURVE",
"2276 -28 CURVE SMOOTH"
);
}
);
width = 3120;
},
{
layerId = "DB1B210E-75C3-45F4-95FF-BB3F4FD26361";
width = 600;
},
{
layerId = "244DDCDD-91CB-4447-98B0-DDFA97A87342";
width = 600;
},
{
layerId = "5F6731B1-FB4A-4A0D-82A2-13F618D6D6C6";
width = 600;
}
);
leftKerningGroup = B;
leftMetricsKey = H;
rightKerningGroup = u;
rightMetricsKey = u;
unicode = 01F6;
userData = {
interface.gridadjust.original = "{'width': 3059, 'leftMargin': 228, 'rightMargin': 176}";
"interface.width-adjustments" = (
-16
);
};
},
{
color = (219,235,247,1);
glyphname = I;
lastChange = "2019-07-05 21:12:23 +0000";
layers = (
{
anchors = (
{
name = bottom;
position = "{372, 0}";
},
{
name = cross;
position = "{372, 1056}";
},
{
name = ogonek;
position = "{496, 0}";
},
{
name = right;
position = "{516, 0}";
},
{
name = tonos;
position = "{248, 2048}";
},
{
name = top;
position = "{372, 2304}";
}
);
guideLines = (
{
angle = 90;
position = "{372, 1848}";
}
);
layerId = "C698F293-3EC0-4A5A-A3A0-0FDB1F5CF265";
paths = (
{
closed = 1;
nodes = (
"248 2048 LINE",
"248 0 LINE",
"496 0 LINE",
"496 2048 LINE"
);
}
);
width = 744;
},
{
anchors = (
{
name = bottom;
position = "{408, 0}";
},
{
name = cross;
position = "{408, 1084}";
},
{
name = ogonek;
position = "{688, 0}";
},
{
name = right;
position = "{724, 0}";
},
{
name = tonos;
position = "{132, 2048}";
},
{
name = top;
position = "{412, 2304}";
}
);
guideLines = (
{
alignment = center;
angle = 90;
position = "{292, 1240}";
}
);
layerId = "5C20EF92-B63D-42A8-8878-93C2863E0093";
paths = (
{
closed = 1;
nodes = (
"132 2048 LINE",
"132 0 LINE",
"688 0 LINE",
"688 2048 LINE"
);
}
);
width = 820;
},
{
anchors = (
{
name = bottom;
position = "{352, 0}";
},
{
name = cross;
position = "{352, 1056}";
},
{
name = ogonek;
position = "{384, 0}";
},
{
name = right;
position = "{396, 0}";
},
{
name = tonos;
position = "{320, 2048}";
},
{
name = top;
position = "{352, 2304}";
}
);
layerId = "B1F27B51-9973-4381-9301-4FE46FE1CA59";
paths = (
{
closed = 1;
nodes = (
"320 2048 LINE",
"320 0 LINE",
"384 0 LINE",
"384 2048 LINE"
);
}
);
width = 704;
},
{
layerId = "DB1B210E-75C3-45F4-95FF-BB3F4FD26361";
width = 600;
},
{
layerId = "244DDCDD-91CB-4447-98B0-DDFA97A87342";
width = 600;
},
{
layerId = "5F6731B1-FB4A-4A0D-82A2-13F618D6D6C6";
width = 600;
}
);
leftKerningGroup = B;
leftMetricsKey = H;
rightKerningGroup = H;
rightMetricsKey = H;
unicode = 0049;
userData = {
"interface.width-adjustments" = (
-16
);
};
},
{
glyphname = Idieresisacute;
lastChange = "2019-07-05 21:12:23 +0000";
layers = (
{
components = (
{
name = I;
},
{
name = dieresisacutecomb.cn;
transform = "{1, 0, 0, 1, 892, 0}";
}
);
layerId = "C698F293-3EC0-4A5A-A3A0-0FDB1F5CF265";
width = 744;
},
{
background = {
paths = (
{
closed = 1;
nodes = (
"702 64 LINE",
"702 2048 LINE",
"118 2048 LINE",
"118 64 LINE"
);
},
{
closed = 1;
nodes = (
"196 2712 LINE",
"588 2712 LINE",
"916 3098 LINE",
"472 3098 LINE"
);
},
{
closed = 1;
nodes = (
"230 2176 OFFCURVE",
"321 2270 OFFCURVE",
"322 2382 CURVE SMOOTH",
"323 2496 OFFCURVE",
"230 2589 OFFCURVE",
"104 2590 CURVE SMOOTH",
"-23 2591 OFFCURVE",
"-114 2496 OFFCURVE",
"-114 2382 CURVE SMOOTH",
"-114 2270 OFFCURVE",
"-23 2176 OFFCURVE",
"104 2176 CURVE SMOOTH"
);
},
{
closed = 1;
nodes = (
"841 2176 OFFCURVE",
"932 2270 OFFCURVE",
"932 2382 CURVE SMOOTH",
"932 2496 OFFCURVE",
"841 2589 OFFCURVE",
"714 2590 CURVE SMOOTH",
"588 2591 OFFCURVE",
"497 2496 OFFCURVE",
"498 2382 CURVE SMOOTH",
"499 2270 OFFCURVE",
"588 2176 OFFCURVE",
"714 2176 CURVE SMOOTH"
);
}
);
};
components = (
{
name = I;
},
{
name = dieresisacutecomb.cn;
transform = "{1, 0, 0, 1, 972, 0}";
}
);
layerId = "5C20EF92-B63D-42A8-8878-93C2863E0093";
width = 820;
},
{
components = (
{
name = I;
},
{
name = dieresisacutecomb.cn;
transform = "{1, 0, 0, 1, 864, 0}";
}
);
layerId = "B1F27B51-9973-4381-9301-4FE46FE1CA59";
width = 704;
},
{
layerId = "DB1B210E-75C3-45F4-95FF-BB3F4FD26361";
width = 600;
},
{
layerId = "244DDCDD-91CB-4447-98B0-DDFA97A87342";
width = 600;
},
{
layerId = "5F6731B1-FB4A-4A0D-82A2-13F618D6D6C6";
width = 600;
}
);
leftKerningGroup = Idieresis;
rightKerningGroup = Idieresis;
unicode = 1E2E;
userData = {
interface.gridadjust.original = "{'width': 1018, 'leftMargin': 28, 'rightMargin': 28}";
};
},
{
color = 9;
glyphname = I.1;
lastChange = "2019-07-05 21:12:23 +0000";
layers = (
{
anchors = (
{
name = ogonek;
position = "{1112, 0}";
},
{
name = right;
position = "{1132, 0}";
},
{
name = tonos;
position = "{136, 2048}";
}
);
components = (
{
name = I;
transform = "{1, 0, 0, 1, 252, 0}";
}
);
layerId = "C698F293-3EC0-4A5A-A3A0-0FDB1F5CF265";
paths = (
{
closed = 1;
nodes = (
"1112 1828 LINE",
"1112 2048 LINE",
"136 2048 LINE",
"136 1828 LINE"
);
},
{
closed = 1;
nodes = (
"1112 0 LINE",
"1112 220 LINE",
"136 220 LINE",
"136 0 LINE"
);
}
);
width = 1248;
},
{
anchors = (
{
name = ogonek;
position = "{1344, 0}";
},
{
name = right;
position = "{1380, 0}";
},
{
name = tonos;
position = "{76, 2048}";
}
);
components = (
{
name = I;
transform = "{1, 0, 0, 1, 300, 0}";
}
);
layerId = "5C20EF92-B63D-42A8-8878-93C2863E0093";
paths = (
{
closed = 1;
nodes = (
"1344 1600 LINE",
"1344 2048 LINE",
"76 2048 LINE",
"76 1600 LINE"
);
},
{
closed = 1;
nodes = (
"1344 0 LINE",
"1344 448 LINE",
"76 448 LINE",
"76 0 LINE"
);
}
);
width = 1420;
},
{
anchors = (
{
name = ogonek;
position = "{812, 0}";
},
{
name = right;
position = "{824, 0}";
},
{
name = tonos;
position = "{172, 2048}";
}
);
components = (
{
alignment = -1;
name = I;
transform = "{1, 0, 0, 1, 140, 0}";
}
);
guideLines = (
{
angle = 90;
position = "{812, 104}";
},
{
angle = 90;
position = "{172, 104}";
}
);
layerId = "B1F27B51-9973-4381-9301-4FE46FE1CA59";
paths = (
{
closed = 1;
nodes = (
"812 1984 LINE",
"812 2048 LINE",
"172 2048 LINE",
"172 1984 LINE"
);
},
{
closed = 1;
nodes = (
"812 0 LINE",
"812 64 LINE",
"172 64 LINE",
"172 0 LINE"
);
}
);
width = 984;
},
{
layerId = "DB1B210E-75C3-45F4-95FF-BB3F4FD26361";
width = 600;
},
{
layerId = "244DDCDD-91CB-4447-98B0-DDFA97A87342";
width = 600;
},
{
layerId = "5F6731B1-FB4A-4A0D-82A2-13F618D6D6C6";
width = 600;
}
);
leftKerningGroup = B;
leftMetricsKey = T;
rightKerningGroup = H;
rightMetricsKey = T;
unicode = E00C;
},
{
color = (219,235,247,1);
glyphname = J;
lastChange = "2019-07-05 21:12:23 +0000";
layers = (
{
anchors = (
{
name = cross;
position = "{1156, 1216}";
},
{
name = top;
position = "{1156, 2304}";
}
);
guideLines = (
{
angle = 90;
position = "{1156, 1476}";
},
{
angle = 90;
position = "{696, 492}";
}
);
layerId = "C698F293-3EC0-4A5A-A3A0-0FDB1F5CF265";
paths = (
{
closed = 1;
nodes = (
"1032 584 LINE",
"1032 329 OFFCURVE",
"910 192 OFFCURVE",
"696 192 CURVE SMOOTH",
"501 192 OFFCURVE",
"360 306 OFFCURVE",
"360 480 CURVE",
"116 480 LINE",
"116 165 OFFCURVE",
"360 -28 OFFCURVE",
"696 -28 CURVE SMOOTH",
"1052 -28 OFFCURVE",
"1280 191 OFFCURVE",
"1280 584 CURVE",
"1280 2048 LINE",
"1032 2048 LINE"
);
}
);
width = 1528;
},
{
anchors = (
{
name = cross;
position = "{1244, 1216}";
},
{
name = top;
position = "{1248, 2304}";
}
);
guideLines = (
{
angle = 90;
position = "{1248, 1476}";
}
);
layerId = "5C20EF92-B63D-42A8-8878-93C2863E0093";
paths = (
{
closed = 1;
nodes = (
"976 644 LINE",
"974 486 OFFCURVE",
"908 404 OFFCURVE",
"784 404 CURVE SMOOTH",
"662 404 OFFCURVE",
"594 485 OFFCURVE",
"588 640 CURVE",
"32 640 LINE",
"30 168 OFFCURVE",
"354 -28 OFFCURVE",
"748 -28 CURVE SMOOTH",
"1202 -28 OFFCURVE",
"1522 244 OFFCURVE",
"1524 644 CURVE",
"1524 2048 LINE",
"976 2048 LINE"
);
}
);
width = 1656;
},
{
anchors = (
{
name = cross;
position = "{1112, 1216}";
},
{
name = top;
position = "{1112, 2304}";
}
);
guideLines = (
{
angle = 90;
position = "{1112, 2256}";
}
);
layerId = "B1F27B51-9973-4381-9301-4FE46FE1CA59";
paths = (
{
closed = 1;
nodes = (
"1080 544 LINE SMOOTH",
"1078 164 OFFCURVE",
"872 36 OFFCURVE",
"648 36 CURVE SMOOTH",
"404 36 OFFCURVE",
"214 184 OFFCURVE",
"216 384 CURVE",
"152 384 LINE",
"150 148 OFFCURVE",
"366 -28 OFFCURVE",
"648 -28 CURVE SMOOTH",
"910 -28 OFFCURVE",
"1142 128 OFFCURVE",
"1144 544 CURVE SMOOTH",
"1144 2048 LINE",
"1080 2048 LINE"
);
}
);
width = 1464;
},
{
layerId = "DB1B210E-75C3-45F4-95FF-BB3F4FD26361";
width = 600;
},
{
layerId = "244DDCDD-91CB-4447-98B0-DDFA97A87342";
width = 600;
},
{
layerId = "5F6731B1-FB4A-4A0D-82A2-13F618D6D6C6";
width = 600;
}
);
leftKerningGroup = J;
rightKerningGroup = J;
rightMetricsKey = H;
unicode = 004A;
},
{
color = (219,235,247,1);
glyphname = K;
lastChange = "2019-07-05 21:12:23 +0000";
layers = (
{
anchors = (
{
name = bottom;
position = "{920, 0}";
},
{
name = top;
position = "{928, 2304}";
}
);
guideLines = (
{
angle = 227.6708;
position = "{1748, 2048}";
},
{
angle = 90;
position = "{928, 212}";
}
);
layerId = "C698F293-3EC0-4A5A-A3A0-0FDB1F5CF265";
paths = (
{
closed = 1;
nodes = (
"496 0 LINE",
"496 664 LINE",
"752 952 LINE",
"1464 0 LINE",
"1764 0 LINE",
"904 1124 LINE",
"1764 2048 LINE",
"1440 2048 LINE",
"520 1032 LINE",
"496 1032 LINE",
"496 2048 LINE",
"248 2048 LINE",
"248 0 LINE"
);
}
);
width = 1836;
},
{
anchors = (
{
name = bottom;
position = "{992, 4}";
},
{
name = top;
position = "{996, 2304}";
}
);
guideLines = (
{
alignment = center;
angle = 90;
position = "{1048, 1820}";
}
);
layerId = "5C20EF92-B63D-42A8-8878-93C2863E0093";
paths = (
{
closed = 1;
nodes = (
"688 0 LINE",
"688 528 LINE",
"872 768 LINE",
"1332 0 LINE",
"1996 0 LINE",
"1288 1136 LINE",
"1980 2048 LINE",
"1332 2048 LINE",
"716 1220 LINE",
"688 1220 LINE",
"688 2048 LINE",
"132 2048 LINE",
"132 0 LINE"
);
}
);
width = 2012;
},
{
anchors = (
{
name = bottom;
position = "{872, 0}";
},
{
name = top;
position = "{876, 2304}";
}
);
guideLines = (
{
angle = 227.6708;
position = "{1640, 2048}";
}
);
layerId = "B1F27B51-9973-4381-9301-4FE46FE1CA59";
paths = (
{
closed = 1;
nodes = (
"384 0 LINE",
"384 668 LINE",
"692 1008 LINE",
"1544 0 LINE",
"1628 0 LINE",
"736 1056 LINE",
"1640 2048 LINE",
"1552 2048 LINE",
"392 772 LINE",
"384 772 LINE",
"384 2048 LINE",
"320 2048 LINE",
"320 0 LINE"
);
}
);
width = 1736;
},
{
layerId = "DB1B210E-75C3-45F4-95FF-BB3F4FD26361";
width = 600;
},
{
layerId = "244DDCDD-91CB-4447-98B0-DDFA97A87342";
width = 600;
},
{
layerId = "5F6731B1-FB4A-4A0D-82A2-13F618D6D6C6";
width = 600;
}
);
leftKerningGroup = B;
leftMetricsKey = H;
rightKerningGroup = K;
unicode = 004B;
userData = {
com.typemytype.robofont.guideline.magnetic.bB6GeEoQ3O = 5;
"interface.width-adjustments" = (
-16
);
};
},
{
glyphname = Kabashkircyrillic;
lastChange = "2019-07-05 21:12:23 +0000";
layers = (
{
components = (
{
name = Kacyr;
transform = "{1, 0, 0, 1, 280, 0}";
}
);
layerId = "C698F293-3EC0-4A5A-A3A0-0FDB1F5CF265";
paths = (
{
closed = 1;
nodes = (
"24 2048 LINE",
"24 1828 LINE",
"752 1828 LINE",
"752 2048 LINE"
);
}
);
width = 2100;
},
{
components = (
{
name = Kacyr;
transform = "{1, 0, 0, 1, 364, 0}";
}
);
layerId = "5C20EF92-B63D-42A8-8878-93C2863E0093";
paths = (
{
closed = 1;
nodes = (
"60 2048 LINE",
"60 1632 LINE",
"940 1632 LINE",
"940 2048 LINE"
);
}
);
width = 2584;
},
{
components = (
{
alignment = -1;
name = Kacyr;
transform = "{1, 0, 0, 1, 232, 0}";
}
);
layerId = "B1F27B51-9973-4381-9301-4FE46FE1CA59";
paths = (
{
closed = 1;
nodes = (
"4 2048 LINE",
"4 1948 LINE",
"600 1948 LINE",
"600 2048 LINE"
);
}
);
width = 1810;
},
{
layerId = "DB1B210E-75C3-45F4-95FF-BB3F4FD26361";
width = 600;
},
{
layerId = "244DDCDD-91CB-4447-98B0-DDFA97A87342";
width = 600;
},
{
layerId = "5F6731B1-FB4A-4A0D-82A2-13F618D6D6C6";
width = 600;
}
);
leftKerningGroup = B;
note = "!post:RemoveOverlap";
rightKerningGroup = K;
unicode = 04A0;
userData = {
interface.gridadjust.original = "{'width': 2311, 'leftMargin': 91, 'rightMargin': -1}";
"interface.width-adjustments" = (
-16
);
};
},
{
glyphname = Khook;
lastChange = "2019-07-05 21:12:23 +0000";
layers = (
{
background = {
components = (
{
name = K;
}
);
};
layerId = "C698F293-3EC0-4A5A-A3A0-0FDB1F5CF265";
paths = (
{
closed = 1;
nodes = (
"496 0 LINE",
"496 664 LINE",
"752 952 LINE",
"1464 0 LINE",
"1764 0 LINE",
"904 1124 LINE",
"1488 1752 LINE SMOOTH",
"1590 1862 OFFCURVE",
"1680 1868 OFFCURVE",
"1768 1812 CURVE",
"1868 1996 LINE",
"1704 2112 OFFCURVE",
"1492 2104 OFFCURVE",
"1332 1928 CURVE SMOOTH",
"520 1032 LINE",
"496 1032 LINE",
"496 2048 LINE",
"248 2048 LINE",
"248 0 LINE"
);
}
);
width = 1892;
},
{
background = {
components = (
{
name = K;
transform = "{1, 0, 0, 1, 12, 0}";
}
);
};
guideLines = (
{
angle = 227.7472;
position = "{1144, 1740}";
},
{
angle = 227.9329;
position = "{1532, 1508}";
}
);
layerId = "5C20EF92-B63D-42A8-8878-93C2863E0093";
paths = (
{
closed = 1;
nodes = (
"688 0 LINE",
"688 436 LINE",
"936 692 LINE",
"1464 0 LINE",
"2128 0 LINE",
"1292 1088 LINE",
"1708 1508 LINE SMOOTH",
"1794 1594 OFFCURVE",
"1852 1644 OFFCURVE",
"1980 1584 CURVE",
"2144 1972 LINE",
"1824 2148 OFFCURVE",
"1540 2092 OFFCURVE",
"1296 1844 CURVE SMOOTH",
"716 1256 LINE",
"688 1256 LINE",
"688 2048 LINE",
"132 2048 LINE",
"132 0 LINE"
);
}
);
width = 2160;
},
{
layerId = "B1F27B51-9973-4381-9301-4FE46FE1CA59";
paths = (
{
closed = 1;
nodes = (
"380 0 LINE",
"380 800 LINE",
"644 1108 LINE",
"1464 0 LINE",
"1548 0 LINE",
"672 1148 LINE",
"1356 1900 LINE SMOOTH",
"1468 2023 OFFCURVE",
"1577 2002 OFFCURVE",
"1640 1948 CURVE",
"1704 2012 LINE",
"1632 2090 OFFCURVE",
"1463 2111 OFFCURVE",
"1356 1980 CURVE SMOOTH",
"404 900 LINE",
"380 900 LINE",
"380 2048 LINE",
"320 2048 LINE",
"320 0 LINE"
);
}
);
width = 1731;
},
{
layerId = "DB1B210E-75C3-45F4-95FF-BB3F4FD26361";
width = 600;
},
{
layerId = "244DDCDD-91CB-4447-98B0-DDFA97A87342";
width = 600;
},
{
layerId = "5F6731B1-FB4A-4A0D-82A2-13F618D6D6C6";
width = 600;
}
);
leftKerningGroup = B;
rightKerningGroup = K;
unicode = 0198;
userData = {
com.typemytype.robofont.guideline.magnetic.39qH0NXtzo = 5;
com.typemytype.robofont.guideline.magnetic.tBAYMBoO6i = 5;
interface.gridadjust.original = "{'width': 1764, 'leftMargin': 228, 'rightMargin': -13}";
"interface.width-adjustments" = (
-16
);
};
},
{
color = (219,235,247,1);
glyphname = L;
lastChange = "2019-07-05 21:12:23 +0000";
layers = (
{
anchors = (
{
name = bottom;
position = "{848, 0}";
},
{
name = cross;
position = "{372, 1056}";
},
{
name = dot;
position = "{832, 1092}";
},
{
name = raccent;
position = "{844, 2048}";
},
{
name = top;
position = "{372, 2304}";
}
);
guideLines = (
{
angle = 90;
position = "{372, 1944}";
},
{
angle = 90;
position = "{848, -100}";
}
);
layerId = "C698F293-3EC0-4A5A-A3A0-0FDB1F5CF265";
paths = (
{
closed = 1;
nodes = (
"1448 0 LINE",
"1448 220 LINE",
"496 220 LINE",
"496 2048 LINE",
"248 2048 LINE",
"248 0 LINE"
);
}
);
width = 1584;
},
{
anchors = (
{
name = bottom;
position = "{824, 0}";
},
{
name = cross;
position = "{408, 1084}";
},
{
name = dot;
position = "{832, 1200}";
},
{
name = raccent;
position = "{968, 2048}";
},
{
name = top;
position = "{404, 2304}";
}
);
guideLines = (
{
position = "{12, 1304}";
},
{
angle = 90;
position = "{824, 584}";
},
{
position = "{988, -416}";
}
);
layerId = "5C20EF92-B63D-42A8-8878-93C2863E0093";
paths = (
{
closed = 1;
nodes = (
"1516 0 LINE",
"1516 448 LINE",
"688 448 LINE",
"688 2048 LINE",
"132 2048 LINE",
"132 0 LINE"
);
}
);
width = 1608;
},
{
anchors = (
{
name = bottom;
position = "{864, 0}";
},
{
name = cross;
position = "{352, 1056}";
},
{
name = dot;
position = "{832, 1028}";
},
{
name = raccent;
position = "{860, 2048}";
},
{
name = top;
position = "{352, 2304}";
}
);
guideLines = (
{
angle = 90;
position = "{864, 2088}";
},
{
angle = 90;
position = "{352, 1932}";
}
);
layerId = "B1F27B51-9973-4381-9301-4FE46FE1CA59";
paths = (
{
closed = 1;
nodes = (
"1408 0 LINE",
"1408 64 LINE",
"384 64 LINE",
"384 2048 LINE",
"320 2048 LINE",
"320 0 LINE"
);
}
);
width = 1584;
},
{
layerId = "DB1B210E-75C3-45F4-95FF-BB3F4FD26361";
width = 600;
},
{
layerId = "244DDCDD-91CB-4447-98B0-DDFA97A87342";
width = 600;
},
{
layerId = "5F6731B1-FB4A-4A0D-82A2-13F618D6D6C6";
width = 600;
}
);
leftKerningGroup = B;
leftMetricsKey = H;
rightKerningGroup = L;
unicode = 004C;
userData = {
"interface.width-adjustments" = (
-16
);
};
},
{
glyphname = Lslash;
lastChange = "2019-07-05 21:12:23 +0000";
layers = (
{
components = (
{
name = L;
}
);
layerId = "C698F293-3EC0-4A5A-A3A0-0FDB1F5CF265";
paths = (
{
closed = 1;
nodes = (
"60 1024 LINE",
"60 844 LINE",
"872 1100 LINE",
"872 1280 LINE"
);
}
);
width = 1584;
},
{
components = (
{
name = L;
transform = "{1, 0, 0, 1, 144, 0}";
}
);
layerId = "5C20EF92-B63D-42A8-8878-93C2863E0093";
paths = (
{
closed = 1;
nodes = (
"28 1092 LINE",
"28 820 LINE",
"1032 1076 LINE",
"1032 1352 LINE"
);
}
);
width = 1692;
},
{
components = (
{
alignment = -1;
name = L;
transform = "{1, 0, 0, 1, -88, 0}";
}
);
layerId = "B1F27B51-9973-4381-9301-4FE46FE1CA59";
paths = (
{
closed = 1;
nodes = (
"80 984 LINE",
"80 860 LINE",
"776 1116 LINE",
"776 1236 LINE"
);
}
);
width = 1519;
},
{
layerId = "DB1B210E-75C3-45F4-95FF-BB3F4FD26361";
width = 600;
},
{
layerId = "244DDCDD-91CB-4447-98B0-DDFA97A87342";
width = 600;
},
{
layerId = "5F6731B1-FB4A-4A0D-82A2-13F618D6D6C6";
width = 600;
}
);
leftKerningGroup = B;
rightKerningGroup = L;
unicode = 0141;
userData = {
interface.gridadjust.original = "{'width': 1524, 'leftMargin': 52, 'rightMargin': 104}";
"interface.width-adjustments" = (
-16
);
};
},
{
color = (219,235,247,1);
glyphname = M;
lastChange = "2019-07-05 21:12:23 +0000";
layers = (
{
anchors = (
{
name = bottom;
position = "{1252, 0}";
},
{
name = right;
position = "{2256, 0}";
},
{
name = top;
position = "{1252, 2304}";
}
);
guideLines = (
{
alignment = center;
angle = 90;
position = "{1224, 152}";
},
{
angle = 90;
position = "{516, 2056}";
},
{
angle = 90;
position = "{1932, 2060}";
}
);
layerId = "C698F293-3EC0-4A5A-A3A0-0FDB1F5CF265";
paths = (
{
closed = 1;
nodes = (
"248 0 LINE",
"480 0 LINE",
"480 1556 LINE",
"500 1556 LINE",
"1140 0 LINE",
"1364 0 LINE",
"2004 1556 LINE",
"2024 1556 LINE",
"2024 0 LINE",
"2256 0 LINE",
"2256 2048 LINE",
"1960 2048 LINE",
"1264 348 LINE",
"1240 348 LINE",
"544 2048 LINE",
"248 2048 LINE"
);
}
);
width = 2504;
},
{
anchors = (
{
name = bottom;
position = "{1312, 0}";
},
{
name = right;
position = "{2492, 0}";
},
{
name = top;
position = "{1312, 2304}";
}
);
guideLines = (
{
position = "{188, 1220}";
},
{
alignment = center;
angle = 90;
position = "{1088, 2164}";
}
);
layerId = "5C20EF92-B63D-42A8-8878-93C2863E0093";
paths = (
{
closed = 1;
nodes = (
"132 0 LINE",
"676 0 LINE",
"676 1192 LINE",
"692 1192 LINE",
"1148 16 LINE",
"1476 16 LINE",
"1932 1184 LINE",
"1948 1184 LINE",
"1948 0 LINE",
"2492 0 LINE",
"2492 2048 LINE",
"1800 2048 LINE",
"1324 888 LINE",
"1300 888 LINE",
"824 2048 LINE",
"132 2048 LINE"
);
}
);
width = 2624;
},
{
anchors = (
{
name = bottom;
position = "{1372, 4}";
},
{
name = bottom_dd;
position = "{2696, -560}";
},
{
name = right;
position = "{2544, 0}";
},
{
name = top;
position = "{1372, 2180}";
},
{
name = top0315;
position = "{2696, 2200}";
},
{
name = top_dd;
position = "{2696, 2200}";
}
);
associatedMasterId = "5C20EF92-B63D-42A8-8878-93C2863E0093";
guideLines = (
{
position = "{188, 1220}";
},
{
angle = 90;
position = "{1572, 1848}";
},
{
angle = 90;
position = "{1088, 2164}";
},
{
angle = 90;
position = "{2140, 2040}";
}
);
layerId = "75B701FF-9FEA-46EA-B4EE-AB55E07CEDFA";
name = "Oct 6 18, 13:17";
paths = (
{
closed = 1;
nodes = (
"132 0 LINE",
"692 0 LINE",
"692 1260 LINE",
"708 1260 LINE",
"1196 40 LINE",
"1548 40 LINE",
"2036 1252 LINE",
"2052 1252 LINE",
"2052 0 LINE",
"2612 0 LINE",
"2612 2048 LINE",
"1880 2048 LINE",
"1384 880 LINE",
"1360 880 LINE",
"864 2048 LINE",
"132 2048 LINE"
);
}
);
width = 2744;
},
{
anchors = (
{
name = bottom;
position = "{1216, 0}";
},
{
name = right;
position = "{2112, 0}";
},
{
name = top;
position = "{1216, 2304}";
}
);
layerId = "B1F27B51-9973-4381-9301-4FE46FE1CA59";
paths = (
{
closed = 1;
nodes = (
"320 0 LINE",
"384 0 LINE",
"384 1848 LINE",
"392 1848 LINE",
"1184 0 LINE",
"1248 0 LINE",
"2040 1848 LINE",
"2048 1848 LINE",
"2048 0 LINE",
"2112 0 LINE",
"2112 2048 LINE",
"2056 2048 LINE",
"1220 96 LINE",
"1212 96 LINE",
"376 2048 LINE",
"320 2048 LINE"
);
}
);
width = 2432;
},
{
layerId = "DB1B210E-75C3-45F4-95FF-BB3F4FD26361";
width = 600;
},
{
layerId = "244DDCDD-91CB-4447-98B0-DDFA97A87342";
width = 600;
},
{
layerId = "5F6731B1-FB4A-4A0D-82A2-13F618D6D6C6";
width = 600;
}
);
leftKerningGroup = B;
leftMetricsKey = H;
rightKerningGroup = H;
rightMetricsKey = H;
unicode = 004D;
userData = {
com.typemytype.robofont.guideline.magnetic.ezYETy42tZ = 5;
com.typemytype.robofont.guideline.magnetic.wu5HJlZVk6 = 5;
com.typemytype.robofont.guideline.magnetic.x5YoYrsuLC = 5;
"interface.width-adjustments" = (
-16
);
};
},
{
color = (219,235,247,1);
glyphname = N;
lastChange = "2019-07-05 21:12:23 +0000";
layers = (
{
anchors = (
{
name = bottom;
position = "{1060, 0}";
},
{
name = right;
position = "{1868, 0}";
},
{
name = top;
position = "{1060, 2304}";
}
);
layerId = "C698F293-3EC0-4A5A-A3A0-0FDB1F5CF265";
paths = (
{
closed = 1;
nodes = (
"1628 2048 LINE",
"1628 436 LINE",
"1608 436 LINE",
"488 2048 LINE",
"248 2048 LINE",
"248 0 LINE",
"496 0 LINE",
"496 1608 LINE",
"516 1608 LINE",
"1632 0 LINE",
"1872 0 LINE",
"1872 2048 LINE"
);
}
);
width = 2120;
},
{
anchors = (
{
name = bottom;
position = "{1020, 0}";
},
{
name = right;
position = "{2000, 0}";
},
{
name = top;
position = "{1020, 2304}";
}
);
guideLines = (
{
position = "{12, 1652}";
},
{
alignment = center;
angle = 90;
position = "{900, 240}";
}
);
layerId = "5C20EF92-B63D-42A8-8878-93C2863E0093";
paths = (
{
closed = 1;
nodes = (
"1348 2048 LINE",
"1348 976 LINE",
"1332 976 LINE",
"604 2048 LINE",
"132 2048 LINE",
"132 0 LINE",
"688 0 LINE",
"688 1076 LINE",
"700 1076 LINE",
"1440 0 LINE",
"1904 0 LINE",
"1904 2048 LINE"
);
}
);
width = 2036;
},
{
anchors = (
{
name = bottom;
position = "{1020, 0}";
},
{
name = bottom_dd;
position = "{2152, -560}";
},
{
name = right;
position = "{2000, 0}";
},
{
name = top;
position = "{1020, 2180}";
},
{
name = top0315;
position = "{2152, 2200}";
},
{
name = top_dd;
position = "{2152, 2200}";
}
);
associatedMasterId = "5C20EF92-B63D-42A8-8878-93C2863E0093";
guideLines = (
{
position = "{12, 1652}";
},
{
alignment = center;
angle = 90;
position = "{900, 240}";
}
);
layerId = "F81B89FA-28D8-48B6-8D66-9AD40CA032B3";
name = "Oct 6 18, 13:13";
paths = (
{
closed = 1;
nodes = (
"1348 2048 LINE",
"1348 928 LINE",
"1332 928 LINE",
"684 2048 LINE",
"132 2048 LINE",
"132 0 LINE",
"688 0 LINE",
"688 1124 LINE",
"700 1124 LINE",
"1360 0 LINE",
"1904 0 LINE",
"1904 2048 LINE"
);
}
);
width = 2036;
},
{
anchors = (
{
name = bottom;
position = "{1040, 0}";
},
{
name = right;
position = "{1828, 0}";
},
{
name = top;
position = "{1040, 2304}";
}
);
associatedMasterId = "C698F293-3EC0-4A5A-A3A0-0FDB1F5CF265";
guideLines = (
{
alignment = center;
angle = 90;
position = "{1116, 284}";
}
);
layerId = "CDCA1FA0-CAD8-4C14-B3A1-3337A4674D3F";
name = "Oct 7 18, 22:28";
paths = (
{
closed = 1;
nodes = (
"1588 2048 LINE",
"1588 436 LINE",
"1568 436 LINE",
"488 2048 LINE",
"248 2048 LINE",
"248 0 LINE",
"496 0 LINE",
"496 1604 LINE",
"516 1604 LINE",
"1592 0 LINE",
"1832 0 LINE",
"1832 2048 LINE"
);
}
);
width = 2080;
},
{
anchors = (
{
name = bottom;
position = "{1088, 0}";
},
{
name = right;
position = "{1788, 0}";
},
{
name = top;
position = "{1088, 2304}";
}
);
layerId = "B1F27B51-9973-4381-9301-4FE46FE1CA59";
paths = (
{
closed = 1;
nodes = (
"1792 2048 LINE",
"1792 120 LINE",
"1784 120 LINE",
"384 2048 LINE",
"320 2048 LINE",
"320 0 LINE",
"384 0 LINE",
"384 1928 LINE",
"392 1928 LINE",
"1792 0 LINE",
"1856 0 LINE",
"1856 2048 LINE"
);
}
);
width = 2176;
},
{
layerId = "DB1B210E-75C3-45F4-95FF-BB3F4FD26361";
width = 600;
},
{
layerId = "244DDCDD-91CB-4447-98B0-DDFA97A87342";
width = 600;
},
{
layerId = "5F6731B1-FB4A-4A0D-82A2-13F618D6D6C6";
width = 600;
}
);
leftKerningGroup = B;
leftMetricsKey = H;
rightKerningGroup = H;
rightMetricsKey = H;
unicode = 004E;
userData = {
"interface.width-adjustments" = (
-16
);
};
},
{
glyphname = Nhook;
lastChange = "2019-07-05 21:12:23 +0000";
layers = (
{
components = (
{
name = N;
transform = "{1, 0, 0, 1, 12, 0}";
}
);
layerId = "C698F293-3EC0-4A5A-A3A0-0FDB1F5CF265";
paths = (
{
closed = 1;
nodes = (
"260 -160 LINE SMOOTH",
"260 -320 OFFCURVE",
"168 -368 OFFCURVE",
"40 -368 CURVE SMOOTH",
"12 -368 OFFCURVE",
"-16 -364 OFFCURVE",
"-36 -360 CURVE",
"-36 -564 LINE",
"0 -576 OFFCURVE",
"52 -576 OFFCURVE",
"100 -576 CURVE SMOOTH",
"324 -576 OFFCURVE",
"508 -428 OFFCURVE",
"508 -164 CURVE SMOOTH",
"508 0 LINE",
"260 0 LINE"
);
}
);
width = 2132;
},
{
components = (
{
name = N;
transform = "{1, 0, 0, 1, 72, 0}";
}
);
layerId = "5C20EF92-B63D-42A8-8878-93C2863E0093";
paths = (
{
closed = 1;
nodes = (
"204 -48 LINE SMOOTH",
"204 -140 OFFCURVE",
"98 -160 OFFCURVE",
"-4 -160 CURVE",
"-26 -160 OFFCURVE",
"-66 -164 OFFCURVE",
"-96 -160 CURVE",
"-96 -568 LINE",
"-38 -576 OFFCURVE",
"90 -576 OFFCURVE",
"144 -576 CURVE",
"434 -576 OFFCURVE",
"760 -532 OFFCURVE",
"760 -48 CURVE SMOOTH",
"760 0 LINE",
"204 0 LINE"
);
}
);
width = 2108;
},
{
components = (
{
alignment = -1;
name = N;
transform = "{1, 0, 0, 1, -64, 0}";
}
);
layerId = "B1F27B51-9973-4381-9301-4FE46FE1CA59";
paths = (
{
closed = 1;
nodes = (
"252 -228 LINE SMOOTH",
"251 -428 OFFCURVE",
"168 -493 OFFCURVE",
"24 -492 CURVE",
"-8 -493 OFFCURVE",
"-28 -484 OFFCURVE",
"-40 -480 CURVE",
"-40 -564 LINE",
"-20 -576 OFFCURVE",
"-13 -576 OFFCURVE",
"32 -576 CURVE",
"216 -576 OFFCURVE",
"314 -366 OFFCURVE",
"316 -236 CURVE SMOOTH",
"316 0 LINE",
"252 0 LINE"
);
}
);
width = 2112;
},
{
layerId = "DB1B210E-75C3-45F4-95FF-BB3F4FD26361";
width = 600;
},
{
layerId = "244DDCDD-91CB-4447-98B0-DDFA97A87342";
width = 600;
},
{
layerId = "5F6731B1-FB4A-4A0D-82A2-13F618D6D6C6";
width = 600;
}
);
leftKerningGroup = jdotless;
leftMetricsKey = j;
rightKerningGroup = H;
rightMetricsKey = H;
unicode = 019D;
userData = {
interface.gridadjust.original = "{'width': 2104, 'leftMargin': 0, 'rightMargin': 218}";
"interface.width-adjustments" = (
-16
);
};
},
{
glyphname = Eng;
lastChange = "2019-07-05 21:12:23 +0000";
layers = (
{
components = (
{
name = N;
}
);
layerId = "C698F293-3EC0-4A5A-A3A0-0FDB1F5CF265";
paths = (
{
closed = 1;
nodes = (
"1632 -160 LINE SMOOTH",
"1632 -320 OFFCURVE",
"1532 -368 OFFCURVE",
"1404 -368 CURVE SMOOTH",
"1376 -368 OFFCURVE",
"1348 -364 OFFCURVE",
"1328 -360 CURVE",
"1328 -564 LINE",
"1364 -576 OFFCURVE",
"1416 -576 OFFCURVE",
"1464 -576 CURVE SMOOTH",
"1688 -576 OFFCURVE",
"1872 -428 OFFCURVE",
"1872 -164 CURVE SMOOTH",
"1872 0 LINE",
"1632 0 LINE"
);
}
);
width = 2120;
},
{
components = (
{
name = N;
}
);
layerId = "5C20EF92-B63D-42A8-8878-93C2863E0093";
paths = (
{
closed = 1;
nodes = (
"1440 -40 LINE SMOOTH",
"1440 -152 OFFCURVE",
"1349 -220 OFFCURVE",
"1200 -220 CURVE SMOOTH",
"1131 -220 OFFCURVE",
"1057 -212 OFFCURVE",
"1004 -200 CURVE",
"1004 -600 LINE",
"1058 -617 OFFCURVE",
"1122 -628 OFFCURVE",
"1172 -628 CURVE SMOOTH",
"1627 -628 OFFCURVE",
"1904 -501 OFFCURVE",
"1904 -28 CURVE SMOOTH",
"1904 0 LINE",
"1440 0 LINE {name = hr00;}"
);
}
);
width = 2036;
},
{
components = (
{
alignment = -1;
name = N;
}
);
layerId = "B1F27B51-9973-4381-9301-4FE46FE1CA59";
paths = (
{
closed = 1;
nodes = (
"1748 -232 LINE SMOOTH",
"1747 -421 OFFCURVE",
"1642 -457 OFFCURVE",
"1528 -456 CURVE SMOOTH",
"1523 -457 OFFCURVE",
"1523 -455 OFFCURVE",
"1524 -456 CURVE",
"1524 -544 LINE",
"1548 -551 OFFCURVE",
"1592 -545 OFFCURVE",
"1640 -544 CURVE SMOOTH",
"1725 -545 OFFCURVE",
"1853 -384 OFFCURVE",
"1852 -248 CURVE SMOOTH",
"1852 0 LINE",
"1748 0 LINE {name = hr00;}"
);
}
);
width = 2176;
},
{
layerId = "DB1B210E-75C3-45F4-95FF-BB3F4FD26361";
width = 600;
},
{
layerId = "244DDCDD-91CB-4447-98B0-DDFA97A87342";
width = 600;
},
{
layerId = "5F6731B1-FB4A-4A0D-82A2-13F618D6D6C6";
width = 600;
}
);
leftKerningGroup = B;
leftMetricsKey = N;
rightKerningGroup = H;
rightMetricsKey = N;
unicode = 014A;
userData = {
interface.gridadjust.original = "{'width': 1947.0, 'leftMargin': 217, 'rightMargin': 205.0}";
"interface.width-adjustments" = (
-16
);
};
},
{
color = (219,235,247,1);
glyphname = O;
lastChange = "2019-07-05 20:43:44 +0000";
layers = (
{
anchors = (
{
name = bottom;
position = "{1072, 0}";
},
{
name = ogonek;
position = "{1268, -8}";
},
{
name = tonos;
position = "{272, 2048}";
},
{
name = top;
position = "{1072, 2304}";
}
);
guideLines = (
{
angle = 90;
position = "{1072, 1652}";
}
);
layerId = "C698F293-3EC0-4A5A-A3A0-0FDB1F5CF265";
paths = (
{
closed = 1;
nodes = (
"1976 1672 OFFCURVE",
"1596 2076 OFFCURVE",
"1072 2076 CURVE SMOOTH",
"548 2076 OFFCURVE",
"168 1672 OFFCURVE",
"168 1024 CURVE",
"168 376 OFFCURVE",
"548 -28 OFFCURVE",
"1072 -28 CURVE SMOOTH",
"1596 -28 OFFCURVE",
"1976 376 OFFCURVE",
"1976 1024 CURVE"
);
},
{
closed = 1;
nodes = (
"1736 492 OFFCURVE",
"1444 204 OFFCURVE",
"1072 204 CURVE SMOOTH",
"700 204 OFFCURVE",
"408 492 OFFCURVE",
"408 1024 CURVE",
"408 1556 OFFCURVE",
"700 1844 OFFCURVE",
"1072 1844 CURVE SMOOTH",
"1444 1844 OFFCURVE",
"1736 1556 OFFCURVE",
"1736 1024 CURVE"
);
}
);
width = 2144;
},
{
anchors = (
{
name = bottom;
position = "{1120, 0}";
},
{
name = ogonek;
position = "{1404, 8}";
},
{
name = tonos;
position = "{236, 2048}";
},
{
name = top;
position = "{1120, 2304}";
}
);
guideLines = (
{
alignment = center;
angle = 90;
position = "{1284, 940}";
}
);
layerId = "5C20EF92-B63D-42A8-8878-93C2863E0093";
paths = (
{
closed = 1;
nodes = (
"2116 1708 OFFCURVE",
"1676 2076 OFFCURVE",
"1120 2076 CURVE SMOOTH",
"560 2076 OFFCURVE",
"124 1708 OFFCURVE",
"124 1024 CURVE SMOOTH",
"124 344 OFFCURVE",
"560 -28 OFFCURVE",
"1120 -28 CURVE SMOOTH",
"1676 -28 OFFCURVE",
"2116 340 OFFCURVE",
"2116 1024 CURVE SMOOTH"
);
},
{
closed = 1;
nodes = (
"1544 656 OFFCURVE",
"1396 456 OFFCURVE",
"1120 456 CURVE SMOOTH",
"844 456 OFFCURVE",
"696 656 OFFCURVE",
"696 1024 CURVE SMOOTH",
"696 1392 OFFCURVE",
"844 1592 OFFCURVE",
"1120 1592 CURVE SMOOTH",
"1396 1592 OFFCURVE",
"1544 1392 OFFCURVE",
"1544 1024 CURVE SMOOTH"
);
}
);
width = 2240;
},
{
anchors = (
{
name = bottom;
position = "{1052, 0}";
},
{
name = ogonek;
position = "{1196, -20}";
},
{
name = tonos;
position = "{304, 2048}";
},
{
name = top;
position = "{1052, 2304}";
}
);
layerId = "B1F27B51-9973-4381-9301-4FE46FE1CA59";
paths = (
{
closed = 1;
nodes = (
"1900 1650 OFFCURVE",
"1556 2076 OFFCURVE",
"1052 2076 CURVE SMOOTH",
"547 2076 OFFCURVE",
"204 1649 OFFCURVE",
"204 1024 CURVE SMOOTH",
"204 400 OFFCURVE",
"546 -28 OFFCURVE",
"1052 -28 CURVE SMOOTH",
"1556 -28 OFFCURVE",
"1900 398 OFFCURVE",
"1900 1024 CURVE SMOOTH"
);
},
{
closed = 1;
nodes = (
"1837 436 OFFCURVE",
"1518 36 OFFCURVE",
"1052 36 CURVE SMOOTH",
"581 36 OFFCURVE",
"268 440 OFFCURVE",
"268 1024 CURVE SMOOTH",
"268 1616 OFFCURVE",
"588 2012 OFFCURVE",
"1052 2012 CURVE SMOOTH",
"1518 2012 OFFCURVE",
"1835 1612 OFFCURVE",
"1836 1024 CURVE SMOOTH"
);
}
);
width = 2104;
},
{
layerId = "DB1B210E-75C3-45F4-95FF-BB3F4FD26361";
width = 600;
},
{
layerId = "5F6731B1-FB4A-4A0D-82A2-13F618D6D6C6";
width = 600;
},
{
layerId = "244DDCDD-91CB-4447-98B0-DDFA97A87342";
width = 600;
}
);
leftKerningGroup = C;
rightKerningGroup = D;
unicode = 004F;
userData = {
com.typemytype.robofont.guideline.magnetic.GU6fgH972W = 5;
"interface.width-adjustments" = (
-16
);
};
},
{
glyphname = Oslash;
lastChange = "2019-07-05 21:12:23 +0000";
layers = (
{
components = (
{
name = O;
}
);
guideLines = (
{
angle = 145.6539;
position = "{396, -96}";
},
{
angle = 90;
position = "{1016, 1852}";
},
{
angle = 56.0077;
position = "{1016, 1024}";
}
);
layerId = "C698F293-3EC0-4A5A-A3A0-0FDB1F5CF265";
paths = (
{
closed = 1;
nodes = (
"1856 2024 LINE",
"1704 2128 LINE",
"280 20 LINE",
"432 -84 LINE"
);
}
);
width = 2144;
},
{
components = (
{
name = O;
}
);
guideLines = (
{
angle = 90;
position = "{1024, 1588}";
},
{
position = "{1292, 1024}";
},
{
angle = 55.9722;
position = "{1024, 1024}";
}
);
layerId = "5C20EF92-B63D-42A8-8878-93C2863E0093";
paths = (
{
closed = 1;
nodes = (
"1980 2000 LINE",
"1756 2152 LINE",
"260 44 LINE",
"484 -108 LINE"
);
}
);
width = 2240;
},
{
components = (
{
alignment = -1;
name = O;
}
);
layerId = "B1F27B51-9973-4381-9301-4FE46FE1CA59";
paths = (
{
closed = 1;
nodes = (
"1768 2060 LINE",
"1716 2096 LINE",
"336 -12 LINE",
"388 -48 LINE"
);
}
);
width = 2104;
},
{
layerId = "DB1B210E-75C3-45F4-95FF-BB3F4FD26361";
width = 600;
},
{
layerId = "244DDCDD-91CB-4447-98B0-DDFA97A87342";
width = 600;
},
{
layerId = "5F6731B1-FB4A-4A0D-82A2-13F618D6D6C6";
width = 600;
}
);
leftKerningGroup = C;
leftMetricsKey = O;
rightKerningGroup = D;
rightMetricsKey = O;
unicode = 00D8;
userData = {
com.typemytype.robofont.guideline.magnetic.7eFhkhwEhv = 5;
com.typemytype.robofont.guideline.magnetic.bDBaZ7HKjd = 5;
com.typemytype.robofont.guideline.magnetic.rquz9RFtyk = 5;
"interface.width-adjustments" = (
-16
);
};
},
{
glyphname = Ohorn;
lastChange = "2019-07-05 21:12:23 +0000";
layers = (
{
components = (
{
name = O;
}
);
layerId = "C698F293-3EC0-4A5A-A3A0-0FDB1F5CF265";
paths = (
{
closed = 1;
nodes = (
"1904 1964 OFFCURVE",
"1812 1828 OFFCURVE",
"1604 1828 CURVE",
"1604 1632 LINE",
"1960 1632 OFFCURVE",
"2140 1836 OFFCURVE",
"2140 2196 CURVE",
"1904 2196 LINE"
);
}
);
width = 2180;
},
{
components = (
{
name = O;
}
);
guideLines = (
{
angle = 90;
position = "{1024, 1568}";
}
);
layerId = "5C20EF92-B63D-42A8-8878-93C2863E0093";
paths = (
{
closed = 1;
nodes = (
"2032 1856 OFFCURVE",
"1992 1704 OFFCURVE",
"1808 1704 CURVE",
"1808 1468 LINE",
"2180 1468 OFFCURVE",
"2332 1708 OFFCURVE",
"2332 2116 CURVE",
"2032 2116 LINE"
);
}
);
width = 2364;
},
{
components = (
{
alignment = -1;
name = O;
}
);
layerId = "B1F27B51-9973-4381-9301-4FE46FE1CA59";
paths = (
{
closed = 1;
nodes = (
"1827 2029 OFFCURVE",
"1704 1902 OFFCURVE",
"1484 1904 CURVE",
"1484 1732 LINE",
"1828 1730 OFFCURVE",
"2025 1913 OFFCURVE",
"2024 2244 CURVE",
"1828 2244 LINE"
);
}
);
width = 2070;
},
{
layerId = "DB1B210E-75C3-45F4-95FF-BB3F4FD26361";
width = 600;
},
{
layerId = "244DDCDD-91CB-4447-98B0-DDFA97A87342";
width = 600;
},
{
layerId = "5F6731B1-FB4A-4A0D-82A2-13F618D6D6C6";
width = 600;
}
);
leftKerningGroup = C;
leftMetricsKey = O;
rightKerningGroup = D;
unicode = 01A0;
userData = {
interface.gridadjust.original = "{'width': 1928, 'leftMargin': 226, 'rightMargin': -45}";
"interface.width-adjustments" = (
-16
);
};
},
{
glyphname = OE;
lastChange = "2019-07-05 21:12:23 +0000";
layers = (
{
components = (
{
name = E;
transform = "{1, 0, 0, 1, 1000, 0}";
}
);
layerId = "C698F293-3EC0-4A5A-A3A0-0FDB1F5CF265";
paths = (
{
closed = 1;
nodes = (
"1348 0 LINE",
"1348 220 LINE",
"1072 220 LINE SMOOTH",
"676 220 OFFCURVE",
"408 544 OFFCURVE",
"408 1024 CURVE SMOOTH",
"408 1508 OFFCURVE",
"676 1828 OFFCURVE",
"1072 1828 CURVE SMOOTH",
"1348 1828 LINE",
"1348 2048 LINE",
"1072 2048 LINE SMOOTH",
"532 2048 OFFCURVE",
"168 1640 OFFCURVE",
"168 1024 CURVE SMOOTH",
"168 412 OFFCURVE",
"532 0 OFFCURVE",
"1072 0 CURVE SMOOTH"
);
}
);
width = 2684;
},
{
components = (
{
name = E;
transform = "{1, 0, 0, 1, 1236, 0}";
}
);
layerId = "5C20EF92-B63D-42A8-8878-93C2863E0093";
paths = (
{
closed = 1;
nodes = (
"1576 0 LINE",
"1576 448 LINE",
"1072 448 LINE",
"851 448 OFFCURVE",
"687 568 OFFCURVE",
"688 1020 CURVE",
"687 1468 OFFCURVE",
"851 1600 OFFCURVE",
"1072 1600 CURVE",
"1576 1600 LINE",
"1576 2048 LINE",
"1072 2048 LINE",
"543 2048 OFFCURVE",
"123 1720 OFFCURVE",
"124 1020 CURVE",
"123 324 OFFCURVE",
"543 0 OFFCURVE",
"1072 0 CURVE"
);
}
);
width = 2988;
},
{
components = (
{
alignment = -1;
name = E;
transform = "{1, 0, 0, 1, 952, 0}";
}
);
layerId = "B1F27B51-9973-4381-9301-4FE46FE1CA59";
paths = (
{
closed = 1;
nodes = (
"1304 0 LINE",
"1304 64 LINE",
"1052 64 LINE SMOOTH",
"581 64 OFFCURVE",
"268 456 OFFCURVE",
"268 1024 CURVE SMOOTH",
"268 1600 OFFCURVE",
"588 1986 OFFCURVE",
"1052 1984 CURVE SMOOTH",
"1304 1984 LINE",
"1304 2048 LINE",
"1052 2048 LINE SMOOTH",
"547 2048 OFFCURVE",
"204 1633 OFFCURVE",
"204 1024 CURVE SMOOTH",
"204 416 OFFCURVE",
"546 0 OFFCURVE",
"1052 0 CURVE SMOOTH"
);
}
);
width = 2596;
},
{
layerId = "DB1B210E-75C3-45F4-95FF-BB3F4FD26361";
width = 600;
},
{
layerId = "244DDCDD-91CB-4447-98B0-DDFA97A87342";
width = 600;
},
{
layerId = "5F6731B1-FB4A-4A0D-82A2-13F618D6D6C6";
width = 600;
}
);
leftKerningGroup = C;
leftMetricsKey = O;
note = "!post:RemoveOverlap";
rightKerningGroup = E;
rightMetricsKey = E;
unicode = 0152;
userData = {
interface.gridadjust.original = "{'width': 2698, 'leftMargin': 143, 'rightMargin': 191}";
"interface.width-adjustments" = (
-16
);
};
},
{
color = (219,235,247,1);
glyphname = P;
lastChange = "2019-07-05 21:12:23 +0000";
layers = (
{
anchors = (
{
name = tonos;
position = "{200, 2048}";
},
{
name = top;
position = "{892, 2304}";
}
);
guideLines = (
{
angle = 90;
position = "{1396, 1760}";
},
{
angle = 90;
position = "{1248, 1804}";
}
);
layerId = "C698F293-3EC0-4A5A-A3A0-0FDB1F5CF265";
paths = (
{
closed = 1;
nodes = (
"496 0 LINE",
"496 1828 LINE",
"932 1828 LINE SMOOTH",
"1265 1828 OFFCURVE",
"1392 1646 OFFCURVE",
"1392 1400 CURVE SMOOTH",
"1392 1154 OFFCURVE",
"1265 968 OFFCURVE",
"936 968 CURVE SMOOTH",
"448 968 LINE",
"448 748 LINE",
"944 748 LINE SMOOTH",
"1421 748 OFFCURVE",
"1636 1038 OFFCURVE",
"1636 1400 CURVE SMOOTH",
"1636 1762 OFFCURVE",
"1421 2048 OFFCURVE",
"940 2048 CURVE SMOOTH",
"248 2048 LINE",
"248 0 LINE"
);
}
);
width = 1788;
},
{
anchors = (
{
name = tonos;
position = "{104, 2048}";
},
{
name = top;
position = "{904, 2304}";
}
);
guideLines = (
{
position = "{12, 1240}";
},
{
position = "{12, 764}";
},
{
position = "{12, 1552}";
},
{
position = "{820, 1372}";
}
);
layerId = "5C20EF92-B63D-42A8-8878-93C2863E0093";
paths = (
{
closed = 1;
nodes = (
"688 0 LINE",
"688 1604 LINE",
"884 1604 LINE SMOOTH",
"1079 1604 OFFCURVE",
"1196 1500 OFFCURVE",
"1196 1324 CURVE SMOOTH",
"1196 1149 OFFCURVE",
"1079 1040 OFFCURVE",
"884 1040 CURVE SMOOTH",
"468 1040 LINE",
"468 608 LINE",
"996 608 LINE SMOOTH",
"1463 608 OFFCURVE",
"1776 883 OFFCURVE",
"1776 1324 CURVE SMOOTH",
"1776 1760 OFFCURVE",
"1471 2048 OFFCURVE",
"1016 2048 CURVE SMOOTH",
"132 2048 LINE",
"132 0 LINE"
);
}
);
width = 1848;
},
{
anchors = (
{
name = tonos;
position = "{260, 2048}";
},
{
name = top;
position = "{876, 2304}";
}
);
background = {
components = (
{
name = B;
}
);
};
layerId = "B1F27B51-9973-4381-9301-4FE46FE1CA59";
paths = (
{
closed = 1;
nodes = (
"384 0 LINE",
"384 1984 LINE",
"920 1984 LINE SMOOTH",
"1227 1984 OFFCURVE",
"1444 1762 OFFCURVE",
"1444 1448 CURVE SMOOTH",
"1444 1136 OFFCURVE",
"1227 916 OFFCURVE",
"920 916 CURVE SMOOTH",
"352 916 LINE",
"352 852 LINE",
"920 852 LINE SMOOTH",
"1264 852 OFFCURVE",
"1508 1099 OFFCURVE",
"1508 1448 CURVE SMOOTH",
"1508 1799 OFFCURVE",
"1264 2048 OFFCURVE",
"920 2048 CURVE SMOOTH",
"320 2048 LINE",
"320 0 LINE"
);
}
);
width = 1708;
},
{
layerId = "DB1B210E-75C3-45F4-95FF-BB3F4FD26361";
width = 600;
},
{
layerId = "244DDCDD-91CB-4447-98B0-DDFA97A87342";
width = 600;
},
{
layerId = "5F6731B1-FB4A-4A0D-82A2-13F618D6D6C6";
width = 600;
}
);
leftKerningGroup = B;
leftMetricsKey = H;
rightKerningGroup = P;
unicode = 0050;
userData = {
com.typemytype.robofont.guideline.magnetic.fNIC4eKo9v = 5;
com.typemytype.robofont.guideline.magnetic.hdLF6WxJ6g = 5;
"interface.width-adjustments" = (
-16
);
};
},
{
glyphname = uni048E;
lastChange = "2019-07-05 21:12:23 +0000";
layers = (
{
components = (
{
name = P;
}
);
layerId = "C698F293-3EC0-4A5A-A3A0-0FDB1F5CF265";
paths = (
{
closed = 1;
nodes = (
"952 1200 LINE",
"1368 560 LINE",
"1552 680 LINE",
"1136 1316 LINE"
);
}
);
width = 1788;
},
{
components = (
{
name = P;
transform = "{1, 0, 0, 1, 16, 0}";
}
);
layerId = "5C20EF92-B63D-42A8-8878-93C2863E0093";
paths = (
{
closed = 1;
nodes = (
"804 1248 LINE",
"1372 368 LINE",
"1552 484 LINE",
"984 1364 LINE"
);
}
);
width = 1912;
},
{
components = (
{
alignment = -1;
name = P;
transform = "{1, 0, 0, 1, -12, 0}";
}
);
layerId = "B1F27B51-9973-4381-9301-4FE46FE1CA59";
paths = (
{
closed = 1;
nodes = (
"1040 1172 LINE",
"1368 676 LINE",
"1552 800 LINE",
"1228 1288 LINE"
);
}
);
width = 1714;
},
{
layerId = "DB1B210E-75C3-45F4-95FF-BB3F4FD26361";
width = 600;
},
{
layerId = "244DDCDD-91CB-4447-98B0-DDFA97A87342";
width = 600;
},
{
layerId = "5F6731B1-FB4A-4A0D-82A2-13F618D6D6C6";
width = 600;
}
);
leftKerningGroup = B;
rightKerningGroup = P;
unicode = 048E;
userData = {
interface.gridadjust.original = "{'width': 1801, 'leftMargin': 256, 'rightMargin': 73}";
"interface.width-adjustments" = (
-16
);
};
},
{
glyphname = Phook;
lastChange = "2019-07-05 21:12:23 +0000";
layers = (
{
components = (
{
name = P;
transform = "{1, 0, 0, 1, 428, 0}";
}
);
layerId = "C698F293-3EC0-4A5A-A3A0-0FDB1F5CF265";
paths = (
{
closed = 1;
nodes = (
"368 1580 LINE SMOOTH",
"368 1708 OFFCURVE",
"388 1828 OFFCURVE",
"548 1828 CURVE SMOOTH",
"744 1828 LINE",
"744 2048 LINE",
"544 2048 LINE SMOOTH",
"280 2048 OFFCURVE",
"136 1864 OFFCURVE",
"136 1640 CURVE SMOOTH",
"136 1504 LINE",
"368 1504 LINE"
);
}
);
width = 2216;
},
{
components = (
{
name = P;
transform = "{1, 0, 0, 1, 680, 0}";
}
);
layerId = "5C20EF92-B63D-42A8-8878-93C2863E0093";
paths = (
{
closed = 1;
nodes = (
"564 1344 LINE SMOOTH",
"562 1464 OFFCURVE",
"610 1604 OFFCURVE",
"780 1604 CURVE SMOOTH",
"1144 1604 LINE {name = hr00;}",
"1144 2048 LINE",
"780 2048 LINE SMOOTH",
"350 2048 OFFCURVE",
"74 1828 OFFCURVE",
"76 1440 CURVE SMOOTH",
"76 1196 LINE",
"564 1196 LINE"
);
}
);
width = 2528;
},
{
components = (
{
alignment = -1;
name = P;
transform = "{1, 0, 0, 1, 164, 0}";
}
);
layerId = "B1F27B51-9973-4381-9301-4FE46FE1CA59";
paths = (
{
closed = 1;
nodes = (
"236 1760 LINE SMOOTH",
"236 1914 OFFCURVE",
"306 1984 OFFCURVE",
"460 1984 CURVE SMOOTH",
"516 1984 LINE",
"516 2048 LINE",
"460 2048 LINE SMOOTH",
"270 2048 OFFCURVE",
"172 1949 OFFCURVE",
"172 1760 CURVE SMOOTH",
"172 1728 LINE",
"236 1728 LINE"
);
}
);
width = 1916;
},
{
associatedMasterId = "B1F27B51-9973-4381-9301-4FE46FE1CA59";
background = {
paths = (
{
closed = 1;
nodes = (
"576 2048 LINE",
"476 2048 LINE SMOOTH",
"312 2048 OFFCURVE",
"244 1888 OFFCURVE",
"244 1760 CURVE SMOOTH",
"244 1688 LINE",
"308 1688 LINE",
"308 1804 LINE SMOOTH",
"308 1936 OFFCURVE",
"328 1984 OFFCURVE",
"484 1984 CURVE SMOOTH",
"576 1984 LINE {name = hr00;}"
);
}
);
};
components = (
{
alignment = -1;
name = P;
transform = "{1, 0, 0, 1, 224, 0}";
}
);
layerId = "EAD41403-23A7-4556-BD97-FF67B573FEAA";
name = "Nov 25 18, 15:04";
paths = (
{
closed = 0;
nodes = (
"576 2016 LINE",
"480 2016 LINE",
"308 2016 OFFCURVE",
"224 1932 OFFCURVE",
"224 1760 CURVE",
"224 1688 LINE"
);
}
);
width = 1940;
},
{
layerId = "DB1B210E-75C3-45F4-95FF-BB3F4FD26361";
width = 600;
},
{
layerId = "244DDCDD-91CB-4447-98B0-DDFA97A87342";
width = 600;
},
{
layerId = "5F6731B1-FB4A-4A0D-82A2-13F618D6D6C6";
width = 600;
}
);
leftKerningGroup = B;
leftMetricsKey = T;
note = "!post:RemoveOverlap";
rightKerningGroup = P;
rightMetricsKey = P;
unicode = 01A4;
userData = {
interface.gridadjust.original = "{'width': 2072, 'leftMargin': 41, 'rightMargin': 158}";
"interface.width-adjustments" = (
-16
);
};
},
{
color = (219,235,247,1);
glyphname = Q;
lastChange = "2019-07-05 21:12:23 +0000";
layers = (
{
components = (
{
name = O;
}
);
layerId = "C698F293-3EC0-4A5A-A3A0-0FDB1F5CF265";
paths = (
{
closed = 1;
nodes = (
"1340 184 LINE",
"1396 108 LINE",
"1620 -192 LINE",
"1892 -192 LINE",
"1552 260 LINE",
"1492 340 LINE",
"1264 640 LINE",
"992 640 LINE"
);
}
);
width = 2144;
},
{
components = (
{
name = O;
}
);
guideLines = (
{
angle = 90;
position = "{1024, 1432}";
}
);
layerId = "5C20EF92-B63D-42A8-8878-93C2863E0093";
paths = (
{
closed = 1;
nodes = (
"1220 368 LINE",
"1384 132 LINE",
"1628 -152 LINE",
"2120 -152 LINE",
"1776 264 LINE",
"1512 564 LINE",
"1356 760 LINE",
"924 760 LINE"
);
}
);
width = 2244;
},
{
components = (
{
alignment = -1;
name = O;
}
);
layerId = "B1F27B51-9973-4381-9301-4FE46FE1CA59";
paths = (
{
closed = 1;
nodes = (
"1488 168 LINE",
"1500 152 LINE",
"1760 -192 LINE",
"1840 -192 LINE",
"1556 184 LINE",
"1544 200 LINE",
"1212 640 LINE",
"1132 640 LINE"
);
}
);
width = 2104;
},
{
layerId = "DB1B210E-75C3-45F4-95FF-BB3F4FD26361";
width = 600;
},
{
layerId = "244DDCDD-91CB-4447-98B0-DDFA97A87342";
width = 600;
},
{
layerId = "5F6731B1-FB4A-4A0D-82A2-13F618D6D6C6";
width = 600;
}
);
leftKerningGroup = C;
leftMetricsKey = O;
rightKerningGroup = D;
rightMetricsKey = O;
unicode = 0051;
userData = {
"interface.width-adjustments" = (
-16
);
};
},
{
color = (219,235,247,1);
glyphname = R;
lastChange = "2019-07-05 20:59:20 +0000";
layers = (
{
anchors = (
{
name = bottom;
position = "{924, 0}";
},
{
name = top;
position = "{888, 2304}";
}
);
background = {
paths = (
{
closed = 1;
nodes = (
"496 0 LINE",
"496 1828 LINE",
"972 1828 LINE SMOOTH",
"1244 1828 OFFCURVE",
"1392 1676 OFFCURVE",
"1392 1420 CURVE SMOOTH",
"1392 1176 OFFCURVE",
"1252 1024 OFFCURVE",
"944 1024 CURVE SMOOTH",
"400 1024 LINE",
"400 800 LINE",
"996 800 LINE",
"1428 0 LINE",
"1716 0 LINE",
"1252 848 LINE",
"1512 944 OFFCURVE",
"1636 1160 OFFCURVE",
"1636 1424 CURVE SMOOTH",
"1636 1792 OFFCURVE",
"1396 2048 OFFCURVE",
"984 2048 CURVE SMOOTH",
"248 2048 LINE",
"248 0 LINE"
);
}
);
};
guideLines = (
{
alignment = center;
angle = 90;
position = "{924, 2112}";
}
);
layerId = "C698F293-3EC0-4A5A-A3A0-0FDB1F5CF265";
paths = (
{
closed = 1;
nodes = (
"496 0 LINE",
"496 1828 LINE",
"932 1828 LINE SMOOTH",
"1264 1828 OFFCURVE",
"1392 1666 OFFCURVE",
"1392 1420 CURVE SMOOTH",
"1392 1174 OFFCURVE",
"1264 1024 OFFCURVE",
"936 1024 CURVE SMOOTH",
"384 1024 LINE",
"384 800 LINE",
"944 800 LINE SMOOTH",
"1420 800 OFFCURVE",
"1636 1058 OFFCURVE",
"1636 1420 CURVE SMOOTH",
"1636 1782 OFFCURVE",
"1420 2048 OFFCURVE",
"940 2048 CURVE SMOOTH",
"248 2048 LINE",
"248 0 LINE"
);
},
{
closed = 1;
nodes = (
"932 920 LINE",
"1428 0 LINE",
"1716 0 LINE",
"1212 920 LINE"
);
}
);
width = 1800;
},
{
anchors = (
{
name = bottom;
position = "{960, 0}";
},
{
name = top;
position = "{928, 2304}";
}
);
background = {
paths = (
{
closed = 1;
nodes = (
"688 0 LINE",
"688 1604 LINE",
"956 1604 LINE SMOOTH",
"1120 1604 OFFCURVE",
"1216 1512 OFFCURVE",
"1216 1364 CURVE SMOOTH",
"1216 1212 OFFCURVE",
"1120 1116 OFFCURVE",
"956 1116 CURVE SMOOTH",
"424 1116 LINE",
"424 724 LINE",
"904 724 LINE",
"1268 0 LINE",
"1872 0 LINE",
"1456 808 LINE",
"1660 916 OFFCURVE",
"1800 1108 OFFCURVE",
"1800 1376 CURVE SMOOTH",
"1800 1800 OFFCURVE",
"1508 2048 OFFCURVE",
"1004 2048 CURVE SMOOTH",
"132 2048 LINE {name = hr00;}",
"132 0 LINE"
);
}
);
};
guideLines = (
{
position = "{12, 1552}";
},
{
angle = 90;
position = "{1444, 0}";
},
{
alignment = center;
angle = 90;
position = "{840, 220}";
}
);
layerId = "5C20EF92-B63D-42A8-8878-93C2863E0093";
paths = (
{
closed = 1;
nodes = (
"688 0 LINE",
"688 1604 LINE",
"884 1604 LINE SMOOTH",
"1079 1604 OFFCURVE",
"1196 1528 OFFCURVE",
"1196 1352 CURVE SMOOTH",
"1196 1177 OFFCURVE",
"1079 1108 OFFCURVE",
"884 1108 CURVE SMOOTH",
"468 1108 LINE",
"468 676 LINE",
"996 676 LINE SMOOTH",
"1463 676 OFFCURVE",
"1776 911 OFFCURVE",
"1776 1352 CURVE SMOOTH",
"1776 1788 OFFCURVE",
"1471 2048 OFFCURVE",
"1016 2048 CURVE SMOOTH",
"132 2048 LINE",
"132 0 LINE"
);
},
{
closed = 1;
nodes = (
"740 940 LINE",
"1240 0 LINE",
"1844 0 LINE",
"1332 940 LINE"
);
}
);
width = 1880;
},
{
anchors = (
{
name = bottom;
position = "{888, 0}";
},
{
name = top;
position = "{860, 2304}";
}
);
layerId = "B1F27B51-9973-4381-9301-4FE46FE1CA59";
paths = (
{
closed = 1;
nodes = (
"384 0 LINE",
"384 1984 LINE",
"920 1984 LINE SMOOTH",
"1227 1984 OFFCURVE",
"1444 1778 OFFCURVE",
"1444 1464 CURVE SMOOTH",
"1444 1152 OFFCURVE",
"1227 948 OFFCURVE",
"920 948 CURVE SMOOTH",
"352 948 LINE",
"352 884 LINE",
"920 884 LINE SMOOTH",
"1264 884 OFFCURVE",
"1508 1115 OFFCURVE",
"1508 1464 CURVE SMOOTH",
"1508 1815 OFFCURVE",
"1264 2048 OFFCURVE",
"920 2048 CURVE SMOOTH",
"320 2048 LINE",
"320 0 LINE"
);
},
{
closed = 1;
nodes = (
"1028 932 LINE",
"1532 0 LINE",
"1604 0 LINE",
"1100 932 LINE"
);
}
);
width = 1732;
},
{
anchors = (
{
name = bottom;
position = "{924, 0}";
},
{
name = top;
position = "{880, 2304}";
}
);
associatedMasterId = "C698F293-3EC0-4A5A-A3A0-0FDB1F5CF265";
guideLines = (
{
alignment = center;
angle = 90;
position = "{924, 2112}";
}
);
layerId = "DE316BBE-2641-4C0D-8E2F-8ACABB428D9B";
name = "Nov 25 18, 13:05";
paths = (
{
closed = 1;
nodes = (
"496 0 LINE",
"496 1828 LINE",
"972 1828 LINE SMOOTH",
"1244 1828 OFFCURVE",
"1392 1676 OFFCURVE",
"1392 1420 CURVE SMOOTH",
"1392 1176 OFFCURVE",
"1252 1024 OFFCURVE",
"944 1024 CURVE SMOOTH",
"400 1024 LINE",
"400 800 LINE",
"996 800 LINE",
"1428 0 LINE",
"1716 0 LINE",
"1252 848 LINE",
"1512 944 OFFCURVE",
"1636 1160 OFFCURVE",
"1636 1424 CURVE SMOOTH",
"1636 1792 OFFCURVE",
"1396 2048 OFFCURVE",
"984 2048 CURVE SMOOTH",
"248 2048 LINE",
"248 0 LINE"
);
},
{
closed = 0;
nodes = (
"1396 800 LINE",
"1828 0 LINE",
"2116 0 LINE",
"1652 848 LINE"
);
}
);
width = 1800;
},
{
layerId = "5F6731B1-FB4A-4A0D-82A2-13F618D6D6C6";
width = 600;
},
{
layerId = "DB1B210E-75C3-45F4-95FF-BB3F4FD26361";
width = 600;
},
{
layerId = "244DDCDD-91CB-4447-98B0-DDFA97A87342";
width = 600;
}
);
leftKerningGroup = B;
leftMetricsKey = H;
rightKerningGroup = R;
unicode = 0052;
userData = {
com.typemytype.robofont.guideline.magnetic.vulxOItvKZ = 5;
"interface.width-adjustments" = (
-16
);
};
},
{
color = (204,240,242,1);
glyphname = response;
lastChange = "2019-07-05 21:12:23 +0000";
layers = (
{
components = (
{
name = R;
}
);
layerId = "C698F293-3EC0-4A5A-A3A0-0FDB1F5CF265";
paths = (
{
closed = 1;
nodes = (
"792 2496 LINE",
"736 2348 LINE",
"1172 2220 LINE",
"412 -452 LINE",
"568 -484 LINE",
"1360 2316 LINE"
);
}
);
width = 1800;
},
{
components = (
{
name = R;
transform = "{1, 0, 0, 1, 12, 0}";
}
);
layerId = "5C20EF92-B63D-42A8-8878-93C2863E0093";
paths = (
{
closed = 1;
nodes = (
"700 2472 LINE",
"664 2324 LINE",
"1108 2236 LINE",
"624 -500 LINE",
"788 -516 LINE",
"1284 2348 LINE"
);
}
);
width = 1908;
},
{
components = (
{
alignment = -1;
name = R;
transform = "{1, 0, 0, 1, -8, 0}";
}
);
layerId = "B1F27B51-9973-4381-9301-4FE46FE1CA59";
paths = (
{
closed = 1;
nodes = (
"848 2512 LINE",
"780 2364 LINE",
"1212 2212 LINE",
"284 -424 LINE",
"436 -464 LINE",
"1408 2296 LINE"
);
}
);
width = 1735;
},
{
layerId = "DB1B210E-75C3-45F4-95FF-BB3F4FD26361";
width = 600;
},
{
layerId = "244DDCDD-91CB-4447-98B0-DDFA97A87342";
width = 600;
},
{
layerId = "5F6731B1-FB4A-4A0D-82A2-13F618D6D6C6";
width = 600;
}
);
leftKerningGroup = B;
rightKerningGroup = R;
unicode = 211F;
userData = {
interface.gridadjust.original = "{'width': 1727.0, 'leftMargin': 250, 'rightMargin': 7.0}";
"interface.width-adjustments" = (
-16
);
};
},
{
color = (204,240,242,1);
glyphname = Rx;
lastChange = "2019-07-05 21:12:23 +0000";
layers = (
{
background = {
components = (
{
name = R;
}
);
};
layerId = "C698F293-3EC0-4A5A-A3A0-0FDB1F5CF265";
paths = (
{
closed = 1;
nodes = (
"248 0 LINE",
"496 0 LINE",
"496 1828 LINE",
"932 1828 LINE SMOOTH",
"1296 1828 OFFCURVE",
"1376 1612 OFFCURVE",
"1376 1420 CURVE SMOOTH",
"1376 1192 OFFCURVE",
"1264 1024 OFFCURVE",
"904 1024 CURVE SMOOTH",
"440 1024 LINE",
"440 796 LINE",
"1068 796 LINE",
"1144 816 LINE",
"1448 896 OFFCURVE",
"1620 1100 OFFCURVE",
"1620 1420 CURVE SMOOTH",
"1620 1760 OFFCURVE",
"1420 2048 OFFCURVE",
"932 2048 CURVE",
"248 2048 LINE"
);
},
{
closed = 1;
nodes = (
"1820 0 LINE",
"1160 900 LINE",
"880 900 LINE",
"1532 0 LINE"
);
},
{
closed = 1;
nodes = (
"1820 900 LINE",
"1540 900 LINE",
"880 0 LINE",
"1168 0 LINE"
);
}
);
width = 1924;
},
{
layerId = "5C20EF92-B63D-42A8-8878-93C2863E0093";
paths = (
{
closed = 1;
nodes = (
"132 0 LINE",
"688 0 LINE",
"688 1600 LINE",
"992 1600 LINE SMOOTH",
"1104 1600 OFFCURVE",
"1228 1556 OFFCURVE",
"1228 1388 CURVE SMOOTH",
"1228 1228 OFFCURVE",
"1112 1176 OFFCURVE",
"1000 1176 CURVE SMOOTH",
"464 1176 LINE",
"468 736 LINE",
"1240 736 LINE",
"1344 784 LINE",
"1576 884 OFFCURVE",
"1780 1068 OFFCURVE",
"1780 1404 CURVE SMOOTH",
"1780 1828 OFFCURVE",
"1496 2048 OFFCURVE",
"992 2048 CURVE SMOOTH",
"132 2048 LINE {name = hr00;}"
);
},
{
closed = 1;
nodes = (
"2164 0 LINE",
"1476 944 LINE",
"1052 944 LINE",
"1732 0 LINE"
);
},
{
closed = 1;
nodes = (
"2080 944 LINE",
"1776 944 LINE",
"1088 0 LINE",
"1404 0 LINE"
);
}
);
width = 2312;
},
{
layerId = "B1F27B51-9973-4381-9301-4FE46FE1CA59";
paths = (
{
closed = 1;
nodes = (
"320 0 LINE",
"380 0 LINE",
"380 1964 LINE",
"896 1964 LINE SMOOTH",
"1411 1965 OFFCURVE",
"1465 1646 OFFCURVE",
"1464 1440 CURVE SMOOTH",
"1465 1170 OFFCURVE",
"1355 933 OFFCURVE",
"848 932 CURVE SMOOTH",
"428 932 LINE",
"424 832 LINE",
"964 832 LINE",
"1024 836 LINE",
"1371 903 OFFCURVE",
"1524 1119 OFFCURVE",
"1524 1432 CURVE SMOOTH",
"1524 1719 OFFCURVE",
"1374 2048 OFFCURVE",
"896 2048 CURVE SMOOTH",
"320 2048 LINE {name = hr00;}"
);
},
{
closed = 1;
nodes = (
"1616 0 LINE",
"972 876 LINE",
"776 876 LINE",
"1412 0 LINE"
);
},
{
closed = 1;
nodes = (
"1664 876 LINE",
"1400 876 LINE",
"756 0 LINE",
"1028 0 LINE"
);
}
);
width = 1691;
},
{
layerId = "DB1B210E-75C3-45F4-95FF-BB3F4FD26361";
width = 600;
},
{
layerId = "244DDCDD-91CB-4447-98B0-DDFA97A87342";
width = 600;
},
{
layerId = "5F6731B1-FB4A-4A0D-82A2-13F618D6D6C6";
width = 600;
}
);
leftKerningGroup = B;
rightKerningGroup = R;
unicode = 211E;
userData = {
interface.gridadjust.original = "{'width': 1865, 'leftMargin': 228, 'rightMargin': 83}";
"interface.width-adjustments" = (
-16
);
};
},
{
glyphname = uni024C;
lastChange = "2019-07-05 21:12:23 +0000";
layers = (
{
components = (
{
name = R;
transform = "{1, 0, 0, 1, 24, 0}";
}
);
layerId = "C698F293-3EC0-4A5A-A3A0-0FDB1F5CF265";
paths = (
{
closed = 1;
nodes = (
"412 1024 LINE",
"32 1024 LINE",
"32 800 LINE",
"412 800 LINE"
);
}
);
width = 1824;
},
{
components = (
{
name = R;
transform = "{1, 0, 0, 1, 60, 0}";
}
);
layerId = "5C20EF92-B63D-42A8-8878-93C2863E0093";
paths = (
{
closed = 1;
nodes = (
"524 1116 LINE",
"16 1116 LINE",
"16 724 LINE",
"524 724 LINE"
);
}
);
width = 1956;
},
{
components = (
{
alignment = -1;
name = R;
transform = "{1, 0, 0, 1, 4, 0}";
}
);
layerId = "B1F27B51-9973-4381-9301-4FE46FE1CA59";
paths = (
{
closed = 1;
nodes = (
"344 968 LINE",
"44 968 LINE",
"44 848 LINE",
"344 848 LINE"
);
}
);
width = 1745;
},
{
layerId = "DB1B210E-75C3-45F4-95FF-BB3F4FD26361";
width = 600;
},
{
layerId = "244DDCDD-91CB-4447-98B0-DDFA97A87342";
width = 600;
},
{
layerId = "5F6731B1-FB4A-4A0D-82A2-13F618D6D6C6";
width = 600;
}
);
leftKerningGroup = B;
rightKerningGroup = R;
unicode = 024C;
userData = {
interface.gridadjust.original = "{'width': 1816, 'leftMargin': 55, 'rightMargin': 33}";
"interface.width-adjustments" = (
-16
);
};
},
{
color = (219,235,247,1);
glyphname = S;
lastChange = "2019-07-05 21:12:23 +0000";
layers = (
{
anchors = (
{
name = bottom;
position = "{900, -36}";
},
{
name = cedilla;
position = "{900, 0}";
},
{
name = top;
position = "{896, 2304}";
}
);
guideLines = (
{
position = "{60, 528}";
},
{
alignment = center;
angle = 90;
position = "{1292, -72}";
}
);
layerId = "C698F293-3EC0-4A5A-A3A0-0FDB1F5CF265";
paths = (
{
closed = 1;
nodes = (
"1608 1536 LINE",
"1597 1845 OFFCURVE",
"1312 2076 OFFCURVE",
"916 2076 CURVE SMOOTH",
"524 2076 OFFCURVE",
"216 1848 OFFCURVE",
"216 1504 CURVE SMOOTH",
"216 1228 OFFCURVE",
"416 1064 OFFCURVE",
"736 972 CURVE SMOOTH",
"988 900 LINE SMOOTH",
"1204 840 OFFCURVE",
"1396 764 OFFCURVE",
"1396 560 CURVE SMOOTH",
"1396 336 OFFCURVE",
"1180 188 OFFCURVE",
"896 188 CURVE SMOOTH",
"652 188 OFFCURVE",
"436 296 OFFCURVE",
"416 528 CURVE",
"160 528 LINE",
"184 192 OFFCURVE",
"456 -36 OFFCURVE",
"896 -36 CURVE SMOOTH",
"1368 -36 OFFCURVE",
"1636 224 OFFCURVE",
"1636 556 CURVE SMOOTH",
"1636 940 OFFCURVE",
"1272 1064 OFFCURVE",
"1060 1120 CURVE SMOOTH",
"852 1176 LINE SMOOTH",
"700 1216 OFFCURVE",
"456 1296 OFFCURVE",
"456 1516 CURVE SMOOTH",
"456 1712 OFFCURVE",
"636 1856 OFFCURVE",
"908 1856 CURVE SMOOTH",
"1156 1856 OFFCURVE",
"1344 1738 OFFCURVE",
"1368 1536 CURVE"
);
}
);
width = 1796;
},
{
anchors = (
{
name = bottom;
position = "{948, 0}";
},
{
name = cedilla;
position = "{944, 0}";
},
{
name = top;
position = "{940, 2304}";
}
);
guideLines = (
{
position = "{12, 764}";
},
{
position = "{12, 1552}";
},
{
alignment = center;
angle = 90;
position = "{1172, -132}";
}
);
layerId = "5C20EF92-B63D-42A8-8878-93C2863E0093";
paths = (
{
closed = 1;
nodes = (
"1768 1408 LINE",
"1766 1810 OFFCURVE",
"1456 2076 OFFCURVE",
"960 2076 CURVE SMOOTH",
"473 2076 OFFCURVE",
"129 1814 OFFCURVE",
"132 1424 CURVE SMOOTH",
"131 1104 OFFCURVE",
"353 926 OFFCURVE",
"716 848 CURVE SMOOTH",
"920 804 LINE SMOOTH",
"1148 754 OFFCURVE",
"1226 697 OFFCURVE",
"1228 604 CURVE SMOOTH {name = hr00;}",
"1226 503 OFFCURVE",
"1134 432 OFFCURVE",
"956 432 CURVE SMOOTH",
"743 432 OFFCURVE",
"617 532 OFFCURVE",
"608 720 CURVE",
"80 720 LINE",
"82 206 OFFCURVE",
"430 -24 OFFCURVE",
"964 -24 CURVE SMOOTH",
"1483 -24 OFFCURVE",
"1794 200 OFFCURVE",
"1796 604 CURVE SMOOTH",
"1794 916 OFFCURVE",
"1608 1135 OFFCURVE",
"1156 1232 CURVE SMOOTH",
"988 1268 LINE SMOOTH",
"794 1309 OFFCURVE",
"707 1366 OFFCURVE",
"712 1464 CURVE SMOOTH",
"713 1554 OFFCURVE",
"788 1620 OFFCURVE",
"960 1620 CURVE SMOOTH",
"1140 1620 OFFCURVE",
"1225 1541 OFFCURVE",
"1236 1408 CURVE"
);
}
);
width = 1876;
},
{
anchors = (
{
name = bottom;
position = "{864, -32}";
},
{
name = cedilla;
position = "{864, 0}";
},
{
name = top;
position = "{864, 2304}";
}
);
layerId = "B1F27B51-9973-4381-9301-4FE46FE1CA59";
paths = (
{
closed = 1;
nodes = (
"1480 1536 LINE",
"1460 1852 OFFCURVE",
"1223 2080 OFFCURVE",
"872 2080 CURVE SMOOTH",
"522 2080 OFFCURVE",
"264 1854 OFFCURVE",
"264 1552 CURVE SMOOTH",
"264 1315 OFFCURVE",
"422 1149 OFFCURVE",
"744 1048 CURVE SMOOTH",
"976 976 LINE SMOOTH",
"1307 873 OFFCURVE",
"1444 740 OFFCURVE",
"1444 520 CURVE SMOOTH",
"1444 230 OFFCURVE",
"1208 32 OFFCURVE",
"856 32 CURVE SMOOTH",
"518 32 OFFCURVE",
"300 215 OFFCURVE",
"280 480 CURVE",
"216 480 LINE",
"236 179 OFFCURVE",
"482 -32 OFFCURVE",
"856 -32 CURVE SMOOTH",
"1244 -32 OFFCURVE",
"1508 199 OFFCURVE",
"1508 520 CURVE SMOOTH",
"1508 772 OFFCURVE",
"1346 931 OFFCURVE",
"992 1040 CURVE SMOOTH",
"760 1112 LINE SMOOTH",
"466 1202 OFFCURVE",
"328 1344 OFFCURVE",
"328 1552 CURVE SMOOTH",
"328 1821 OFFCURVE",
"559 2016 OFFCURVE",
"872 2016 CURVE SMOOTH",
"1189 2016 OFFCURVE",
"1396 1816 OFFCURVE",
"1416 1536 CURVE"
);
}
);
width = 1724;
},
{
anchors = (
{
name = bottom;
position = "{872, -60}";
},
{
name = cedilla;
position = "{876, 0}";
},
{
name = top;
position = "{872, 2380}";
}
);
associatedMasterId = "B1F27B51-9973-4381-9301-4FE46FE1CA59";
background = {
paths = (
{
closed = 1;
nodes = (
"1512 1612 LINE",
"1496 1866 OFFCURVE",
"1226 2076 OFFCURVE",
"892 2076 CURVE SMOOTH",
"555 2076 OFFCURVE",
"268 1868 OFFCURVE",
"268 1552 CURVE SMOOTH",
"267 1302 OFFCURVE",
"454 1147 OFFCURVE",
"748 1048 CURVE SMOOTH",
"1028 960 LINE SMOOTH",
"1238 892 OFFCURVE",
"1498 804 OFFCURVE",
"1496 536 CURVE SMOOTH {name = hr00;}",
"1498 236 OFFCURVE",
"1208 42 OFFCURVE",
"860 44 CURVE SMOOTH",
"597 42 OFFCURVE",
"327 154 OFFCURVE",
"300 412 CURVE",
"208 412 LINE",
"245 184 OFFCURVE",
"472 -43 OFFCURVE",
"856 -44 CURVE SMOOTH",
"1299 -43 OFFCURVE",
"1541 238 OFFCURVE",
"1540 528 CURVE SMOOTH",
"1541 954 OFFCURVE",
"1070 1021 OFFCURVE",
"1004 1052 CURVE SMOOTH",
"772 1120 LINE SMOOTH",
"644 1160 OFFCURVE",
"305 1254 OFFCURVE",
"304 1548 CURVE SMOOTH",
"302 1807 OFFCURVE",
"545 1998 OFFCURVE",
"876 2000 CURVE SMOOTH",
"1166 1998 OFFCURVE",
"1415 1856 OFFCURVE",
"1448 1612 CURVE"
);
}
);
};
layerId = "9C280ED6-539A-47A5-81A9-2BEBEE9FA0FB";
name = "Nov 25 18, 13:19";
paths = (
{
closed = 0;
nodes = (
"1460 1540 LINE",
"1442 1794 OFFCURVE",
"1205 1969 OFFCURVE",
"884 1968 CURVE SMOOTH",
"551 1969 OFFCURVE",
"307 1783 OFFCURVE",
"308 1512 CURVE SMOOTH",
"307 1265 OFFCURVE",
"529 1143 OFFCURVE",
"764 1076 CURVE SMOOTH",
"996 1012 LINE SMOOTH",
"1209 955 OFFCURVE",
"1487 855 OFFCURVE",
"1488 560 CURVE SMOOTH",
"1487 283 OFFCURVE",
"1245 79 OFFCURVE",
"868 80 CURVE SMOOTH",
"525 79 OFFCURVE",
"281 247 OFFCURVE",
"260 532 CURVE"
);
}
);
width = 1748;
},
{
anchors = (
{
name = bottom;
position = "{872, -60}";
},
{
name = cedilla;
position = "{876, 0}";
},
{
name = top;
position = "{872, 2380}";
}
);
associatedMasterId = "B1F27B51-9973-4381-9301-4FE46FE1CA59";
background = {
paths = (
{
closed = 1;
nodes = (
"1512 1612 LINE",
"1496 1866 OFFCURVE",
"1226 2076 OFFCURVE",
"892 2076 CURVE SMOOTH",
"555 2076 OFFCURVE",
"268 1868 OFFCURVE",
"268 1552 CURVE SMOOTH",
"267 1302 OFFCURVE",
"454 1147 OFFCURVE",
"748 1048 CURVE SMOOTH",
"1028 960 LINE SMOOTH",
"1238 892 OFFCURVE",
"1498 804 OFFCURVE",
"1496 536 CURVE SMOOTH {name = hr00;}",
"1498 236 OFFCURVE",
"1208 42 OFFCURVE",
"860 44 CURVE SMOOTH",
"597 42 OFFCURVE",
"327 154 OFFCURVE",
"300 412 CURVE",
"208 412 LINE",
"245 184 OFFCURVE",
"472 -43 OFFCURVE",
"856 -44 CURVE SMOOTH",
"1299 -43 OFFCURVE",
"1541 238 OFFCURVE",
"1540 528 CURVE SMOOTH",
"1541 954 OFFCURVE",
"1070 1021 OFFCURVE",
"1004 1052 CURVE SMOOTH",
"772 1120 LINE SMOOTH",
"644 1160 OFFCURVE",
"305 1254 OFFCURVE",
"304 1548 CURVE SMOOTH",
"302 1807 OFFCURVE",
"545 1998 OFFCURVE",
"876 2000 CURVE SMOOTH",
"1166 1998 OFFCURVE",
"1415 1856 OFFCURVE",
"1448 1612 CURVE"
);
}
);
};
layerId = "48736875-43E9-423A-93EA-8ACE2815DF1A";
name = "Nov 25 18, 13:23";
paths = (
{
closed = 0;
nodes = (
"1460 1536 LINE",
"1460 1584 LINE",
"1442 1858 OFFCURVE",
"1205 2044 OFFCURVE",
"884 2044 CURVE SMOOTH",
"551 2044 OFFCURVE",
"307 1846 OFFCURVE",
"308 1556 CURVE SMOOTH",
"307 1294 OFFCURVE",
"529 1164 OFFCURVE",
"764 1092 CURVE SMOOTH",
"996 1024 LINE SMOOTH",
"1209 965 OFFCURVE",
"1487 858 OFFCURVE",
"1488 544 CURVE SMOOTH",
"1487 249 OFFCURVE",
"1245 32 OFFCURVE",
"868 32 CURVE SMOOTH",
"525 32 OFFCURVE",
"281 211 OFFCURVE",
"260 512 CURVE",
"260 528 LINE"
);
}
);
width = 1748;
},
{
layerId = "DB1B210E-75C3-45F4-95FF-BB3F4FD26361";
width = 600;
},
{
layerId = "244DDCDD-91CB-4447-98B0-DDFA97A87342";
width = 600;
},
{
layerId = "5F6731B1-FB4A-4A0D-82A2-13F618D6D6C6";
width = 600;
}
);
leftKerningGroup = S;
note = "recipe: use stroke + offset curve filter with 32, no autostroke";
rightKerningGroup = S;
unicode = 0053;
userData = {
com.typemytype.robofont.guideline.magnetic.yXeOBXqbc8 = 5;
"interface.width-adjustments" = (
-16
);
};
},
{
glyphname = Germandbls;
lastChange = "2019-07-05 21:12:23 +0000";
layers = (
{
layerId = "C698F293-3EC0-4A5A-A3A0-0FDB1F5CF265";
paths = (
{
closed = 1;
nodes = (
"496 0 LINE",
"496 1360 LINE SMOOTH",
"496 1616 OFFCURVE",
"576 1856 OFFCURVE",
"888 1856 CURVE SMOOTH",
"1056 1856 OFFCURVE",
"1164 1788 OFFCURVE",
"1252 1728 CURVE",
"844 1172 LINE",
"844 956 LINE",
"1044 956 LINE SMOOTH",
"1128 956 OFFCURVE",
"1484 956 OFFCURVE",
"1484 580 CURVE SMOOTH",
"1484 340 OFFCURVE",
"1336 192 OFFCURVE",
"1076 192 CURVE SMOOTH",
"944 192 OFFCURVE",
"844 228 OFFCURVE",
"768 260 CURVE",
"688 40 LINE",
"820 -8 OFFCURVE",
"948 -28 OFFCURVE",
"1072 -28 CURVE SMOOTH",
"1472 -28 OFFCURVE",
"1760 184 OFFCURVE",
"1760 576 CURVE SMOOTH",
"1760 928 OFFCURVE",
"1528 1144 OFFCURVE",
"1120 1168 CURVE",
"1576 1768 LINE",
"1392 1936 OFFCURVE",
"1176 2076 OFFCURVE",
"876 2076 CURVE SMOOTH",
"460 2076 OFFCURVE",
"248 1836 OFFCURVE",
"248 1360 CURVE SMOOTH",
"248 0 LINE"
);
}
);
width = 1920;
},
{
guideLines = (
{
position = "{8, 2092}";
}
);
layerId = "5C20EF92-B63D-42A8-8878-93C2863E0093";
paths = (
{
closed = 1;
nodes = (
"688 0 LINE",
"688 1340 LINE SMOOTH",
"688 1534 OFFCURVE",
"776 1652 OFFCURVE",
"920 1652 CURVE SMOOTH",
"1059 1652 OFFCURVE",
"1201 1605 OFFCURVE",
"1296 1528 CURVE",
"944 1188 LINE",
"944 900 LINE",
"1124 900 LINE SMOOTH",
"1348 900 OFFCURVE",
"1484 788 OFFCURVE",
"1484 604 CURVE SMOOTH",
"1484 472 OFFCURVE",
"1375 392 OFFCURVE",
"1196 392 CURVE SMOOTH",
"1110 392 OFFCURVE",
"996 416 OFFCURVE",
"896 456 CURVE",
"752 64 LINE",
"876 10 OFFCURVE",
"1081 -28 OFFCURVE",
"1248 -28 CURVE SMOOTH",
"1691 -28 OFFCURVE",
"2004 234 OFFCURVE",
"2004 604 CURVE SMOOTH",
"2004 894 OFFCURVE",
"1790 1141 OFFCURVE",
"1488 1200 CURVE",
"1944 1692 LINE",
"1641 1917 OFFCURVE",
"1216 2076 OFFCURVE",
"920 2076 CURVE SMOOTH",
"458 2076 OFFCURVE",
"132 1771 OFFCURVE",
"132 1340 CURVE SMOOTH",
"132 0 LINE"
);
}
);
width = 2084;
},
{
layerId = "B1F27B51-9973-4381-9301-4FE46FE1CA59";
paths = (
{
closed = 1;
nodes = (
"380 0 LINE",
"380 1372 LINE SMOOTH",
"381 1665 OFFCURVE",
"456 1978 OFFCURVE",
"868 1980 CURVE SMOOTH",
"1054 1978 OFFCURVE",
"1142 1898 OFFCURVE",
"1228 1848 CURVE",
"784 1164 LINE",
"784 992 LINE",
"996 992 LINE SMOOTH",
"996 990 OFFCURVE",
"1484 1057 OFFCURVE",
"1484 568 CURVE SMOOTH",
"1484 261 OFFCURVE",
"1313 72 OFFCURVE",
"1004 72 CURVE SMOOTH",
"844 72 OFFCURVE",
"753 115 OFFCURVE",
"692 144 CURVE",
"652 28 LINE",
"786 -19 OFFCURVE",
"868 -28 OFFCURVE",
"968 -28 CURVE SMOOTH",
"1341 -28 OFFCURVE",
"1614 154 OFFCURVE",
"1616 560 CURVE SMOOTH",
"1614 948 OFFCURVE",
"1371 1146 OFFCURVE",
"900 1148 CURVE",
"1356 1816 LINE",
"1243 1947 OFFCURVE",
"1152 2076 OFFCURVE",
"852 2076 CURVE SMOOTH",
"461 2076 OFFCURVE",
"318 1875 OFFCURVE",
"320 1372 CURVE SMOOTH",
"320 0 LINE"
);
}
);
width = 1832;
},
{
layerId = "DB1B210E-75C3-45F4-95FF-BB3F4FD26361";
width = 600;
},
{
layerId = "244DDCDD-91CB-4447-98B0-DDFA97A87342";
width = 600;
},
{
layerId = "5F6731B1-FB4A-4A0D-82A2-13F618D6D6C6";
width = 600;
}
);
leftKerningGroup = B;
leftMetricsKey = B;
rightKerningGroup = S;
rightMetricsKey = S;
unicode = 1E9E;
userData = {
interface.gridadjust.original = "{'width': 1819, 'leftMargin': 188, 'rightMargin': 122}";
"interface.width-adjustments" = (
-16
);
};
},
{
color = (219,235,247,1);
glyphname = T;
lastChange = "2019-07-05 21:12:23 +0000";
layers = (
{
anchors = (
{
name = bottom;
position = "{904, 0}";
},
{
name = cedilla;
position = "{936, 0}";
},
{
name = cross;
position = "{904, 1056}";
},
{
name = cyrtic;
position = "{1140, 88}";
},
{
name = right;
position = "{960, 0}";
},
{
name = top;
position = "{904, 2304}";
}
);
guideLines = (
{
alignment = center;
angle = 90;
position = "{1264, 176}";
}
);
layerId = "C698F293-3EC0-4A5A-A3A0-0FDB1F5CF265";
paths = (
{
closed = 1;
nodes = (
"780 1828 LINE",
"780 0 LINE",
"1028 0 LINE",
"1028 1828 LINE",
"1672 1828 LINE",
"1672 2048 LINE",
"136 2048 LINE",
"136 1828 LINE"
);
}
);
width = 1808;
},
{
anchors = (
{
name = bottom;
position = "{964, 0}";
},
{
name = cedilla;
position = "{956, 0}";
},
{
name = cross;
position = "{964, 916}";
},
{
name = cyrtic;
position = "{1480, 224}";
},
{
name = right;
position = "{1176, 0}";
},
{
name = top;
position = "{968, 2304}";
}
);
guideLines = (
{
alignment = center;
angle = 90;
position = "{972, 956}";
}
);
layerId = "5C20EF92-B63D-42A8-8878-93C2863E0093";
paths = (
{
closed = 1;
nodes = (
"692 1600 LINE",
"692 0 LINE",
"1240 0 LINE",
"1240 1600 LINE",
"1856 1600 LINE",
"1856 2048 LINE",
"76 2048 LINE",
"76 1600 LINE"
);
}
);
width = 1932;
},
{
anchors = (
{
name = bottom;
position = "{864, 0}";
},
{
name = cedilla;
position = "{864, -8}";
},
{
name = cross;
position = "{864, 1056}";
},
{
name = cyrtic;
position = "{940, 8}";
},
{
name = right;
position = "{880, 0}";
},
{
name = top;
position = "{864, 2304}";
}
);
layerId = "B1F27B51-9973-4381-9301-4FE46FE1CA59";
paths = (
{
closed = 1;
nodes = (
"832 1984 LINE",
"832 0 LINE",
"896 0 LINE",
"896 1984 LINE",
"1556 1984 LINE",
"1556 2048 LINE",
"172 2048 LINE",
"172 1984 LINE"
);
}
);
width = 1728;
},
{
layerId = "DB1B210E-75C3-45F4-95FF-BB3F4FD26361";
width = 600;
},
{
layerId = "244DDCDD-91CB-4447-98B0-DDFA97A87342";
width = 600;
},
{
layerId = "5F6731B1-FB4A-4A0D-82A2-13F618D6D6C6";
width = 600;
}
);
leftKerningGroup = T;
rightKerningGroup = T;
unicode = 0054;
userData = {
"interface.width-adjustments" = (
-16
);
};
},
{
glyphname = Thook;
lastChange = "2019-07-05 21:12:23 +0000";
layers = (
{
background = {
components = (
{
name = T;
transform = "{1, 0, 0, 1, 112, 0}";
}
);
};
layerId = "C698F293-3EC0-4A5A-A3A0-0FDB1F5CF265";
paths = (
{
closed = 1;
nodes = (
"544 2048 LINE SMOOTH",
"292 2048 OFFCURVE",
"136 1884 OFFCURVE",
"136 1644 CURVE SMOOTH",
"136 1524 LINE",
"360 1524 LINE",
"360 1600 LINE SMOOTH",
"360 1716 OFFCURVE",
"404 1828 OFFCURVE",
"544 1828 CURVE SMOOTH",
"1016 1828 LINE",
"1016 2048 LINE"
);
},
{
closed = 1;
nodes = (
"696 2048 LINE",
"696 1828 LINE",
"892 1828 LINE",
"892 0 LINE",
"1140 0 LINE",
"1140 1828 LINE",
"1784 1828 LINE",
"1784 2048 LINE"
);
}
);
width = 1920;
},
{
background = {
components = (
{
name = T;
transform = "{1, 0, 0, 1, 88, 0}";
}
);
};
layerId = "5C20EF92-B63D-42A8-8878-93C2863E0093";
paths = (
{
closed = 1;
nodes = (
"740 2048 LINE SMOOTH",
"302 2048 OFFCURVE",
"76 1820 OFFCURVE",
"76 1436 CURVE SMOOTH",
"76 1188 LINE",
"524 1188 LINE",
"524 1336 LINE SMOOTH",
"524 1464 OFFCURVE",
"558 1600 OFFCURVE",
"740 1600 CURVE SMOOTH",
"1052 1600 LINE",
"1052 2048 LINE"
);
},
{
closed = 1;
nodes = (
"764 2048 LINE",
"764 1600 LINE",
"780 1600 LINE",
"780 0 LINE",
"1328 0 LINE",
"1328 1600 LINE",
"1944 1600 LINE",
"1944 2048 LINE"
);
}
);
width = 2020;
},
{
layerId = "B1F27B51-9973-4381-9301-4FE46FE1CA59";
paths = (
{
closed = 1;
nodes = (
"428 2048 LINE SMOOTH",
"286 2048 OFFCURVE",
"172 1922 OFFCURVE",
"172 1768 CURVE SMOOTH",
"172 1728 LINE",
"264 1728 LINE",
"264 1760 LINE SMOOTH",
"262 1867 OFFCURVE",
"312 1965 OFFCURVE",
"428 1964 CURVE SMOOTH",
"996 1964 LINE",
"996 2048 LINE"
);
},
{
closed = 1;
nodes = (
"656 2048 LINE",
"656 1964 LINE",
"960 1964 LINE",
"960 0 LINE",
"1028 0 LINE",
"1028 1964 LINE",
"1688 1964 LINE",
"1688 2048 LINE"
);
}
);
width = 1860;
},
{
layerId = "DB1B210E-75C3-45F4-95FF-BB3F4FD26361";
width = 600;
},
{
layerId = "244DDCDD-91CB-4447-98B0-DDFA97A87342";
width = 600;
},
{
layerId = "5F6731B1-FB4A-4A0D-82A2-13F618D6D6C6";
width = 600;
}
);
leftKerningGroup = T;
leftMetricsKey = T;
note = "!post:RemoveOverlap";
rightKerningGroup = T;
rightMetricsKey = T;
unicode = 01AC;
userData = {
interface.gridadjust.original = "{'width': 1772, 'leftMargin': 41, 'rightMargin': 63}";
"interface.width-adjustments" = (
-16
);
};
},
{
glyphname = Trthook;
lastChange = "2019-07-05 21:12:23 +0000";
layers = (
{
components = (
{
name = T;
}
);
layerId = "C698F293-3EC0-4A5A-A3A0-0FDB1F5CF265";
paths = (
{
closed = 1;
nodes = (
"780 0 LINE",
"780 -168 LINE SMOOTH",
"780 -432 OFFCURVE",
"984 -576 OFFCURVE",
"1208 -576 CURVE",
"1344 -576 LINE",
"1344 -356 LINE",
"1268 -356 LINE",
"1140 -356 OFFCURVE",
"1028 -324 OFFCURVE",
"1028 -164 CURVE SMOOTH",
"1028 0 LINE"
);
}
);
width = 1808;
},
{
components = (
{
name = T;
}
);
layerId = "5C20EF92-B63D-42A8-8878-93C2863E0093";
paths = (
{
closed = 1;
nodes = (
"692 0 LINE",
"692 -44 LINE SMOOTH",
"692 -528 OFFCURVE",
"1002 -576 OFFCURVE",
"1296 -576 CURVE",
"1536 -576 LINE",
"1536 -164 LINE",
"1444 -164 LINE",
"1346 -164 OFFCURVE",
"1240 -140 OFFCURVE",
"1240 -48 CURVE SMOOTH",
"1240 0 LINE"
);
}
);
width = 1932;
},
{
components = (
{
alignment = -1;
name = T;
}
);
layerId = "B1F27B51-9973-4381-9301-4FE46FE1CA59";
paths = (
{
closed = 1;
nodes = (
"832 0 LINE",
"832 -244 LINE SMOOTH",
"833 -374 OFFCURVE",
"973 -576 OFFCURVE",
"1156 -576 CURVE",
"1228 -576 LINE",
"1228 -472 LINE",
"1164 -472 LINE",
"1016 -471 OFFCURVE",
"901 -434 OFFCURVE",
"900 -236 CURVE SMOOTH",
"900 0 LINE"
);
}
);
width = 1734;
},
{
layerId = "DB1B210E-75C3-45F4-95FF-BB3F4FD26361";
width = 600;
},
{
layerId = "244DDCDD-91CB-4447-98B0-DDFA97A87342";
width = 600;
},
{
layerId = "5F6731B1-FB4A-4A0D-82A2-13F618D6D6C6";
width = 600;
}
);
leftKerningGroup = T;
leftMetricsKey = T;
rightKerningGroup = T;
rightMetricsKey = T;
unicode = 01AE;
userData = {
interface.gridadjust.original = "{'width': 1680, 'leftMargin': 67, 'rightMargin': 63}";
"interface.width-adjustments" = (
-16
);
};
},
{
glyphname = uni023E;
lastChange = "2019-07-05 21:12:23 +0000";
layers = (
{
components = (
{
name = T;
}
);
layerId = "C698F293-3EC0-4A5A-A3A0-0FDB1F5CF265";
paths = (
{
closed = 1;
nodes = (
"588 -260 LINE",
"1500 2308 LINE",
"1272 2308 LINE",
"360 -260 LINE"
);
}
);
width = 1808;
},
{
components = (
{
name = T;
}
);
layerId = "5C20EF92-B63D-42A8-8878-93C2863E0093";
paths = (
{
closed = 1;
nodes = (
"760 -260 LINE",
"1536 2308 LINE",
"1252 2308 LINE",
"476 -260 LINE"
);
}
);
width = 1932;
},
{
components = (
{
alignment = -1;
name = T;
}
);
layerId = "B1F27B51-9973-4381-9301-4FE46FE1CA59";
paths = (
{
closed = 1;
nodes = (
"484 -260 LINE",
"1480 2308 LINE",
"1284 2308 LINE",
"292 -260 LINE"
);
}
);
width = 1734;
},
{
layerId = "DB1B210E-75C3-45F4-95FF-BB3F4FD26361";
width = 600;
},
{
layerId = "244DDCDD-91CB-4447-98B0-DDFA97A87342";
width = 600;
},
{
layerId = "5F6731B1-FB4A-4A0D-82A2-13F618D6D6C6";
width = 600;
}
);
leftKerningGroup = T;
leftMetricsKey = T;
rightKerningGroup = T;
rightMetricsKey = T;
unicode = 023E;
userData = {
interface.gridadjust.original = "{'width': 1680, 'leftMargin': 128, 'rightMargin': 16}";
"interface.width-adjustments" = (
-16
);
};
},
{
color = (219,235,247,1);
glyphname = U;
lastChange = "2019-07-05 21:12:23 +0000";
layers = (
{
anchors = (
{
name = bottom;
position = "{1044, -28}";
},
{
name = ogonek;
position = "{1240, 4}";
},
{
name = right;
position = "{1160, 0}";
},
{
name = top;
position = "{1044, 2304}";
}
);
guideLines = (
{
alignment = center;
angle = 90;
position = "{1036, 2084}";
}
);
layerId = "C698F293-3EC0-4A5A-A3A0-0FDB1F5CF265";
paths = (
{
closed = 1;
nodes = (
"1592 692 LINE SMOOTH",
"1592 372 OFFCURVE",
"1336 196 OFFCURVE",
"1044 196 CURVE SMOOTH",
"752 196 OFFCURVE",
"496 372 OFFCURVE",
"496 692 CURVE SMOOTH",
"496 2048 LINE",
"248 2048 LINE",
"248 692 LINE",
"248 232 OFFCURVE",
"612 -36 OFFCURVE",
"1044 -36 CURVE SMOOTH",
"1476 -36 OFFCURVE",
"1840 232 OFFCURVE",
"1840 692 CURVE",
"1840 2048 LINE",
"1592 2048 LINE"
);
}
);
width = 2088;
},
{
anchors = (
{
name = bottom;
position = "{1016, 12}";
},
{
name = ogonek;
position = "{1320, 0}";
},
{
name = right;
position = "{1192, 0}";
},
{
name = top;
position = "{1016, 2304}";
}
);
guideLines = (
{
position = "{12, 1240}";
},
{
position = "{12, 764}";
},
{
position = "{12, 1552}";
},
{
alignment = center;
angle = 90;
position = "{1032, 564}";
}
);
layerId = "5C20EF92-B63D-42A8-8878-93C2863E0093";
paths = (
{
closed = 1;
nodes = (
"1348 720 LINE SMOOTH",
"1348 568 OFFCURVE",
"1224 464 OFFCURVE",
"1016 464 CURVE SMOOTH",
"812 464 OFFCURVE",
"688 568 OFFCURVE",
"688 720 CURVE SMOOTH",
"688 2048 LINE",
"132 2048 LINE",
"132 696 LINE",
"132 228 OFFCURVE",
"476 -24 OFFCURVE",
"1016 -24 CURVE SMOOTH",
"1552 -24 OFFCURVE",
"1900 228 OFFCURVE",
"1900 696 CURVE",
"1900 2048 LINE",
"1348 2048 LINE"
);
}
);
width = 2032;
},
{
anchors = (
{
name = bottom;
position = "{1056, -32}";
},
{
name = ogonek;
position = "{1192, 8}";
},
{
name = right;
position = "{1140, 0}";
},
{
name = top;
position = "{1056, 2304}";
}
);
layerId = "B1F27B51-9973-4381-9301-4FE46FE1CA59";
paths = (
{
closed = 1;
nodes = (
"1728 692 LINE SMOOTH",
"1728 313 OFFCURVE",
"1442 32 OFFCURVE",
"1056 32 CURVE SMOOTH",
"670 32 OFFCURVE",
"384 313 OFFCURVE",
"384 692 CURVE SMOOTH",
"384 2048 LINE",
"320 2048 LINE",
"320 692 LINE SMOOTH",
"318 278 OFFCURVE",
"637 -32 OFFCURVE",
"1056 -32 CURVE SMOOTH",
"1477 -32 OFFCURVE",
"1792 277 OFFCURVE",
"1792 692 CURVE SMOOTH",
"1792 2048 LINE",
"1728 2048 LINE"
);
}
);
width = 2112;
},
{
layerId = "DB1B210E-75C3-45F4-95FF-BB3F4FD26361";
width = 600;
},
{
layerId = "244DDCDD-91CB-4447-98B0-DDFA97A87342";
width = 600;
},
{
layerId = "5F6731B1-FB4A-4A0D-82A2-13F618D6D6C6";
width = 600;
}
);
leftKerningGroup = U;
leftMetricsKey = H;
rightKerningGroup = J;
rightMetricsKey = H;
unicode = 0055;
userData = {
com.typemytype.robofont.guideline.magnetic.icXM2D4lH7 = 5;
"interface.width-adjustments" = (
-16
);
};
},
{
glyphname = Uhorn;
lastChange = "2019-07-05 21:12:23 +0000";
layers = (
{
components = (
{
name = U;
}
);
guideLines = (
{
angle = 90;
position = "{1036, 244}";
}
);
layerId = "C698F293-3EC0-4A5A-A3A0-0FDB1F5CF265";
paths = (
{
closed = 1;
nodes = (
"2068 1908 OFFCURVE",
"1992 1768 OFFCURVE",
"1712 1768 CURVE",
"1712 1572 LINE",
"2136 1572 OFFCURVE",
"2300 1780 OFFCURVE",
"2300 2172 CURVE",
"2068 2172 LINE"
);
}
);
width = 2436;
},
{
components = (
{
name = U;
}
);
layerId = "5C20EF92-B63D-42A8-8878-93C2863E0093";
paths = (
{
closed = 1;
nodes = (
"2080 1824 OFFCURVE",
"2084 1652 OFFCURVE",
"1760 1652 CURVE",
"1760 1408 LINE",
"2260 1408 OFFCURVE",
"2384 1668 OFFCURVE",
"2384 2088 CURVE",
"2080 2088 LINE"
);
}
);
width = 2460;
},
{
components = (
{
alignment = -1;
name = U;
}
);
layerId = "B1F27B51-9973-4381-9301-4FE46FE1CA59";
paths = (
{
closed = 1;
nodes = (
"2061 1958 OFFCURVE",
"1937 1838 OFFCURVE",
"1684 1840 CURVE",
"1684 1672 LINE",
"2062 1670 OFFCURVE",
"2250 1847 OFFCURVE",
"2252 2224 CURVE",
"2060 2224 LINE"
);
}
);
width = 2422;
},
{
layerId = "DB1B210E-75C3-45F4-95FF-BB3F4FD26361";
width = 600;
},
{
layerId = "244DDCDD-91CB-4447-98B0-DDFA97A87342";
width = 600;
},
{
layerId = "5F6731B1-FB4A-4A0D-82A2-13F618D6D6C6";
width = 600;
}
);
leftKerningGroup = U;
leftMetricsKey = U;
rightKerningGroup = T;
rightMetricsKey = T;
unicode = 01AF;
userData = {
com.typemytype.robofont.guideline.magnetic.w9xhz5LEo8 = 5;
interface.gridadjust.original = "{'width': 1968, 'leftMargin': 256, 'rightMargin': -199}";
};
},
{
glyphname = Utildeacute;
lastChange = "2019-07-05 21:12:23 +0000";
layers = (
{
background = {
paths = (
{
closed = 1;
nodes = (
"504 2048 LINE",
"256 2048 LINE",
"256 748 LINE SMOOTH",
"256 323 OFFCURVE",
"550 17 OFFCURVE",
"1044 16 CURVE SMOOTH",
"1534 15 OFFCURVE",
"1832 323 OFFCURVE",
"1832 748 CURVE SMOOTH",
"1832 2048 LINE",
"1584 2048 LINE",
"1584 764 LINE SMOOTH",
"1584 463 OFFCURVE",
"1386 246 OFFCURVE",
"1044 248 CURVE SMOOTH",
"698 250 OFFCURVE",
"504 463 OFFCURVE",
"504 764 CURVE SMOOTH"
);
},
{
closed = 1;
nodes = (
"1419 2234 OFFCURVE",
"1545 2378 OFFCURVE",
"1544 2560 CURVE",
"1360 2560 LINE",
"1352 2454 OFFCURVE",
"1295 2408 OFFCURVE",
"1228 2408 CURVE SMOOTH",
"1081 2408 OFFCURVE",
"1083 2584 OFFCURVE",
"852 2584 CURVE SMOOTH",
"665 2584 OFFCURVE",
"539 2447 OFFCURVE",
"540 2252 CURVE",
"728 2252 LINE",
"731 2353 OFFCURVE",
"777 2406 OFFCURVE",
"856 2408 CURVE SMOOTH",
"1004 2412 OFFCURVE",
"1001 2229 OFFCURVE",
"1236 2232 CURVE SMOOTH"
);
},
{
closed = 1;
nodes = (
"1008 2640 LINE",
"1268 2640 LINE",
"1608 2944 LINE",
"1308 2944 LINE"
);
}
);
};
components = (
{
name = U;
},
{
name = tildeacutecomb.uc;
transform = "{1, 0, 0, 1, 1536, 0}";
}
);
layerId = "C698F293-3EC0-4A5A-A3A0-0FDB1F5CF265";
width = 2088;
},
{
background = {
paths = (
{
closed = 1;
nodes = (
"728 2048 LINE",
"148 2048 LINE",
"148 772 LINE SMOOTH",
"148 318 OFFCURVE",
"496 30 OFFCURVE",
"1020 28 CURVE SMOOTH",
"1544 26 OFFCURVE",
"1896 318 OFFCURVE",
"1896 772 CURVE SMOOTH",
"1896 2048 LINE",
"1312 2048 LINE",
"1312 836 LINE SMOOTH",
"1312 626 OFFCURVE",
"1208 512 OFFCURVE",
"1020 512 CURVE SMOOTH",
"832 512 OFFCURVE",
"728 626 OFFCURVE",
"728 836 CURVE SMOOTH"
);
},
{
closed = 1;
nodes = (
"1408 2176 OFFCURVE",
"1563 2329 OFFCURVE",
"1564 2588 CURVE",
"1288 2588 LINE",
"1283 2501 OFFCURVE",
"1255 2440 OFFCURVE",
"1192 2440 CURVE SMOOTH",
"1097 2440 OFFCURVE",
"1020 2606 OFFCURVE",
"820 2608 CURVE SMOOTH",
"632 2610 OFFCURVE",
"477 2461 OFFCURVE",
"476 2204 CURVE",
"752 2204 LINE",
"757 2276 OFFCURVE",
"785 2342 OFFCURVE",
"848 2344 CURVE SMOOTH",
"943 2347 OFFCURVE",
"1020 2176 OFFCURVE",
"1220 2176 CURVE SMOOTH"
);
},
{
closed = 1;
nodes = (
"808 2712 LINE",
"1200 2712 LINE",
"1528 3096 LINE",
"1084 3096 LINE"
);
}
);
};
components = (
{
name = U;
},
{
name = tildeacutecomb.uc;
transform = "{1, 0, 0, 1, 1560, 0}";
}
);
layerId = "5C20EF92-B63D-42A8-8878-93C2863E0093";
width = 2032;
},
{
components = (
{
name = U;
},
{
name = tildeacutecomb.uc;
transform = "{1, 0, 0, 1, 1568, 0}";
}
);
layerId = "B1F27B51-9973-4381-9301-4FE46FE1CA59";
width = 2112;
},
{
layerId = "DB1B210E-75C3-45F4-95FF-BB3F4FD26361";
width = 600;
},
{
layerId = "244DDCDD-91CB-4447-98B0-DDFA97A87342";
width = 600;
},
{
layerId = "5F6731B1-FB4A-4A0D-82A2-13F618D6D6C6";
width = 600;
}
);
leftKerningGroup = U;
rightKerningGroup = J;
unicode = 1E78;
},
{
glyphname = uni0244;
lastChange = "2019-07-05 21:12:23 +0000";
layers = (
{
components = (
{
name = U;
}
);
guideLines = (
{
angle = 90;
position = "{1036, 148}";
}
);
layerId = "C698F293-3EC0-4A5A-A3A0-0FDB1F5CF265";
paths = (
{
closed = 1;
nodes = (
"-8 1188 LINE",
"-8 1024 LINE",
"2096 1024 LINE",
"2096 1188 LINE"
);
}
);
width = 2088;
},
{
components = (
{
name = U;
transform = "{1, 0, 0, 1, 84, 0}";
}
);
layerId = "5C20EF92-B63D-42A8-8878-93C2863E0093";
paths = (
{
closed = 1;
nodes = (
"-16 1148 LINE",
"-16 844 LINE",
"2192 844 LINE",
"2192 1148 LINE"
);
}
);
width = 2176;
},
{
components = (
{
alignment = -1;
name = U;
transform = "{1, 0, 0, 1, -52, 0}";
}
);
layerId = "B1F27B51-9973-4381-9301-4FE46FE1CA59";
paths = (
{
closed = 1;
nodes = (
"-4 1212 LINE",
"-4 1132 LINE",
"2040 1132 LINE",
"2040 1212 LINE"
);
}
);
width = 2035;
},
{
layerId = "DB1B210E-75C3-45F4-95FF-BB3F4FD26361";
width = 600;
},
{
layerId = "244DDCDD-91CB-4447-98B0-DDFA97A87342";
width = 600;
},
{
layerId = "5F6731B1-FB4A-4A0D-82A2-13F618D6D6C6";
width = 600;
}
);
leftKerningGroup = U;
rightKerningGroup = J;
unicode = 0244;
userData = {
com.typemytype.robofont.guideline.magnetic.DxUS4DFy1H = 5;
interface.gridadjust.original = "{'width': 2199, 'leftMargin': 41, 'rightMargin': 42}";
"interface.width-adjustments" = (
-16
);
};
},
{
color = (219,235,247,1);
glyphname = V;
lastChange = "2019-07-05 21:12:23 +0000";
layers = (
{
anchors = (
{
name = bottom;
position = "{952, 0}";
},
{
name = top;
position = "{952, 2304}";
}
);
guideLines = (
{
alignment = center;
angle = 90;
position = "{944, 476}";
},
{
angle = 90;
position = "{312, 2088}";
},
{
angle = 90;
position = "{1552, 2196}";
}
);
layerId = "C698F293-3EC0-4A5A-A3A0-0FDB1F5CF265";
paths = (
{
closed = 1;
nodes = (
"72 2048 LINE",
"824 0 LINE",
"1080 0 LINE",
"1832 2048 LINE",
"1572 2048 LINE",
"964 324 LINE",
"940 324 LINE",
"332 2048 LINE"
);
}
);
width = 1904;
},
{
anchors = (
{
name = bottom;
position = "{1120, 0}";
},
{
name = top;
position = "{1120, 2304}";
}
);
guideLines = (
{
alignment = center;
angle = 90;
position = "{1040, 1048}";
}
);
layerId = "5C20EF92-B63D-42A8-8878-93C2863E0093";
paths = (
{
closed = 1;
nodes = (
"64 2048 LINE",
"740 0 LINE",
"1500 0 LINE",
"2176 2048 LINE",
"1548 2048 LINE",
"1128 604 LINE",
"1112 604 LINE",
"692 2048 LINE"
);
}
);
width = 2240;
},
{
anchors = (
{
name = bottom;
position = "{1116, 0}";
},
{
name = top;
position = "{1116, 2180}";
}
);
associatedMasterId = "5C20EF92-B63D-42A8-8878-93C2863E0093";
guideLines = (
{
alignment = center;
angle = 90;
position = "{1040, 1048}";
}
);
layerId = "B0E2023B-B6D1-4711-B977-6B7F091C03CB";
name = "Oct 2 18, 14:43";
paths = (
{
closed = 1;
nodes = (
"64 2048 LINE",
"760 0 LINE",
"1472 0 LINE",
"2168 2048 LINE",
"1552 2048 LINE",
"1128 684 LINE",
"1104 684 LINE",
"680 2048 LINE"
);
}
);
width = 2232;
},
{
anchors = (
{
name = bottom;
position = "{868, 0}";
},
{
name = top;
position = "{868, 2304}";
}
);
layerId = "B1F27B51-9973-4381-9301-4FE46FE1CA59";
paths = (
{
closed = 1;
nodes = (
"92 2048 LINE",
"824 0 LINE",
"912 0 LINE",
"1644 2048 LINE",
"1576 2048 LINE",
"872 80 LINE",
"864 80 LINE",
"160 2048 LINE"
);
}
);
width = 1736;
},
{
layerId = "DB1B210E-75C3-45F4-95FF-BB3F4FD26361";
width = 600;
},
{
layerId = "244DDCDD-91CB-4447-98B0-DDFA97A87342";
width = 600;
},
{
layerId = "5F6731B1-FB4A-4A0D-82A2-13F618D6D6C6";
width = 600;
}
);
leftKerningGroup = V;
leftMetricsKey = A;
rightKerningGroup = V;
rightMetricsKey = A;
unicode = 0056;
userData = {
com.typemytype.robofont.guideline.magnetic.IJvllllLzF = 5;
com.typemytype.robofont.guideline.magnetic.KeOP4W9VuQ = 5;
com.typemytype.robofont.guideline.magnetic.yHrbtxZ5FX = 5;
"interface.width-adjustments" = (
-16
);
};
},
{
color = (219,235,247,1);
glyphname = W;
lastChange = "2019-07-05 21:12:23 +0000";
layers = (
{
anchors = (
{
name = bottom;
position = "{1336, 16}";
},
{
name = top;
position = "{1336, 2304}";
}
);
guideLines = (
{
position = "{1128, 360}";
},
{
alignment = center;
angle = 90;
position = "{1328, 2096}";
},
{
angle = 90;
position = "{740, 332}";
},
{
angle = 90;
position = "{1916, 356}";
}
);
layerId = "C698F293-3EC0-4A5A-A3A0-0FDB1F5CF265";
leftMetricsKey = "=A*0.84";
rightMetricsKey = "=A*0.84";
paths = (
{
closed = 1;
nodes = (
"876 0 LINE",
"1328 1632 LINE",
"1344 1632 LINE",
"1796 0 LINE",
"2052 0 LINE",
"2612 2048 LINE",
"2360 2048 LINE",
"1932 380 LINE",
"1912 380 LINE",
"1476 2048 LINE",
"1196 2048 LINE",
"760 380 LINE",
"740 380 LINE",
"312 2048 LINE",
"60 2048 LINE",
"620 0 LINE"
);
}
);
width = 2672;
},
{
anchors = (
{
name = bottom;
position = "{1540, 0}";
},
{
name = top;
position = "{1540, 2304}";
}
);
guideLines = (
{
alignment = center;
angle = 90;
position = "{1432, 2076}";
}
);
layerId = "5C20EF92-B63D-42A8-8878-93C2863E0093";
leftMetricsKey = "=A-16";
rightMetricsKey = "=A-16";
paths = (
{
closed = 1;
nodes = (
"1184 0 LINE",
"1532 1144 LINE",
"1548 1144 LINE",
"1896 0 LINE",
"2428 0 LINE",
"3032 2048 LINE",
"2412 2048 LINE",
"2132 784 LINE",
"2116 784 LINE",
"1784 2048 LINE",
"1296 2048 LINE",
"964 788 LINE",
"948 788 LINE",
"668 2048 LINE",
"48 2048 LINE",
"652 0 LINE"
);
}
);
width = 3080;
},
{
anchors = (
{
name = bottom;
position = "{1256, 16}";
},
{
name = top;
position = "{1256, 2304}";
}
);
layerId = "B1F27B51-9973-4381-9301-4FE46FE1CA59";
leftMetricsKey = "=A-12";
rightMetricsKey = "=A-12";
paths = (
{
closed = 1;
nodes = (
"732 0 LINE",
"1252 1948 LINE",
"1260 1948 LINE",
"1780 0 LINE",
"1868 0 LINE",
"2432 2048 LINE",
"2364 2048 LINE",
"1828 100 LINE",
"1820 100 LINE",
"1300 2048 LINE",
"1212 2048 LINE",
"692 100 LINE",
"684 100 LINE",
"148 2048 LINE",
"80 2048 LINE",
"644 0 LINE"
);
}
);
width = 2512;
},
{
anchors = (
{
name = bottom;
position = "{1216, 28}";
},
{
name = top;
position = "{1216, 2380}";
}
);
associatedMasterId = "B1F27B51-9973-4381-9301-4FE46FE1CA59";
background = {
paths = (
{
closed = 1;
nodes = (
"692 0 LINE",
"1208 1924 LINE",
"1224 1924 LINE",
"1736 0 LINE",
"1828 0 LINE",
"2360 2048 LINE",
"2328 2048 LINE",
"1812 140 LINE",
"1792 140 LINE",
"1292 2048 LINE",
"1136 2048 LINE",
"640 136 LINE",
"616 136 LINE",
"100 2048 LINE",
"68 2048 LINE",
"600 0 LINE"
);
}
);
};
layerId = "11917E52-1163-4D25-A7C8-D834BC2206AE";
name = "Nov 25 18, 14:25";
paths = (
{
closed = 1;
nodes = (
"64 2048 LINE",
"628 0 LINE",
"716 0 LINE",
"1256 2048 LINE",
"1188 2048 LINE",
"676 100 LINE",
"668 100 LINE",
"128 2048 LINE"
);
},
{
closed = 1;
nodes = (
"1816 100 LINE",
"1808 100 LINE",
"1296 2048 LINE",
"1228 2048 LINE",
"1768 0 LINE",
"1856 0 LINE",
"2420 2048 LINE",
"2356 2048 LINE"
);
}
);
width = 2432;
},
{
layerId = "DB1B210E-75C3-45F4-95FF-BB3F4FD26361";
width = 600;
},
{
layerId = "244DDCDD-91CB-4447-98B0-DDFA97A87342";
width = 600;
},
{
layerId = "5F6731B1-FB4A-4A0D-82A2-13F618D6D6C6";
width = 600;
}
);
leftKerningGroup = W;
rightKerningGroup = W;
unicode = 0057;
userData = {
com.typemytype.robofont.guideline.magnetic.8gZT6dIVxI = 5;
com.typemytype.robofont.guideline.magnetic.ZoWqubfLj9 = 5;
com.typemytype.robofont.guideline.magnetic.k6chDe7LUI = 5;
com.typemytype.robofont.guideline.magnetic.tUpIEqa0MC = 5;
"interface.width-adjustments" = (
-16
);
};
},
{
color = (219,235,247,1);
glyphname = X;
lastChange = "2019-07-05 21:12:23 +0000";
layers = (
{
anchors = (
{
name = bottom;
position = "{904, 16}";
},
{
name = cross;
position = "{904, 1024}";
},
{
name = cyrtic;
position = "{1688, 88}";
},
{
name = right;
position = "{1552, 0}";
},
{
name = top;
position = "{904, 2304}";
}
);
guideLines = (
{
angle = 90;
position = "{1724, 2180}";
},
{
alignment = center;
angle = 90;
position = "{896, 1372}";
},
{
angle = 90;
position = "{68, 2060}";
},
{
alignment = center;
position = "{1352, 1024}";
}
);
layerId = "C698F293-3EC0-4A5A-A3A0-0FDB1F5CF265";
paths = (
{
closed = 1;
nodes = (
"76 2048 LINE",
"736 1024 LINE",
"76 0 LINE",
"368 0 LINE",
"896 836 LINE",
"912 836 LINE",
"1440 0 LINE",
"1732 0 LINE",
"1088 1024 LINE",
"1732 2048 LINE",
"1440 2048 LINE",
"912 1196 LINE",
"896 1196 LINE",
"368 2048 LINE"
);
}
);
width = 1808;
},
{
anchors = (
{
name = bottom;
position = "{1072, -8}";
},
{
name = cross;
position = "{1072, 1024}";
},
{
name = cyrtic;
position = "{1960, 224}";
},
{
name = right;
position = "{1776, 0}";
},
{
name = top;
position = "{1072, 2304}";
}
);
guideLines = (
{
alignment = center;
angle = 90;
position = "{996, 2152}";
},
{
angle = 90;
position = "{96, 2084}";
},
{
angle = 90;
position = "{1896, 2080}";
},
{
alignment = center;
position = "{1156, 1024}";
}
);
layerId = "5C20EF92-B63D-42A8-8878-93C2863E0093";
paths = (
{
closed = 1;
nodes = (
"104 2048 LINE",
"712 1024 LINE",
"84 0 LINE",
"716 0 LINE",
"1064 608 LINE",
"1080 608 LINE",
"1428 0 LINE",
"2064 0 LINE",
"1428 1024 LINE",
"2040 2048 LINE",
"1420 2048 LINE",
"1080 1452 LINE",
"1064 1452 LINE",
"728 2048 LINE"
);
}
);
width = 2148;
},
{
anchors = (
{
name = bottom;
position = "{824, 16}";
},
{
name = cross;
position = "{824, 1024}";
},
{
name = cyrtic;
position = "{1548, 8}";
},
{
name = right;
position = "{1484, 0}";
},
{
name = top;
position = "{824, 2304}";
}
);
layerId = "B1F27B51-9973-4381-9301-4FE46FE1CA59";
paths = (
{
closed = 1;
nodes = (
"96 2048 LINE",
"784 1024 LINE",
"96 0 LINE",
"176 0 LINE",
"820 964 LINE",
"828 964 LINE",
"1472 0 LINE",
"1552 0 LINE",
"864 1024 LINE",
"1552 2048 LINE",
"1472 2048 LINE",
"828 1084 LINE",
"820 1084 LINE",
"176 2048 LINE"
);
}
);
width = 1648;
},
{
anchors = (
{
name = bottom;
position = "{804, 32}";
},
{
name = cross;
position = "{800, 1024}";
},
{
name = cyrtic;
position = "{1524, 8}";
},
{
name = right;
position = "{1420, 0}";
},
{
name = top;
position = "{804, 2380}";
}
);
associatedMasterId = "B1F27B51-9973-4381-9301-4FE46FE1CA59";
background = {
paths = (
{
closed = 1;
nodes = (
"60 2048 LINE",
"752 1024 LINE",
"72 0 LINE",
"160 0 LINE",
"796 972 LINE",
"812 972 LINE",
"1448 0 LINE",
"1532 0 LINE",
"884 1024 LINE",
"1548 2048 LINE",
"1452 2048 LINE",
"812 1044 LINE",
"796 1044 LINE",
"152 2048 LINE"
);
}
);
};
layerId = "E8D82951-B715-498B-B293-BF1B194F0E0C";
name = "Nov 25 18, 14:33";
paths = (
{
closed = 0;
nodes = (
"88 2084 LINE",
"1512 -36 LINE"
);
},
{
closed = 0;
nodes = (
"1512 2084 LINE",
"88 -36 LINE"
);
}
);
width = 1600;
},
{
anchors = (
{
name = bottom;
position = "{804, 32}";
},
{
name = cross;
position = "{800, 1024}";
},
{
name = cyrtic;
position = "{1524, 8}";
},
{
name = right;
position = "{1420, 0}";
},
{
name = top;
position = "{804, 2380}";
}
);
associatedMasterId = "B1F27B51-9973-4381-9301-4FE46FE1CA59";
background = {
paths = (
{
closed = 1;
nodes = (
"60 2048 LINE",
"752 1024 LINE",
"72 0 LINE",
"160 0 LINE",
"796 972 LINE",
"812 972 LINE",
"1448 0 LINE",
"1532 0 LINE",
"884 1024 LINE",
"1548 2048 LINE",
"1452 2048 LINE",
"812 1044 LINE",
"796 1044 LINE",
"152 2048 LINE"
);
}
);
};
layerId = "46A46977-E9DE-4073-9A61-A08C35965B24";
name = "Nov 25 18, 14:35";
paths = (
{
closed = 1;
nodes = (
"1528 0 LINE",
"152 2048 LINE",
"72 2048 LINE",
"1448 0 LINE"
);
},
{
closed = 1;
nodes = (
"152 0 LINE",
"1528 2048 LINE",
"1448 2048 LINE",
"72 0 LINE"
);
},
{
closed = 1;
nodes = (
"792 960 LINE",
"808 960 LINE",
"808 1088 LINE",
"792 1088 LINE"
);
}
);
width = 1600;
},
{
layerId = "DB1B210E-75C3-45F4-95FF-BB3F4FD26361";
width = 600;
},
{
layerId = "244DDCDD-91CB-4447-98B0-DDFA97A87342";
width = 600;
},
{
layerId = "5F6731B1-FB4A-4A0D-82A2-13F618D6D6C6";
width = 600;
}
);
leftKerningGroup = X;
note = "recipe: offset curve 32, no auto";
rightKerningGroup = X;
unicode = 0058;
userData = {
com.typemytype.robofont.guideline.magnetic.1jwe8yH4eD = 5;
com.typemytype.robofont.guideline.magnetic.AJAcp0DKEy = 5;
com.typemytype.robofont.guideline.magnetic.QFtArEHSdm = 5;
com.typemytype.robofont.guideline.magnetic.TR4vAYYyfi = 5;
com.typemytype.robofont.guideline.magnetic.nnmV4p3je2 = 5;
"interface.width-adjustments" = (
-16
);
};
},
{
color = (219,235,247,1);
glyphname = Y;
lastChange = "2019-07-05 21:12:23 +0000";
layers = (
{
anchors = (
{
name = bottom;
position = "{936, 0}";
},
{
name = cross;
position = "{936, 816}";
},
{
name = tonos;
position = "{-4, 2048}";
},
{
name = top;
position = "{936, 2304}";
}
);
guideLines = (
{
alignment = center;
angle = 90;
position = "{928, 1360}";
},
{
angle = 90;
position = "{332, 2092}";
},
{
angle = 90;
position = "{1492, 2100}";
}
);
layerId = "C698F293-3EC0-4A5A-A3A0-0FDB1F5CF265";
paths = (
{
closed = 1;
nodes = (
"812 844 LINE",
"812 0 LINE",
"1060 0 LINE",
"1060 844 LINE",
"1800 2048 LINE",
"1516 2048 LINE",
"948 1092 LINE",
"924 1092 LINE",
"356 2048 LINE",
"72 2048 LINE"
);
}
);
width = 1872;
},
{
anchors = (
{
name = bottom;
position = "{1076, 0}";
},
{
name = cross;
position = "{1076, 764}";
},
{
name = tonos;
position = "{-96, 2048}";
},
{
name = top;
position = "{1076, 2304}";
}
);
guideLines = (
{
alignment = center;
angle = 90;
position = "{980, 1724}";
}
);
layerId = "5C20EF92-B63D-42A8-8878-93C2863E0093";
paths = (
{
closed = 1;
nodes = (
"800 644 LINE",
"800 0 LINE",
"1352 0 LINE",
"1352 644 LINE",
"2104 2048 LINE",
"1484 2048 LINE",
"1084 1216 LINE",
"1068 1216 LINE",
"668 2048 LINE",
"48 2048 LINE"
);
}
);
width = 2152;
},
{
anchors = (
{
name = bottom;
position = "{860, 0}";
},
{
name = cross;
position = "{864, 832}";
},
{
name = tonos;
position = "{60, 2048}";
},
{
name = top;
position = "{864, 2304}";
}
);
layerId = "B1F27B51-9973-4381-9301-4FE46FE1CA59";
paths = (
{
closed = 1;
nodes = (
"832 972 LINE",
"832 0 LINE",
"896 0 LINE",
"896 972 LINE",
"1632 2048 LINE",
"1552 2048 LINE",
"868 1044 LINE",
"860 1044 LINE",
"176 2048 LINE",
"96 2048 LINE"
);
}
);
width = 1728;
},
{
anchors = (
{
name = bottom;
position = "{840, 0}";
},
{
name = cross;
position = "{840, 848}";
},
{
name = tonos;
position = "{40, 2048}";
},
{
name = top;
position = "{840, 2304}";
}
);
associatedMasterId = "B1F27B51-9973-4381-9301-4FE46FE1CA59";
background = {
paths = (
{
closed = 1;
nodes = (
"808 964 LINE",
"808 0 LINE",
"872 0 LINE",
"872 964 LINE",
"1604 2048 LINE",
"1524 2048 LINE",
"852 1020 LINE",
"824 1020 LINE",
"156 2048 LINE",
"72 2048 LINE"
);
}
);
};
layerId = "519B55C8-6087-452D-A6A5-C177CD7F711A";
name = "Nov 25 18, 15:20";
paths = (
{
closed = 1;
nodes = (
"808 972 LINE",
"872 972 LINE",
"1608 2048 LINE",
"1528 2048 LINE",
"844 1044 LINE",
"836 1044 LINE",
"152 2048 LINE",
"72 2048 LINE"
);
},
{
closed = 1;
nodes = (
"808 0 LINE",
"872 0 LINE",
"872 1012 LINE",
"808 1012 LINE"
);
}
);
width = 1680;
},
{
layerId = "DB1B210E-75C3-45F4-95FF-BB3F4FD26361";
width = 600;
},
{
layerId = "244DDCDD-91CB-4447-98B0-DDFA97A87342";
width = 600;
},
{
layerId = "5F6731B1-FB4A-4A0D-82A2-13F618D6D6C6";
width = 600;
}
);
leftKerningGroup = Y;
rightKerningGroup = Y;
unicode = 0059;
userData = {
com.typemytype.robofont.guideline.magnetic.KceIXUepDd = 5;
com.typemytype.robofont.guideline.magnetic.TWkdg41wEI = 5;
com.typemytype.robofont.guideline.magnetic.o5DXjGQkF9 = 5;
"interface.width-adjustments" = (
-16
);
};
},
{
glyphname = Yhook;
lastChange = "2019-07-05 21:12:23 +0000";
layers = (
{
guideLines = (
{
angle = 238.6031;
position = "{1496, 1588}";
},
{
angle = 239.3277;
position = "{1304, 1724}";
}
);
layerId = "C698F293-3EC0-4A5A-A3A0-0FDB1F5CF265";
paths = (
{
closed = 1;
nodes = (
"1612 1740 LINE SMOOTH",
"1680 1860 OFFCURVE",
"1772 1872 OFFCURVE",
"1868 1832 CURVE",
"1932 2032 LINE",
"1736 2124 OFFCURVE",
"1532 2064 OFFCURVE",
"1400 1844 CURVE SMOOTH",
"1356 1772 LINE",
"1572 1672 LINE"
);
},
{
closed = 1;
nodes = (
"964 1044 LINE",
"964 1092 LINE",
"916 1092 LINE",
"916 1044 LINE"
);
},
{
closed = 1;
nodes = (
"76 2048 LINE",
"816 844 LINE",
"816 0 LINE",
"1064 0 LINE",
"1064 844 LINE",
"1572 1672 LINE",
"1356 1772 LINE",
"940 1072 LINE",
"360 2048 LINE"
);
}
);
width = 1988;
},
{
guideLines = (
{
angle = 240.4178;
position = "{1184, 1336}";
},
{
angle = 238.4456;
position = "{1444, 988}";
}
);
layerId = "5C20EF92-B63D-42A8-8878-93C2863E0093";
paths = (
{
closed = 1;
nodes = (
"1924 1468 LINE SMOOTH",
"2010 1616 OFFCURVE",
"2074 1656 OFFCURVE",
"2236 1612 CURVE",
"2348 2020 LINE",
"2058 2120 OFFCURVE",
"1714 2096 OFFCURVE",
"1512 1744 CURVE SMOOTH",
"1432 1604 LINE",
"1888 1408 LINE"
);
},
{
closed = 1;
nodes = (
"1204 1168 LINE",
"1204 1216 LINE",
"1156 1216 LINE",
"1156 1168 LINE"
);
},
{
closed = 1;
nodes = (
"72 2048 LINE",
"904 756 LINE",
"904 0 LINE",
"1456 0 LINE",
"1456 756 LINE",
"1888 1408 LINE",
"1432 1604 LINE",
"1180 1196 LINE",
"668 2048 LINE"
);
}
);
width = 2380;
},
{
layerId = "B1F27B51-9973-4381-9301-4FE46FE1CA59";
paths = (
{
closed = 1;
nodes = (
"1424 1904 LINE SMOOTH",
"1482 2006 OFFCURVE",
"1591 2002 OFFCURVE",
"1648 1964 CURVE",
"1684 2040 LINE",
"1543 2126 OFFCURVE",
"1423 2045 OFFCURVE",
"1332 1904 CURVE SMOOTH",
"1312 1872 LINE",
"1384 1832 LINE"
);
},
{
closed = 1;
nodes = (
"820 972 LINE",
"820 1020 LINE",
"772 1020 LINE",
"772 972 LINE"
);
},
{
closed = 1;
nodes = (
"80 2048 LINE",
"764 896 LINE",
"764 0 LINE",
"828 0 LINE",
"828 896 LINE",
"1384 1832 LINE",
"1312 1872 LINE",
"796 1000 LINE",
"176 2048 LINE"
);
}
);
width = 1753;
},
{
layerId = "DB1B210E-75C3-45F4-95FF-BB3F4FD26361";
width = 600;
},
{
layerId = "244DDCDD-91CB-4447-98B0-DDFA97A87342";
width = 600;
},
{
layerId = "5F6731B1-FB4A-4A0D-82A2-13F618D6D6C6";
width = 600;
}
);
leftKerningGroup = Y;
note = "!post:RemoveOverlap";
rightKerningGroup = Y;
unicode = 01B3;
userData = {
com.typemytype.robofont.guideline.magnetic.1p4TietnVi = 5;
com.typemytype.robofont.guideline.magnetic.a19mK3ffcr = 5;
interface.gridadjust.original = "{'width': 1843, 'leftMargin': 18, 'rightMargin': -41}";
"interface.width-adjustments" = (
-16
);
};
},
{
glyphname = uni024E;
lastChange = "2019-07-05 21:12:23 +0000";
layers = (
{
components = (
{
name = Y;
}
);
guideLines = (
{
alignment = center;
angle = 90;
position = "{932, 1188}";
}
);
layerId = "C698F293-3EC0-4A5A-A3A0-0FDB1F5CF265";
paths = (
{
closed = 1;
nodes = (
"8 1628 LINE",
"8 1464 LINE",
"1872 1464 LINE",
"1872 1628 LINE"
);
}
);
width = 1880;
},
{
components = (
{
name = Y;
}
);
layerId = "5C20EF92-B63D-42A8-8878-93C2863E0093";
paths = (
{
closed = 1;
nodes = (
"36 1616 LINE",
"36 1356 LINE",
"2116 1356 LINE",
"2116 1616 LINE"
);
}
);
width = 2152;
},
{
components = (
{
alignment = -1;
name = Y;
}
);
layerId = "B1F27B51-9973-4381-9301-4FE46FE1CA59";
paths = (
{
closed = 1;
nodes = (
"-8 1636 LINE",
"-8 1528 LINE",
"1728 1528 LINE",
"1728 1636 LINE"
);
}
);
width = 1717;
},
{
layerId = "DB1B210E-75C3-45F4-95FF-BB3F4FD26361";
width = 600;
},
{
layerId = "244DDCDD-91CB-4447-98B0-DDFA97A87342";
width = 600;
},
{
layerId = "5F6731B1-FB4A-4A0D-82A2-13F618D6D6C6";
width = 600;
}
);
leftKerningGroup = Y;
rightKerningGroup = Y;
unicode = 024E;
userData = {
com.typemytype.robofont.guideline.magnetic.lWiVRVgKy6 = 5;
interface.gridadjust.original = "{'width': 1911, 'leftMargin': 41, 'rightMargin': 41}";
"interface.width-adjustments" = (
-16
);
};
},
{
color = (219,235,247,1);
glyphname = Z;
lastChange = "2019-07-05 21:12:23 +0000";
layers = (
{
anchors = (
{
name = bottom;
position = "{872, 0}";
},
{
name = cross;
position = "{900, 1056}";
},
{
name = top;
position = "{880, 2304}";
}
);
guideLines = (
{
angle = 90;
position = "{1592, 248}";
},
{
angle = 90;
position = "{168, 1280}";
},
{
angle = 90;
position = "{872, 2156}";
}
);
layerId = "C698F293-3EC0-4A5A-A3A0-0FDB1F5CF265";
paths = (
{
closed = 1;
nodes = (
"1592 0 LINE",
"1592 220 LINE",
"476 220 LINE",
"1580 1868 LINE",
"1580 2048 LINE",
"168 2048 LINE",
"168 1828 LINE",
"1284 1828 LINE",
"180 180 LINE",
"180 0 LINE"
);
}
);
width = 1760;
},
{
anchors = (
{
name = bottom;
position = "{980, 0}";
},
{
name = cross;
position = "{1020, 1084}";
},
{
name = top;
position = "{984, 2304}";
}
);
guideLines = (
{
position = "{12, 1552}";
},
{
angle = 55.0453;
position = "{1692, 1788}";
},
{
angle = 55.0343;
position = "{136, 276}";
},
{
angle = 90;
position = "{132, 1664}";
},
{
angle = 90;
position = "{1684, 384}";
},
{
alignment = center;
angle = 90;
position = "{1108, 800}";
}
);
layerId = "5C20EF92-B63D-42A8-8878-93C2863E0093";
paths = (
{
closed = 1;
nodes = (
"1812 0 LINE",
"1812 448 LINE",
"848 448 LINE",
"1816 1740 LINE",
"1816 2048 LINE",
"144 2048 LINE",
"144 1600 LINE",
"1108 1600 LINE",
"140 308 LINE",
"140 0 LINE"
);
}
);
width = 1956;
},
{
anchors = (
{
name = bottom;
position = "{852, 0}";
},
{
name = cross;
position = "{852, 1024}";
},
{
name = top;
position = "{852, 2304}";
}
);
guideLines = (
{
angle = 90;
position = "{212, 100}";
},
{
angle = 90;
position = "{1492, 100}";
}
);
layerId = "B1F27B51-9973-4381-9301-4FE46FE1CA59";
paths = (
{
closed = 1;
nodes = (
"1500 0 LINE",
"1500 64 LINE",
"288 64 LINE",
"1492 1984 LINE",
"1492 2048 LINE",
"220 2048 LINE",
"220 1984 LINE",
"1416 1984 LINE",
"212 64 LINE",
"212 0 LINE"
);
}
);
width = 1704;
},
{
layerId = "DB1B210E-75C3-45F4-95FF-BB3F4FD26361";
width = 600;
},
{
layerId = "244DDCDD-91CB-4447-98B0-DDFA97A87342";
width = 600;
},
{
layerId = "5F6731B1-FB4A-4A0D-82A2-13F618D6D6C6";
width = 600;
}
);
leftKerningGroup = Z;
rightKerningGroup = Z;
unicode = 005A;
userData = {
com.typemytype.robofont.guideline.magnetic.7L9fK9Z9Br = 5;
com.typemytype.robofont.guideline.magnetic.DPCAFAyemJ = 5;
com.typemytype.robofont.guideline.magnetic.VxRM18zW9m = 5;
"interface.width-adjustments" = (
-16
);
};
},
{
glyphname = uni0224;
lastChange = "2019-07-05 21:12:23 +0000";
layers = (
{
layerId = "C698F293-3EC0-4A5A-A3A0-0FDB1F5CF265";
paths = (
{
closed = 1;
nodes = (
"1016 0 LINE",
"1200 0 LINE SMOOTH",
"1340 0 OFFCURVE",
"1384 -112 OFFCURVE",
"1384 -228 CURVE",
"1384 -304 LINE",
"1608 -304 LINE",
"1608 -184 LINE",
"1608 56 OFFCURVE",
"1452 220 OFFCURVE",
"1200 220 CURVE SMOOTH",
"1016 220 LINE"
);
},
{
closed = 1;
nodes = (
"476 220 LINE",
"1580 1868 LINE",
"1580 2048 LINE",
"168 2048 LINE",
"168 1828 LINE",
"1284 1828 LINE",
"180 180 LINE",
"180 0 LINE",
"1016 0 LINE",
"1016 220 LINE"
);
}
);
width = 1760;
},
{
layerId = "5C20EF92-B63D-42A8-8878-93C2863E0093";
paths = (
{
closed = 1;
nodes = (
"1120 0 LINE",
"1188 0 LINE SMOOTH",
"1377 0 OFFCURVE",
"1409 -120 OFFCURVE",
"1408 -260 CURVE",
"1408 -384 LINE",
"1852 -384 LINE",
"1852 -160 LINE",
"1853 224 OFFCURVE",
"1621 448 OFFCURVE",
"1188 448 CURVE SMOOTH",
"1120 448 LINE"
);
},
{
closed = 1;
nodes = (
"832 448 LINE",
"1816 1740 LINE",
"1816 2048 LINE",
"144 2048 LINE",
"144 1600 LINE",
"1124 1600 LINE",
"140 308 LINE",
"140 0 LINE",
"1120 0 LINE",
"1120 448 LINE"
);
}
);
width = 1956;
},
{
layerId = "B1F27B51-9973-4381-9301-4FE46FE1CA59";
paths = (
{
closed = 1;
nodes = (
"956 0 LINE",
"1208 0 LINE SMOOTH",
"1318 0 OFFCURVE",
"1369 -107 OFFCURVE",
"1372 -208 CURVE",
"1372 -256 LINE",
"1464 -256 LINE",
"1464 -200 LINE",
"1461 -45 OFFCURVE",
"1351 83 OFFCURVE",
"1208 84 CURVE SMOOTH",
"956 84 LINE"
);
},
{
closed = 1;
nodes = (
"264 84 LINE",
"1440 1944 LINE",
"1440 2048 LINE",
"184 2048 LINE",
"184 1964 LINE",
"1380 1964 LINE",
"204 104 LINE",
"204 0 LINE",
"956 0 LINE",
"956 84 LINE"
);
}
);
width = 1642;
},
{
layerId = "DB1B210E-75C3-45F4-95FF-BB3F4FD26361";
width = 600;
},
{
layerId = "244DDCDD-91CB-4447-98B0-DDFA97A87342";
width = 600;
},
{
layerId = "5F6731B1-FB4A-4A0D-82A2-13F618D6D6C6";
width = 600;
}
);
leftKerningGroup = Z;
note = "!post:RemoveOverlap";
rightKerningGroup = Z;
unicode = 0224;
userData = {
interface.gridadjust.original = "{'width': 1724, 'leftMargin': 118, 'rightMargin': 44}";
"interface.width-adjustments" = (
-16
);
};
},
{
glyphname = uni2C7F;
lastChange = "2019-07-05 21:12:23 +0000";
layers = (
{
layerId = "C698F293-3EC0-4A5A-A3A0-0FDB1F5CF265";
paths = (
{
closed = 1;
nodes = (
"1480 -600 OFFCURVE",
"1572 -584 OFFCURVE",
"1616 -564 CURVE",
"1616 -344 LINE",
"1564 -356 OFFCURVE",
"1508 -368 OFFCURVE",
"1432 -368 CURVE SMOOTH",
"1140 -368 OFFCURVE",
"980 116 OFFCURVE",
"468 208 CURVE",
"1580 1868 LINE",
"1580 2048 LINE",
"168 2048 LINE",
"168 1828 LINE",
"1284 1828 LINE",
"180 180 LINE",
"180 0 LINE",
"288 0 LINE SMOOTH",
"796 0 OFFCURVE",
"972 -600 OFFCURVE",
"1388 -600 CURVE SMOOTH"
);
}
);
width = 1760;
},
{
layerId = "5C20EF92-B63D-42A8-8878-93C2863E0093";
paths = (
{
closed = 1;
nodes = (
"1664 -600 OFFCURVE",
"1748 -580 OFFCURVE",
"1816 -552 CURVE",
"1816 -136 LINE",
"1748 -160 OFFCURVE",
"1680 -168 OFFCURVE",
"1604 -168 CURVE SMOOTH",
"1328 -168 OFFCURVE",
"1164 208 OFFCURVE",
"808 368 CURVE",
"1792 1712 LINE",
"1792 1988 LINE",
"140 1988 LINE",
"140 1552 LINE",
"1084 1552 LINE",
"136 280 LINE",
"136 0 LINE",
"292 0 LINE SMOOTH",
"904 0 OFFCURVE",
"996 -600 OFFCURVE",
"1568 -600 CURVE SMOOTH"
);
}
);
width = 1956;
},
{
layerId = "B1F27B51-9973-4381-9301-4FE46FE1CA59";
paths = (
{
closed = 1;
nodes = (
"1370 -600 OFFCURVE",
"1466 -586 OFFCURVE",
"1496 -572 CURVE",
"1496 -468 LINE",
"1454 -474 OFFCURVE",
"1405 -488 OFFCURVE",
"1328 -488 CURVE SMOOTH",
"1027 -488 OFFCURVE",
"870 61 OFFCURVE",
"264 112 CURVE",
"1452 1964 LINE",
"1452 2084 LINE",
"184 2084 LINE",
"184 1996 LINE",
"1404 1996 LINE",
"208 120 LINE",
"208 0 LINE",
"288 0 LINE SMOOTH",
"731 0 OFFCURVE",
"958 -600 OFFCURVE",
"1280 -600 CURVE SMOOTH"
);
}
);
width = 1642;
},
{
layerId = "DB1B210E-75C3-45F4-95FF-BB3F4FD26361";
width = 600;
},
{
layerId = "244DDCDD-91CB-4447-98B0-DDFA97A87342";
width = 600;
},
{
layerId = "5F6731B1-FB4A-4A0D-82A2-13F618D6D6C6";
width = 600;
}
);
leftKerningGroup = Z;
rightKerningGroup = Z;
unicode = 2C7F;
userData = {
interface.gridadjust.original = "{'width': 1687, 'leftMargin': 117, 'rightMargin': 115}";
"interface.width-adjustments" = (
-16
);
};
},
{
color = (219,235,247,1);
glyphname = a;
lastChange = "2019-07-05 20:29:37 +0000";
layers = (
{
anchors = (
{
name = bottom;
position = "{808, 0}";
},
{
name = ogonek;
position = "{1372, 0}";
},
{
name = rhalfring;
position = "{804, 1792}";
},
{
name = top;
position = "{820, 1792}";
}
);
guideLines = (
{
angle = 90;
position = "{804, 1160}";
}
);
layerId = "C698F293-3EC0-4A5A-A3A0-0FDB1F5CF265";
paths = (
{
closed = 1;
nodes = (
"936 -36 OFFCURVE",
"1076 108 OFFCURVE",
"1124 208 CURVE",
"1136 208 LINE",
"1136 0 LINE",
"1372 0 LINE",
"1372 1012 LINE SMOOTH",
"1372 1500 OFFCURVE",
"1000 1556 OFFCURVE",
"804 1556 CURVE SMOOTH",
"572 1556 OFFCURVE",
"308 1476 OFFCURVE",
"188 1196 CURVE",
"412 1116 LINE",
"464 1228 OFFCURVE",
"587 1348 OFFCURVE",
"812 1348 CURVE SMOOTH",
"1029 1348 OFFCURVE",
"1136 1233 OFFCURVE",
"1136 1036 CURVE SMOOTH",
"1136 1028 LINE SMOOTH",
"1136 914 OFFCURVE",
"1020 924 OFFCURVE",
"740 888 CURVE SMOOTH",
"455 851 OFFCURVE",
"144 788 OFFCURVE",
"144 436 CURVE SMOOTH",
"144 136 OFFCURVE",
"376 -36 OFFCURVE",
"668 -36 CURVE SMOOTH"
);
},
{
closed = 1;
nodes = (
"516 176 OFFCURVE",
"380 260 OFFCURVE",
"380 424 CURVE SMOOTH",
"380 604 OFFCURVE",
"544 660 OFFCURVE",
"728 684 CURVE SMOOTH",
"828 696 OFFCURVE",
"1096 724 OFFCURVE",
"1136 772 CURVE",
"1136 556 LINE SMOOTH",
"1136 364 OFFCURVE",
"984 176 OFFCURVE",
"704 176 CURVE SMOOTH"
);
}
);
width = 1588;
},
{
anchors = (
{
name = bottom;
position = "{828, 0}";
},
{
name = ogonek;
position = "{1540, 0}";
},
{
name = rhalfring;
position = "{860, 1792}";
},
{
name = top;
position = "{848, 1792}";
}
);
background = {
paths = (
{
closed = 1;
nodes = (
"768 -24 OFFCURVE",
"919 44 OFFCURVE",
"1012 216 CURVE",
"1024 216 LINE",
"1024 0 LINE",
"1540 0 LINE",
"1540 1052 LINE SMOOTH",
"1540 1336 OFFCURVE",
"1266 1556 OFFCURVE",
"844 1556 CURVE SMOOTH",
"368 1556 OFFCURVE",
"147 1316 OFFCURVE",
"128 1036 CURVE",
"636 1036 LINE",
"649 1131 OFFCURVE",
"719 1176 OFFCURVE",
"824 1176 CURVE SMOOTH",
"922 1176 OFFCURVE",
"986 1134 OFFCURVE",
"988 1052 CURVE SMOOTH",
"990 960 OFFCURVE",
"890 931 OFFCURVE",
"632 912 CURVE SMOOTH",
"315 889 OFFCURVE",
"68 761 OFFCURVE",
"68 424 CURVE SMOOTH",
"68 118 OFFCURVE",
"274 -24 OFFCURVE",
"568 -24 CURVE SMOOTH"
);
},
{
closed = 1;
nodes = (
"654 324 OFFCURVE",
"588 370 OFFCURVE",
"588 456 CURVE SMOOTH",
"588 535 OFFCURVE",
"644 596 OFFCURVE",
"772 616 CURVE SMOOTH",
"860 630 OFFCURVE",
"934 648 OFFCURVE",
"992 672 CURVE",
"992 544 LINE SMOOTH",
"992 404 OFFCURVE",
"873 324 OFFCURVE",
"748 324 CURVE SMOOTH"
);
}
);
};
guideLines = (
{
position = "{-24, 2280}";
},
{
angle = 90;
position = "{824, 1164}";
}
);
layerId = "5C20EF92-B63D-42A8-8878-93C2863E0093";
paths = (
{
closed = 1;
nodes = (
"768 -24 OFFCURVE",
"919 44 OFFCURVE",
"1012 216 CURVE",
"1024 216 LINE",
"1024 0 LINE",
"1540 0 LINE",
"1540 1052 LINE SMOOTH",
"1540 1336 OFFCURVE",
"1271 1556 OFFCURVE",
"832 1556 CURVE SMOOTH",
"373 1556 OFFCURVE",
"147 1316 OFFCURVE",
"128 1036 CURVE",
"636 1036 LINE",
"649 1131 OFFCURVE",
"719 1176 OFFCURVE",
"824 1176 CURVE SMOOTH",
"920 1176 OFFCURVE",
"988 1132 OFFCURVE",
"988 1052 CURVE SMOOTH",
"988 1048 LINE SMOOTH",
"988 959 OFFCURVE",
"890 931 OFFCURVE",
"632 912 CURVE SMOOTH",
"315 889 OFFCURVE",
"68 761 OFFCURVE",
"68 424 CURVE SMOOTH",
"68 118 OFFCURVE",
"274 -24 OFFCURVE",
"568 -24 CURVE SMOOTH"
);
},
{
closed = 1;
nodes = (
"654 324 OFFCURVE",
"588 370 OFFCURVE",
"588 456 CURVE SMOOTH",
"588 535 OFFCURVE",
"644 596 OFFCURVE",
"772 616 CURVE SMOOTH",
"860 630 OFFCURVE",
"934 648 OFFCURVE",
"992 672 CURVE",
"992 544 LINE SMOOTH",
"992 404 OFFCURVE",
"873 324 OFFCURVE",
"748 324 CURVE SMOOTH"
);
}
);
width = 1664;
},
{
anchors = (
{
name = bottom;
position = "{784, 0}";
},
{
name = ogonek;
position = "{1468, 0}";
},
{
name = rhalfring;
position = "{788, 1768}";
},
{
name = rhotichook;
position = "{1240, 896}";
},
{
name = top;
position = "{784, 1768}";
}
);
associatedMasterId = "5C20EF92-B63D-42A8-8878-93C2863E0093";
background = {
paths = (
{
closed = 1;
nodes = (
"908 392 OFFCURVE",
"792 356 OFFCURVE",
"716 356 CURVE SMOOTH",
"640 356 OFFCURVE",
"596 396 OFFCURVE",
"596 468 CURVE SMOOTH",
"596 604 OFFCURVE",
"753 619 OFFCURVE",
"800 628 CURVE SMOOTH",
"832 634 OFFCURVE",
"886 646 OFFCURVE",
"908 656 CURVE",
"908 468 LINE SMOOTH"
);
},
{
closed = 1;
nodes = (
"1468 0 LINE",
"1468 1052 LINE SMOOTH",
"1468 1336 OFFCURVE",
"1224 1556 OFFCURVE",
"800 1556 CURVE SMOOTH",
"368 1556 OFFCURVE",
"112 1324 OFFCURVE",
"84 1040 CURVE",
"600 1016 LINE",
"608 1112 OFFCURVE",
"684 1152 OFFCURVE",
"764 1152 CURVE SMOOTH",
"857 1152 OFFCURVE",
"908 1096 OFFCURVE",
"908 1028 CURVE SMOOTH",
"908 1024 LINE",
"908 956 OFFCURVE",
"796 948 OFFCURVE",
"732 944 CURVE SMOOTH",
"244 900 OFFCURVE",
"64 696 OFFCURVE",
"64 432 CURVE SMOOTH",
"64 136 OFFCURVE",
"288 -24 OFFCURVE",
"552 -24 CURVE SMOOTH",
"748 -24 OFFCURVE",
"874 68 OFFCURVE",
"932 216 CURVE",
"944 216 LINE",
"944 0 LINE"
);
}
);
};
guideLines = (
{
position = "{-20, 2280}";
},
{
alignment = center;
angle = 90;
position = "{772, 1164}";
}
);
layerId = "75C5A6BE-241A-4FA2-B6E6-D098F83BCB36";
name = "Sep 26 18, 17:42";
paths = (
{
closed = 1;
nodes = (
"748 -24 OFFCURVE",
"874 68 OFFCURVE",
"932 216 CURVE",
"944 216 LINE",
"944 0 LINE",
"1468 0 LINE",
"1468 1052 LINE SMOOTH",
"1468 1336 OFFCURVE",
"1224 1556 OFFCURVE",
"800 1556 CURVE SMOOTH",
"368 1556 OFFCURVE",
"115 1326 OFFCURVE",
"84 1036 CURVE",
"600 1036 LINE",
"608 1123 OFFCURVE",
"684 1168 OFFCURVE",
"764 1168 CURVE SMOOTH",
"849 1168 OFFCURVE",
"908 1122 OFFCURVE",
"908 1044 CURVE",
"732 920 LINE",
"245 885 OFFCURVE",
"64 696 OFFCURVE",
"64 432 CURVE SMOOTH",
"64 136 OFFCURVE",
"288 -24 OFFCURVE",
"552 -24 CURVE SMOOTH"
);
},
{
closed = 1;
nodes = (
"640 356 OFFCURVE",
"596 396 OFFCURVE",
"596 468 CURVE SMOOTH",
"596 604 OFFCURVE",
"753 619 OFFCURVE",
"800 628 CURVE SMOOTH",
"832 634 OFFCURVE",
"886 646 OFFCURVE",
"908 656 CURVE",
"908 468 LINE SMOOTH",
"908 392 OFFCURVE",
"792 356 OFFCURVE",
"716 356 CURVE SMOOTH"
);
}
);
width = 1580;
},
{
anchors = (
{
name = bottom;
position = "{844, 0}";
},
{
name = ogonek;
position = "{1564, 0}";
},
{
name = rhalfring;
position = "{876, 1768}";
},
{
name = rhotichook;
position = "{1336, 896}";
},
{
name = top;
position = "{840, 1768}";
}
);
associatedMasterId = "5C20EF92-B63D-42A8-8878-93C2863E0093";
background = {
paths = (
{
closed = 1;
nodes = (
"1592 0 LINE",
"1592 24 LINE",
"1548 55 OFFCURVE",
"1540 123 OFFCURVE",
"1540 252 CURVE SMOOTH",
"1540 1004 LINE SMOOTH",
"1540 1204 OFFCURVE",
"1466 1359 OFFCURVE",
"1316 1456 CURVE SMOOTH",
"1207 1527 OFFCURVE",
"1066 1556 OFFCURVE",
"848 1556 CURVE SMOOTH",
"396 1556 OFFCURVE",
"176 1310 OFFCURVE",
"164 1012 CURVE",
"668 1012 LINE",
"683 1122 OFFCURVE",
"742 1193 OFFCURVE",
"860 1192 CURVE SMOOTH",
"973 1191 OFFCURVE",
"1010 1131 OFFCURVE",
"1012 1048 CURVE SMOOTH",
"1014 954 OFFCURVE",
"928 915 OFFCURVE",
"624 880 CURVE SMOOTH",
"348 848 OFFCURVE",
"103 749 OFFCURVE",
"104 416 CURVE SMOOTH",
"105 120 OFFCURVE",
"306 -38 OFFCURVE",
"584 -36 CURVE SMOOTH",
"768 -35 OFFCURVE",
"920 28 OFFCURVE",
"1016 168 CURVE",
"1020 168 LINE",
"1032 85 OFFCURVE",
"1049 38 OFFCURVE",
"1068 0 CURVE"
);
},
{
closed = 1;
nodes = (
"694 297 OFFCURVE",
"615 339 OFFCURVE",
"616 440 CURVE SMOOTH",
"617 528 OFFCURVE",
"663 575 OFFCURVE",
"820 612 CURVE SMOOTH",
"908 633 OFFCURVE",
"973 655 OFFCURVE",
"1024 680 CURVE",
"1024 548 LINE SMOOTH",
"1024 368 OFFCURVE",
"906 295 OFFCURVE",
"784 296 CURVE SMOOTH"
);
}
);
};
guideLines = (
{
position = "{-8, 2280}";
},
{
alignment = center;
angle = 90;
position = "{788, 1164}";
}
);
layerId = "00CCD84C-41A0-43E6-8172-881975B0E843";
name = "Sep 30 18, 11:59";
paths = (
{
closed = 1;
nodes = (
"775 -24 OFFCURVE",
"944 53 OFFCURVE",
"1028 216 CURVE",
"1040 216 LINE",
"1040 0 LINE",
"1556 0 LINE",
"1556 1052 LINE SMOOTH",
"1554 1336 OFFCURVE",
"1282 1556 OFFCURVE",
"860 1556 CURVE SMOOTH",
"410 1556 OFFCURVE",
"162 1316 OFFCURVE",
"120 1036 CURVE",
"636 1036 LINE",
"650 1132 OFFCURVE",
"734 1168 OFFCURVE",
"824 1168 CURVE SMOOTH",
"934 1168 OFFCURVE",
"1010 1120 OFFCURVE",
"1012 1044 CURVE",
"748 920 LINE",
"266 890 OFFCURVE",
"70 720 OFFCURVE",
"68 448 CURVE SMOOTH",
"66 157 OFFCURVE",
"290 -24 OFFCURVE",
"584 -24 CURVE SMOOTH"
);
},
{
closed = 1;
nodes = (
"670 356 OFFCURVE",
"610 396 OFFCURVE",
"612 468 CURVE SMOOTH",
"610 561 OFFCURVE",
"710 616 OFFCURVE",
"852 632 CURVE SMOOTH",
"886 636 OFFCURVE",
"986 648 OFFCURVE",
"1008 656 CURVE",
"1008 528 LINE SMOOTH",
"1006 435 OFFCURVE",
"901 356 OFFCURVE",
"764 356 CURVE SMOOTH"
);
}
);
width = 1680;
},
{
anchors = (
{
name = bottom;
position = "{844, 0}";
},
{
name = ogonek;
position = "{1564, 0}";
},
{
name = rhalfring;
position = "{876, 1768}";
},
{
name = rhotichook;
position = "{1336, 896}";
},
{
name = top;
position = "{840, 1768}";
}
);
associatedMasterId = "5C20EF92-B63D-42A8-8878-93C2863E0093";
background = {
paths = (
{
closed = 1;
nodes = (
"1576 0 LINE",
"1576 24 LINE",
"1532 55 OFFCURVE",
"1524 123 OFFCURVE",
"1524 252 CURVE SMOOTH",
"1524 1004 LINE SMOOTH",
"1524 1204 OFFCURVE",
"1450 1359 OFFCURVE",
"1300 1456 CURVE SMOOTH",
"1191 1527 OFFCURVE",
"1050 1556 OFFCURVE",
"832 1556 CURVE SMOOTH",
"380 1556 OFFCURVE",
"160 1310 OFFCURVE",
"148 1012 CURVE",
"652 1012 LINE",
"667 1122 OFFCURVE",
"726 1193 OFFCURVE",
"844 1192 CURVE SMOOTH",
"957 1191 OFFCURVE",
"994 1131 OFFCURVE",
"996 1048 CURVE SMOOTH",
"998 954 OFFCURVE",
"912 915 OFFCURVE",
"608 880 CURVE SMOOTH",
"332 848 OFFCURVE",
"87 749 OFFCURVE",
"88 416 CURVE SMOOTH",
"89 120 OFFCURVE",
"290 -38 OFFCURVE",
"568 -36 CURVE SMOOTH",
"752 -35 OFFCURVE",
"904 28 OFFCURVE",
"1000 168 CURVE",
"1004 168 LINE",
"1016 85 OFFCURVE",
"1033 38 OFFCURVE",
"1052 0 CURVE"
);
},
{
closed = 1;
nodes = (
"678 297 OFFCURVE",
"599 339 OFFCURVE",
"600 440 CURVE SMOOTH",
"601 528 OFFCURVE",
"647 575 OFFCURVE",
"804 612 CURVE SMOOTH",
"892 633 OFFCURVE",
"957 655 OFFCURVE",
"1008 680 CURVE",
"1008 548 LINE SMOOTH",
"1008 368 OFFCURVE",
"890 295 OFFCURVE",
"768 296 CURVE SMOOTH"
);
}
);
};
guideLines = (
{
position = "{-8, 2280}";
},
{
alignment = center;
angle = 90;
position = "{788, 1164}";
}
);
layerId = "2CDF9812-AD29-48AE-8B76-BD52A242888B";
name = "Sep 30 18, 12:14";
paths = (
{
closed = 1;
nodes = (
"784 -24 OFFCURVE",
"935 44 OFFCURVE",
"1028 216 CURVE",
"1040 216 LINE",
"1040 0 LINE",
"1556 0 LINE",
"1556 1052 LINE SMOOTH",
"1556 1336 OFFCURVE",
"1282 1556 OFFCURVE",
"860 1556 CURVE SMOOTH",
"410 1556 OFFCURVE",
"186 1316 OFFCURVE",
"144 1036 CURVE",
"652 1036 LINE",
"665 1131 OFFCURVE",
"729 1188 OFFCURVE",
"840 1188 CURVE SMOOTH",
"947 1188 OFFCURVE",
"994 1134 OFFCURVE",
"996 1052 CURVE",
"648 892 LINE",
"332 854 OFFCURVE",
"84 761 OFFCURVE",
"84 424 CURVE SMOOTH",
"84 118 OFFCURVE",
"290 -24 OFFCURVE",
"584 -24 CURVE SMOOTH"
);
},
{
closed = 1;
nodes = (
"670 316 OFFCURVE",
"604 358 OFFCURVE",
"604 444 CURVE SMOOTH",
"604 532 OFFCURVE",
"660 580 OFFCURVE",
"808 616 CURVE SMOOTH",
"890 636 OFFCURVE",
"954 655 OFFCURVE",
"1008 680 CURVE",
"1008 552 LINE SMOOTH",
"1008 399 OFFCURVE",
"898 316 OFFCURVE",
"764 316 CURVE SMOOTH"
);
}
);
width = 1680;
},
{
anchors = (
{
name = bottom;
position = "{764, 0}";
},
{
name = ogonek;
position = "{1244, 0}";
},
{
name = rhalfring;
position = "{764, 1792}";
},
{
name = top;
position = "{760, 1792}";
}
);
guideLines = (
{
angle = 90;
position = "{748, 1616}";
}
);
layerId = "B1F27B51-9973-4381-9301-4FE46FE1CA59";
paths = (
{
closed = 1;
nodes = (
"888 -32 OFFCURVE",
"1076 104 OFFCURVE",
"1172 312 CURVE",
"1180 312 LINE",
"1180 0 LINE",
"1244 0 LINE",
"1244 1104 LINE SMOOTH",
"1244 1364 OFFCURVE",
"1056 1560 OFFCURVE",
"744 1560 CURVE SMOOTH",
"504 1560 OFFCURVE",
"304 1440 OFFCURVE",
"232 1248 CURVE",
"292 1224 LINE",
"356 1396 OFFCURVE",
"528 1496 OFFCURVE",
"744 1496 CURVE SMOOTH",
"1008 1496 OFFCURVE",
"1180 1340 OFFCURVE",
"1180 1104 CURVE SMOOTH",
"1180 1012 LINE SMOOTH",
"1180 892 OFFCURVE",
"980 868 OFFCURVE",
"768 844 CURVE SMOOTH",
"296 788 OFFCURVE",
"188 624 OFFCURVE",
"188 416 CURVE SMOOTH",
"188 128 OFFCURVE",
"404 -32 OFFCURVE",
"656 -32 CURVE SMOOTH"
);
},
{
closed = 1;
nodes = (
"428 32 OFFCURVE",
"252 184 OFFCURVE",
"252 416 CURVE SMOOTH",
"252 612 OFFCURVE",
"380 736 OFFCURVE",
"792 784 CURVE SMOOTH",
"968 804 OFFCURVE",
"1104 832 OFFCURVE",
"1180 888 CURVE",
"1180 656 LINE SMOOTH",
"1180 284 OFFCURVE",
"948 32 OFFCURVE",
"656 32 CURVE SMOOTH"
);
}
);
width = 1524;
},
{
anchors = (
{
name = bottom;
position = "{796, 0}";
},
{
name = ogonek;
position = "{1272, 0}";
},
{
name = rhalfring;
position = "{772, 1808}";
},
{
name = rhotichook;
position = "{1256, 916}";
},
{
name = top;
position = "{808, 1808}";
}
);
associatedMasterId = "B1F27B51-9973-4381-9301-4FE46FE1CA59";
background = {
paths = (
{
closed = 1;
nodes = (
"1037 -43 OFFCURVE",
"1170 146 OFFCURVE",
"1192 204 CURVE",
"1204 204 LINE",
"1204 0 LINE",
"1272 0 LINE",
"1272 988 LINE SMOOTH",
"1271 1598 OFFCURVE",
"840 1556 OFFCURVE",
"780 1556 CURVE SMOOTH",
"694 1556 OFFCURVE",
"405 1572 OFFCURVE",
"224 1292 CURVE",
"280 1164 LINE",
"353 1286 OFFCURVE",
"508 1451 OFFCURVE",
"804 1452 CURVE SMOOTH",
"1096 1451 OFFCURVE",
"1226 1289 OFFCURVE",
"1224 1020 CURVE SMOOTH",
"1224 893 OFFCURVE",
"1098 920 OFFCURVE",
"804 876 CURVE SMOOTH",
"539 828 OFFCURVE",
"190 804 OFFCURVE",
"192 444 CURVE SMOOTH",
"190 147 OFFCURVE",
"437 -43 OFFCURVE",
"728 -44 CURVE SMOOTH"
);
},
{
closed = 1;
nodes = (
"433 87 OFFCURVE",
"255 194 OFFCURVE",
"256 404 CURVE SMOOTH",
"255 645 OFFCURVE",
"484 698 OFFCURVE",
"704 724 CURVE SMOOTH",
"809 736 OFFCURVE",
"1193 770 OFFCURVE",
"1224 832 CURVE",
"1224 564 LINE SMOOTH",
"1222 340 OFFCURVE",
"1051 87 OFFCURVE",
"680 88 CURVE SMOOTH"
);
}
);
};
layerId = "C048B457-D40C-4F93-8CFB-4D7997732505";
name = "Nov 25 18, 18:14";
paths = (
{
closed = 0;
nodes = (
"1240 0 LINE",
"1240 1060 LINE",
"1240 1330 OFFCURVE",
"1030 1445 OFFCURVE",
"784 1444 CURVE",
"540 1445 OFFCURVE",
"355 1330 OFFCURVE",
"288 1152 CURVE"
);
},
{
closed = 0;
nodes = (
"1240 1000 LINE",
"1240 860 OFFCURVE",
"1055 821 OFFCURVE",
"740 784 CURVE",
"425 749 OFFCURVE",
"250 640 OFFCURVE",
"248 432 CURVE",
"250 220 OFFCURVE",
"440 70 OFFCURVE",
"676 72 CURVE",
"910 70 OFFCURVE",
"1240 180 OFFCURVE",
"1240 656 CURVE"
);
}
);
width = 1542;
},
{
anchors = (
{
name = bottom;
position = "{764, 0}";
},
{
name = ogonek;
position = "{1244, 0}";
},
{
name = rhalfring;
position = "{764, 1792}";
},
{
name = rhotichook;
position = "{1228, 916}";
},
{
name = top;
position = "{760, 1792}";
}
);
associatedMasterId = "B1F27B51-9973-4381-9301-4FE46FE1CA59";
layerId = "937F9D9A-E5DA-440F-B0FC-EFB5D457015F";
name = "Nov 26 18, 08:24";
paths = (
{
closed = 1;
nodes = (
"354 1394 OFFCURVE",
"529 1497 OFFCURVE",
"744 1496 CURVE SMOOTH",
"1009 1495 OFFCURVE",
"1180 1339 OFFCURVE",
"1180 1104 CURVE SMOOTH",
"1180 0 LINE",
"1244 0 LINE",
"1244 1104 LINE SMOOTH",
"1244 1362 OFFCURVE",
"1056 1561 OFFCURVE",
"744 1560 CURVE SMOOTH",
"504 1559 OFFCURVE",
"302 1440 OFFCURVE",
"232 1248 CURVE",
"292 1224 LINE"
);
},
{
closed = 1;
nodes = (
"1001 -32 OFFCURVE",
"1244 265 OFFCURVE",
"1244 656 CURVE",
"1180 656 LINE",
"1180 283 OFFCURVE",
"948 32 OFFCURVE",
"656 32 CURVE SMOOTH",
"429 32 OFFCURVE",
"252 185 OFFCURVE",
"252 416 CURVE SMOOTH",
"252 613 OFFCURVE",
"378 736 OFFCURVE",
"792 784 CURVE SMOOTH",
"1069 816 OFFCURVE",
"1244 865 OFFCURVE",
"1244 1012 CURVE",
"1180 1012 LINE",
"1180 893 OFFCURVE",
"980 869 OFFCURVE",
"768 844 CURVE SMOOTH",
"295 788 OFFCURVE",
"188 623 OFFCURVE",
"188 416 CURVE SMOOTH",
"188 129 OFFCURVE",
"403 -32 OFFCURVE",
"656 -32 CURVE SMOOTH"
);
},
{
closed = 1;
nodes = (
"1164 312 LINE",
"1192 312 LINE",
"1192 352 LINE",
"1164 352 LINE"
);
}
);
width = 1524;
},
{
layerId = "DB1B210E-75C3-45F4-95FF-BB3F4FD26361";
width = 600;
},
{
layerId = "5F6731B1-FB4A-4A0D-82A2-13F618D6D6C6";
width = 600;
},
{
layerId = "244DDCDD-91CB-4447-98B0-DDFA97A87342";
width = 600;
}
);
leftKerningGroup = a;
rightKerningGroup = a;
unicode = 0061;
userData = {
com.typemytype.robofont.guideline.magnetic.bPqRSFRUb5 = 5;
"interface.width-adjustments" = (
-16
);
};
},
